<?xml version="1.0" standalone="no"?>
<!DOCTYPE svg PUBLIC "-//W3C//DTD SVG 1.1//EN" "http://www.w3.org/Graphics/SVG/1.1/DTD/svg11.dtd" >
<svg>
<metadata>
Created by FontForge 20090914 at Mon Jul  8 09:32:17 2013
 By www-data
Copyright (c) 2010 by . All rights reserved.
</metadata>
<defs>
<font id="mjTania" horiz-adv-x="0" >
  <font-face 
    font-family="mj  Tania"
    font-weight="400"
    font-stretch="normal"
    units-per-em="1000"
    panose-1="0 1 0 0 0 0 0 0 0 0"
    ascent="800"
    descent="-200"
    x-height="389.999"
    cap-height="540.002"
    bbox="-375.985 -303 2393 1312"
    underline-thickness="20"
    underline-position="-200"
    unicode-range="U+0020-U+FEFF"
  />
<missing-glyph horiz-adv-x="500" 
d="M63 0v604h375v-604h-375zM125 63h250v479h-250v-479z" />
    <glyph glyph-name="lamwithalefmaddaaboveisolatedd" unicode="&#xfedf;&#xfe82;" horiz-adv-x="392" arabic-form="isolated" 
d="M52 585c18 12 40.002 15.001 66.002 9.00098c12 -3.33301 22 -4.16602 30 -2.49902s15 4.83398 21 9.50098s11 10.667 15 18l12 23l25 -10l-12 -24.5c-4.66699 -9.66699 -11.167 -18.334 -19.5 -26.001s-18.833 -13.334 -31.5 -17.001s-28.334 -2.83398 -47.001 2.49902
c-16.667 4.66699 -31.667 3 -45 -5c-6.66699 -4 -12.334 -9.33301 -17.001 -16s-11 -21 -19 -43l-26 5c2.66699 12.667 5.83398 23 9.50098 31s8.66699 16.167 15 24.5s14.166 15.5 23.499 21.5zM189.002 37.001c11.333 0 21.6641 2.00195 30.9971 6.00195
c-20.667 2 -38.667 9.66699 -54 23s-28.166 28.833 -38.499 46.5s-18 36.167 -23 55.5s-7.5 36.666 -7.5 51.999v290l63 23l1 -331c0 -79.333 26.333 -127.333 79 -144c9.33301 9.33301 16.333 20.666 21 33.999s7.33398 32 8.00098 56v393l63 23v-416
c0 -30.667 -4.33301 -55.667 -13 -75s-19.667 -34.333 -33 -45s-28.666 -18 -45.999 -22s-34.333 -6 -51 -6h-149l14 37h135z" />
    <glyph glyph-name="lamwithalefmaddaabovefinal" unicode="&#xfee0;&#xfe82;" horiz-adv-x="415" arabic-form="final" 
d="M52 585c18 12 40.0039 15.001 66.0039 9.00098c12 -3.33301 22 -4.16602 30 -2.49902s15 4.83398 21 9.50098s11 10.667 15 18l12 23l25 -10l-12 -24.5c-4.66699 -9.66699 -11.167 -18.334 -19.5 -26.001s-18.833 -13.334 -31.5 -17.001
s-28.334 -2.83398 -47.001 2.49902c-16.667 4.66699 -31.667 3 -45 -5c-6.66699 -4 -12.334 -9.33301 -17.001 -16s-8.33398 -13.167 -11.001 -19.5s-4.66699 -11.833 -6 -16.5l-2 -7l-26 5c0 0.666992 0.666992 4 2 10s3.83301 13 7.5 21s8.66699 16.167 15 24.5
s14.166 15.5 23.499 21.5zM191.004 37.001c11.333 0 21.6641 2.00098 30.9971 6.00098c-20.667 2 -38.667 9.66699 -54 23s-28.166 28.833 -38.499 46.5s-18 36.167 -23 55.5s-7.5 36.666 -7.5 51.999v290l63 23l1 -331c0 -79.333 26.333 -127.333 79 -144
c9.33301 9.33301 16.333 20.666 21 33.999s7.33398 32 8.00098 56v393l63 23v-465c0 -17.333 6.5 -32 19.5 -44s34.167 -18 63.5 -18v-37h-72c-13.333 -0 -24.166 2.83301 -32.499 8.5s-15.5 12.834 -21.5 21.501c-14 -12 -29.833 -20 -47.5 -24s-35.167 -6 -52.5 -6h-159
l14 37h145z" />
    <glyph glyph-name="lamwithalefhamzaaboveisolatedd" unicode="&#xfedf;&#xfe84;" horiz-adv-x="382" arabic-form="isolated" 
d="M189 37c11.333 0 21.6641 2.00195 30.9971 6.00195c-20.667 2 -38.667 9.66699 -54 23s-28.166 28.833 -38.499 46.5s-18 36.167 -23 55.5s-7.5 36.666 -7.5 51.999v290l63 23l1 -331c0 -79.333 26.333 -127.333 79 -144c9.33301 9.33301 16.333 20.666 21 33.999
s7.33398 32 8.00098 56v393l63 23v-416c0 -30.667 -4.33301 -55.667 -13 -75s-19.667 -34.333 -33 -45s-28.666 -18 -45.999 -22s-34.333 -6 -51 -6h-149l14 37h135zM190.998 579.002l0.000976562 -25.001h-136v25h33c-8.66699 6 -15.667 12.833 -21 20.5s-8 17.167 -8 28.5
c0 19.333 7.16699 35.166 21.5 47.499s31.166 18.5 50.499 18.5c7.33301 0 15 -1.33301 23 -4s14.333 -6.66699 19 -12c8.66699 -8 14.667 -21.333 18 -40h-18c-2.66699 13.333 -7.5 22.833 -14.5 28.5s-16.167 8.5 -27.5 8.5c-14 -1.33301 -23.667 -6.16602 -29 -14.499
s-8 -19.166 -8 -32.499c0 -12.667 3.83301 -23.5 11.5 -32.5s17.5 -14.5 29.5 -16.5h56z" />
    <glyph glyph-name="lamwithalefhamzaabovefinal" unicode="&#xfee0;&#xfe84;" horiz-adv-x="434" arabic-form="final" 
d="M211 37c11.333 0 21.6641 2.00098 30.9971 6.00098c-20.667 2 -38.667 9.66699 -54 23s-28.166 28.833 -38.499 46.5s-18 36.167 -23 55.5s-7.5 36.666 -7.5 51.999v290l63 23l1 -331c0 -79.333 26.333 -127.333 79 -144c9.33301 9.33301 16.333 20.666 21 33.999
s7.33398 32 8.00098 56v393l63 23v-465c0 -17.333 6.5 -32 19.5 -44s34.167 -18 63.5 -18v-37h-72c-13.333 0 -24.166 2.83301 -32.499 8.5s-15.5 12.834 -21.5 21.501c-14 -12 -29.833 -20 -47.5 -24s-35.167 -6 -52.5 -6h-159l14 37h145zM190.998 579.001
l0.000976562 -25.001h-136v25h33c-8.66699 6 -15.667 12.833 -21 20.5s-8 17.167 -8 28.5c0 19.333 7.16699 35.166 21.5 47.499s31.166 18.5 50.499 18.5c7.33301 0 15 -1.33301 23 -4s14.333 -6.66699 19 -12c8.66699 -8 14.667 -21.333 18 -40h-18
c-2.66699 13.333 -7.5 22.833 -14.5 28.5s-16.167 8.5 -27.5 8.5c-14 -1.33301 -23.667 -6.16602 -29 -14.499s-8 -19.166 -8 -32.499c0 -12.667 3.83301 -23.5 11.5 -32.5s17.5 -14.5 29.5 -16.5h56z" />
    <glyph glyph-name="lamwithalefhamzabelowisolated" unicode="&#xfedf;&#xfe88;" horiz-adv-x="382" arabic-form="isolated" 
d="M189 37c11.333 0 21.6641 2.00195 30.9971 6.00195c-20.667 2 -38.667 9.66699 -54 23s-28.166 28.833 -38.499 46.5s-18 36.167 -23 55.5s-7.5 36.666 -7.5 51.999v290l63 23l1 -331c0 -79.333 26.333 -127.333 79 -144c9.33301 9.33301 16.333 20.666 21 33.999
s7.33398 32 8.00098 56v393l63 23v-416c0 -30.667 -4.33301 -55.667 -13 -75s-19.667 -34.333 -33 -45s-28.666 -18 -45.999 -22s-34.333 -6 -51 -6h-149l14 37h135zM213.998 -156.998l0.000976562 -25.001h-136v25h33c-8.66699 6 -15.667 12.833 -21 20.5
s-8 17.167 -8 28.5c0 19.333 7.16699 35.166 21.5 47.499s31.166 18.5 50.499 18.5c7.33301 0 15 -1.33301 23 -4s14.333 -6.66699 19 -12c8.66699 -8 14.667 -21.333 18 -40h-18c-2.66699 13.333 -7.5 22.833 -14.5 28.5s-16.167 8.5 -27.5 8.5
c-14 -1.33301 -23.667 -6.16602 -29 -14.499s-8 -19.166 -8 -32.499c0 -12.667 3.83301 -23.5 11.5 -32.5s17.5 -14.5 29.5 -16.5h56z" />
    <glyph glyph-name="lamwithalefhamzabelowfinal" unicode="&#xfee0;&#xfe88;" horiz-adv-x="434" arabic-form="final" 
d="M300 -157l0.000976562 -25.001h-136v25h33c-8.66699 6 -15.667 12.833 -21 20.5s-8 17.167 -8 28.5c0 19.333 7.16699 35.166 21.5 47.499s31.166 18.5 50.499 18.5c7.33301 0 15 -1.33301 23 -4s14.333 -6.66699 19 -12c8.66699 -8 14.667 -21.333 18 -40h-18
c-2.66699 13.333 -7.5 22.833 -14.5 28.5s-16.167 8.5 -27.5 8.5c-14 -1.33301 -23.667 -6.16602 -29 -14.499s-8 -19.166 -8 -32.499c0 -12.667 3.83301 -23.5 11.5 -32.5s17.5 -14.5 29.5 -16.5h56zM211.001 36.999c11.333 0 21.6641 2.00098 30.9971 6.00098
c-20.667 2 -38.667 9.66699 -54 23s-28.166 28.833 -38.499 46.5s-18 36.167 -23 55.5s-7.5 36.666 -7.5 51.999v290l63 23l1 -331c0 -79.333 26.333 -127.333 79 -144c9.33301 9.33301 16.333 20.666 21 33.999s7.33398 32 8.00098 56v393l63 23v-465
c0 -17.333 6.5 -32 19.5 -44s34.167 -18 63.5 -18v-37h-72c-13.333 0 -24.166 2.83301 -32.499 8.5s-15.5 12.834 -21.5 21.501c-14 -12 -29.833 -20 -47.5 -24s-35.167 -6 -52.5 -6h-159l14 37h145z" />
    <glyph glyph-name="lamwithalefisolated" unicode="&#xfedf;&#xfe8e;" horiz-adv-x="382" arabic-form="isolated" 
d="M189 37c11.333 0 21.6641 2.00195 30.9971 6.00195c-20.667 2 -38.667 9.66699 -54 23s-28.166 28.833 -38.499 46.5s-18 36.167 -23 55.5s-7.5 36.666 -7.5 51.999v290l63 23l1 -331c0 -79.333 26.333 -127.333 79 -144c9.33301 9.33301 16.333 20.666 21 33.999
s7.33398 32 8.00098 56v393l63 23v-416c0 -30.667 -4.33301 -55.667 -13 -75s-19.667 -34.333 -33 -45s-28.666 -18 -45.999 -22s-34.333 -6 -51 -6h-149l14 37h135z" />
    <glyph glyph-name="lamwithaleffinal" unicode="&#xfee0;&#xfe8e;" horiz-adv-x="426" arabic-form="final" 
d="M211 37c11.333 0 21.6641 2.00098 30.9971 6.00098c-20.667 2 -38.667 9.66699 -54 23s-28.166 28.833 -38.499 46.5s-18 36.167 -23 55.5s-7.5 36.666 -7.5 51.999v290l63 23l1 -331c0 -79.333 26.333 -127.333 79 -144c9.33301 9.33301 16.333 20.666 21 33.999
s7.33398 32 8.00098 56v393l63 23v-465c0 -17.333 6.5 -32 19.5 -44s34.167 -18 63.5 -18v-37h-72c-13.333 0 -24.166 2.83301 -32.499 8.5s-15.5 12.834 -21.5 21.501c-14 -12 -29.833 -20 -47.5 -24s-35.167 -6 -52.5 -6h-159l14 37h145z" />
    <glyph glyph-name="uniFB50" unicode="&#x671;" horiz-adv-x="227" arabic-form="isolated" 
d="M179 95c0 -26.667 -11.3311 -67.668 -33.998 -123.001c-3.33301 20 -6.33301 42.833 -9 68.5s-5.33398 54.5 -8.00098 86.5l-8 106.5c-2 25.667 -3.33301 41.834 -4 48.501c-0.666992 3.33301 -1.83398 11.5 -3.50098 24.5s-4.16699 30.167 -7.5 51.5
c-2.66699 16 -4.5 30.333 -5.5 43s-1.5 23.667 -1.5 33c0 29.333 18.667 71.333 56 126c4.66699 -14 10 -88 16 -222c6 -122 9 -203 9 -243z" />
    <glyph glyph-name="uniFB51" unicode="&#x671;" horiz-adv-x="240" arabic-form="final" 
d="M241 0l-121.999 0.000976562c-4.66699 80 -10.167 161 -16.5 243s-13.5 166 -21.5 252l49 65l10 -127l10 -126c13.333 -142.667 23.666 -217.334 30.999 -224.001c9.33301 -7.33301 21.666 -11.333 36.999 -12c-5.33301 0.666992 -6.16602 1 -2.49902 1h25.5v-72z" />
    <glyph glyph-name="pehisolated" unicode="&#x67e;" horiz-adv-x="563" arabic-form="isolated" 
d="M175 -1h-58.9932c-14.667 0 -26.834 3.83301 -36.501 11.5s-17.334 16.667 -23.001 27s-9.66699 21.166 -12 32.499s-3.5 20.666 -3.5 27.999v277l116 -23v-18h-26c-6.66699 0 -11.834 -1 -15.501 -3s-6.33398 -5.5 -8.00098 -10.5s-2.83398 -12.5 -3.50098 -22.5v-201
c0 -8.66699 1 -16.667 3 -24s5.66699 -13.833 11 -19.5s12.5 -10 21.5 -13s20.833 -4.5 35.5 -4.5h204c28.667 0 47.667 5.83301 57 17.5s14 26.167 14 43.5v201c-0.666992 10 -1.83398 17.5 -3.50098 22.5s-4.33398 8.5 -8.00098 10.5s-8.83398 3 -15.501 3h-26v18l116 23
v-277c0 -7.33301 -1.16699 -16.666 -3.5 -27.999s-6.16602 -22.166 -11.499 -32.499s-13 -19.333 -23 -27s-22.333 -11.5 -37 -11.5h-59h-204zM222.007 -134c-10 0 -18.333 3.5 -25 10.5s-10 15.167 -10 24.5c0 10 3.33301 18.333 10 25s15 10 25 10s18.333 -3.33301 25 -10
s10 -15 10 -25c0 -9.33301 -3.33301 -17.5 -10 -24.5s-15 -10.5 -25 -10.5zM330.007 -134c-9.33301 0 -17.5 3.5 -24.5 10.5s-10.5 15.167 -10.5 24.5c0 10 3.5 18.333 10.5 25s15.167 10 24.5 10c10 0 18.5 -3.33301 25.5 -10s10.5 -15 10.5 -25
c0 -9.33301 -3.5 -17.5 -10.5 -24.5s-15.5 -10.5 -25.5 -10.5zM312.007 -194c0 -10 -3.5 -18.5 -10.5 -25.5s-15.5 -10.5 -25.5 -10.5c-9.33301 0 -17.5 3.5 -24.5 10.5s-10.5 15.5 -10.5 25.5c0 9.33301 3.5 17.5 10.5 24.5s15.167 10.5 24.5 10.5
c10 0 18.5 -3.5 25.5 -10.5s10.5 -15.167 10.5 -24.5z" />
    <glyph glyph-name="pehfinal" unicode="&#x67e;" horiz-adv-x="585" arabic-form="final" 
d="M114 0c-15.333 0 -27.8281 3.83203 -37.4951 11.499s-17.167 16.667 -22.5 27s-9.16602 21 -11.499 32s-3.5 20.167 -3.5 27.5v277l116 -23v-18h-26c-6.66699 0 -11.834 -1 -15.501 -3s-6.33398 -5.5 -8.00098 -10.5s-2.83398 -12.5 -3.50098 -22.5v-201
c0 -8.66699 1 -16.667 3 -24s5.66699 -13.666 11 -18.999s12.5 -9.5 21.5 -12.5s20.833 -4.5 35.5 -4.5h202c28.667 0 47.5 5.66699 56.5 17s13.5 25.666 13.5 42.999v201c-0.666992 10 -1.83398 17.5 -3.50098 22.5s-4.33398 8.5 -8.00098 10.5s-8.83398 3 -15.501 3h-26
v18l116 23l1 -278c0 -8.66699 1 -16.667 3 -24s5.5 -13.666 10.5 -18.999s12 -9.5 21 -12.5s20.833 -4.5 35.5 -4.5h9v-37h-68c-9.33301 0 -17.5 1.5 -24.5 4.5s-13.167 7.16699 -18.5 12.5c-5.33301 -5.33301 -11.5 -9.5 -18.5 -12.5s-15.167 -4.5 -24.5 -4.5h-320z
M222.005 -134.001c-10 0 -18.333 3.5 -25 10.5s-10 15.167 -10 24.5c0 10 3.33301 18.333 10 25s15 10 25 10s18.333 -3.33301 25 -10s10 -15 10 -25c0 -9.33301 -3.33301 -17.5 -10 -24.5s-15 -10.5 -25 -10.5zM330.005 -134.001c-9.33301 0 -17.5 3.5 -24.5 10.5
s-10.5 15.167 -10.5 24.5c0 10 3.5 18.333 10.5 25s15.167 10 24.5 10c10 0 18.5 -3.33301 25.5 -10s10.5 -15 10.5 -25c0 -9.33301 -3.5 -17.5 -10.5 -24.5s-15.5 -10.5 -25.5 -10.5zM312.005 -194.001c0 -10 -3.5 -18.5 -10.5 -25.5s-15.5 -10.5 -25.5 -10.5
c-9.33301 0 -17.5 3.5 -24.5 10.5s-10.5 15.5 -10.5 25.5c0 9.33301 3.5 17.5 10.5 24.5s15.167 10.5 24.5 10.5c10 0 18.5 -3.5 25.5 -10.5s10.5 -15.167 10.5 -24.5z" />
    <glyph glyph-name="pehinitial" unicode="&#x67e;" horiz-adv-x="259" arabic-form="initial" 
d="M-17 36l72.999 -0.00195312c29.333 0 48.5 5.83301 57.5 17.5s13.5 26.167 13.5 43.5v201c0 10 -0.833008 17.5 -2.5 22.5s-4.5 8.5 -8.5 10.5s-9.33301 3 -16 3h-26v18l116 23v-277c0 -7.33301 -1.16699 -16.666 -3.5 -27.999s-6.16602 -22.166 -11.499 -32.499
s-13 -19.333 -23 -27s-22.333 -11.5 -37 -11.5h-59h-73v37zM71.999 -134.002c-10 0 -18.333 3.5 -25 10.5s-10 15.167 -10 24.5c0 10 3.33301 18.333 10 25s15 10 25 10s18.333 -3.33301 25 -10s10 -15 10 -25c0 -9.33301 -3.33301 -17.5 -10 -24.5s-15 -10.5 -25 -10.5z
M179.999 -134.002c-9.33301 0 -17.5 3.5 -24.5 10.5s-10.5 15.167 -10.5 24.5c0 10 3.5 18.333 10.5 25s15.167 10 24.5 10c10 0 18.5 -3.33301 25.5 -10s10.5 -15 10.5 -25c0 -9.33301 -3.5 -17.5 -10.5 -24.5s-15.5 -10.5 -25.5 -10.5zM161.999 -194.002
c0 -10 -3.5 -18.5 -10.5 -25.5s-15.5 -10.5 -25.5 -10.5c-9.33301 0 -17.5 3.5 -24.5 10.5s-10.5 15.5 -10.5 25.5c0 9.33301 3.5 17.5 10.5 24.5s15.167 10.5 24.5 10.5c10 0 18.5 -3.5 25.5 -10.5s10.5 -15.167 10.5 -24.5z" />
    <glyph glyph-name="pehmedial" unicode="&#x67e;" horiz-adv-x="255" arabic-form="medial" 
d="M165 96c0 -8.66699 1 -16.667 3 -24s5.66699 -13.666 11 -18.999s12.5 -9.5 21.5 -12.5s20.833 -4.5 35.5 -4.5h23v-37h-82c-17.333 0 -31.666 5.66699 -42.999 17c-5.33301 -5.33301 -11.666 -9.5 -18.999 -12.5s-15.666 -4.5 -24.999 -4.5h-98v37h40
c28.667 0 47.5 5.66699 56.5 17s13.5 25.666 13.5 42.999v202c-0.666992 10 -1.83398 17.5 -3.50098 22.5s-4.33398 8.5 -8.00098 10.5s-8.83398 3 -15.501 3h-26v18l116 23v-279zM72 -134c-10 0 -18.333 3.5 -25 10.5s-10 15.167 -10 24.5c0 10 3.33301 18.333 10 25
s15 10 25 10s18.333 -3.33301 25 -10s10 -15 10 -25c0 -9.33301 -3.33301 -17.5 -10 -24.5s-15 -10.5 -25 -10.5zM180 -134c-9.33301 0 -17.5 3.5 -24.5 10.5s-10.5 15.167 -10.5 24.5c0 10 3.5 18.333 10.5 25s15.167 10 24.5 10c10 0 18.5 -3.33301 25.5 -10
s10.5 -15 10.5 -25c0 -9.33301 -3.5 -17.5 -10.5 -24.5s-15.5 -10.5 -25.5 -10.5zM162 -194c0 -10 -3.5 -18.5 -10.5 -25.5s-15.5 -10.5 -25.5 -10.5c-9.33301 0 -17.5 3.5 -24.5 10.5s-10.5 15.5 -10.5 25.5c0 9.33301 3.5 17.5 10.5 24.5s15.167 10.5 24.5 10.5
c10 0 18.5 -3.5 25.5 -10.5s10.5 -15.167 10.5 -24.5z" />
    <glyph glyph-name="vehisolated" unicode="&#x6a4;" horiz-adv-x="866" arabic-form="isolated" 
d="M654 372c22.667 0 44.335 -4.83496 65.002 -14.502s38.5 -23 53.5 -40s27 -36.833 36 -59.5s13.5 -46.667 13.5 -72s-4.5 -49.333 -13.5 -72s-21 -42.5 -36 -59.5s-32.833 -30.333 -53.5 -40s-42.334 -14.5 -65.001 -14.5h-206h-359c-11.333 0 -20.333 2.33301 -27 7
s-11.667 10 -15 16s-5.5 12.167 -6.5 18.5s-1.5 11.5 -1.5 15.5v152c0 22 4.5 42.833 13.5 62.5s21.333 36.834 37 51.501s33.667 26.334 54 35.001s41.5 13 63.5 13c10 0 20.667 -1.33301 32 -4s22.5 -6.5 33.5 -11.5s21.333 -10.667 31 -17s17.5 -13.5 23.5 -21.5
c3.33301 3.33301 5 9.16602 5 17.499s1 15.833 3 22.5h28v-135h-29c-8 38 -23.333 65.833 -46 83.5s-50 26.5 -82 26.5c-30.667 -0.666992 -55.667 -11.667 -75 -33s-29 -51.333 -29 -90v-141c0 -8 2.66699 -15.167 8 -21.5s11.666 -9.5 18.999 -9.5h319h106
c-20 17.333 -36.167 38.833 -48.5 64.5s-18.5 53.834 -18.5 84.501c0 25.333 4.33301 49.333 13 72s20.667 42.5 36 59.5s33 30.333 53 40s41.667 14.5 65 14.5zM654.001 36.998c18.667 0 34.667 4.66699 48 14s24.166 21.166 32.499 35.499s14.333 30.333 18 48
s5.5 34.834 5.5 51.501s-1.83301 33.667 -5.5 51s-9.66699 33.333 -18 48s-19.166 26.667 -32.499 36s-29.333 14 -48 14c-19.333 0 -35.5 -4.66699 -48.5 -14s-23.667 -21.333 -32 -36s-14.333 -30.667 -18 -48s-5.5 -34.333 -5.5 -51s1.83301 -33.834 5.5 -51.501
s9.66699 -33.667 18 -48s19 -26.166 32 -35.499s29.167 -14 48.5 -14zM602.001 489.998c10 0 18.333 -3.5 25 -10.5s10 -15.167 10 -24.5c0 -10 -3.33301 -18.333 -10 -25s-15 -10 -25 -10s-18.333 3.33301 -25 10s-10 15 -10 25c0 9.33301 3.33301 17.5 10 24.5
s15 10.5 25 10.5zM710.001 489.998c10 0 18.5 -3.5 25.5 -10.5s10.5 -15.167 10.5 -24.5c0 -10 -3.5 -18.333 -10.5 -25s-15.5 -10 -25.5 -10c-9.33301 0 -17.5 3.33301 -24.5 10s-10.5 15 -10.5 25c0 9.33301 3.5 17.5 10.5 24.5s15.167 10.5 24.5 10.5zM692.001 549.998
c0 -9.33301 -3.5 -17.5 -10.5 -24.5s-15.5 -10.5 -25.5 -10.5c-9.33301 0 -17.5 3.5 -24.5 10.5s-10.5 15.167 -10.5 24.5c0 10 3.5 18.5 10.5 25.5s15.167 10.5 24.5 10.5c10 0 18.5 -3.5 25.5 -10.5s10.5 -15.5 10.5 -25.5z" />
    <glyph glyph-name="vehfinal" unicode="&#x6a4;" horiz-adv-x="866" arabic-form="final" 
d="M565 37c-22.667 15.333 -41.6641 36.3301 -56.9971 62.9971s-23 55.334 -23 86.001c0 25.333 4.5 49.333 13.5 72s21 42.5 36 59.5s32.667 30.333 53 40s42.166 14.5 65.499 14.5c22.667 0 44.167 -4.83301 64.5 -14.5s38.166 -23 53.499 -40s27.333 -36.833 36 -59.5
s13 -46.667 13 -72c0 -30.667 -7.5 -59.5 -22.5 -86.5s-33.833 -47.833 -56.5 -62.5h129v-37h-153c-4 0 -8.5 0.333008 -13.5 1s-10.167 1.66699 -15.5 3s-11 3.5 -17 6.5s-12 5.16699 -18 6.5c-6 -1.33301 -12 -3.5 -18 -6.5s-11.667 -5.16699 -17 -6.5
c-4 -1.33301 -8 -2.16602 -12 -2.49902s-7.66699 -0.833008 -11 -1.5h1h-7h-163h-336c-11.333 0 -20.333 2.33301 -27 7s-11.667 10 -15 16s-5.5 12.333 -6.5 19s-1.5 12 -1.5 16v151c0 22 4.5 42.833 13.5 62.5s21.333 36.834 37 51.501s33.667 26.334 54 35.001
s41.5 13 63.5 13c10 0 20.667 -1.33301 32 -4s22.5 -6.5 33.5 -11.5s21.333 -10.667 31 -17s17.5 -13.5 23.5 -21.5c3.33301 3.33301 5 9.16602 5 17.499s0.666992 15.833 2 22.5h29v-135h-29c-8 38 -23.333 65.833 -46 83.5s-50 26.5 -82 26.5
c-30.667 -0.666992 -55.667 -11.667 -75 -33s-29 -51.333 -29 -90v-141c0 -8 2.66699 -15.167 8 -21.5s11.666 -9.5 18.999 -9.5h435zM653.003 53.9971c18.667 0 34.667 4.16699 48 12.5s24.166 19 32.499 32s14.333 27.5 18 43.5s5.5 32 5.5 48s-1.83301 32.5 -5.5 49.5
s-9.66699 32.5 -18 46.5s-19.166 25.5 -32.499 34.5s-29.333 13.5 -48 13.5c-19.333 0 -35.5 -4.5 -48.5 -13.5s-23.667 -20.5 -32 -34.5s-14.333 -29.5 -18 -46.5s-5.5 -33.5 -5.5 -49.5s1.83301 -32 5.5 -48s9.66699 -30.5 18 -43.5s19 -23.667 32 -32
s29.167 -12.5 48.5 -12.5zM602.003 489.997c10 0 18.333 -3.5 25 -10.5s10 -15.167 10 -24.5c0 -10 -3.33301 -18.333 -10 -25s-15 -10 -25 -10s-18.333 3.33301 -25 10s-10 15 -10 25c0 9.33301 3.33301 17.5 10 24.5s15 10.5 25 10.5zM710.003 489.997
c10 0 18.5 -3.5 25.5 -10.5s10.5 -15.167 10.5 -24.5c0 -10 -3.5 -18.333 -10.5 -25s-15.5 -10 -25.5 -10c-9.33301 0 -17.5 3.33301 -24.5 10s-10.5 15 -10.5 25c0 9.33301 3.5 17.5 10.5 24.5s15.167 10.5 24.5 10.5zM692.003 549.997c0 -9.33301 -3.5 -17.5 -10.5 -24.5
s-15.5 -10.5 -25.5 -10.5c-9.33301 0 -17.5 3.5 -24.5 10.5s-10.5 15.167 -10.5 24.5c0 10 3.5 18.5 10.5 25.5s15.167 10.5 24.5 10.5c10 0 18.5 -3.5 25.5 -10.5s10.5 -15.5 10.5 -25.5z" />
    <glyph glyph-name="vehinitial" unicode="&#x6a4;" horiz-adv-x="417" arabic-form="initial" 
d="M376 186c0 -25.333 -4.33301 -49.334 -13 -72.001s-20.667 -42.5 -36 -59.5s-33.166 -30.333 -53.499 -40s-41.833 -14.5 -64.5 -14.5h-211v37h111c-20.667 17.333 -37 38.833 -49 64.5s-18 53.834 -18 84.501c0 25.333 4.33301 49.333 13 72s20.667 42.5 36 59.5
s33 30.333 53 40s41.667 14.5 65 14.5c22.667 0 44.167 -4.83301 64.5 -14.5s38.166 -23 53.499 -40s27.333 -36.833 36 -59.5s13 -46.667 13 -72zM209 37.999c18.667 0 34.667 4.66699 48 14s24.166 21.166 32.499 35.499s14.333 30.166 18 47.499s5.5 34.333 5.5 51
s-1.83301 33.667 -5.5 51s-9.66699 33.333 -18 48s-19.166 26.667 -32.499 36s-29.333 14 -48 14c-19.333 0 -35.5 -4.66699 -48.5 -14s-23.667 -21.333 -32 -36s-14.333 -30.667 -18 -48s-5.5 -34.333 -5.5 -51s1.83301 -33.667 5.5 -51s9.66699 -33.166 18 -47.499
s19 -26.166 32 -35.499s29.167 -14 48.5 -14zM142 509.999c10 0 18.333 -3.5 25 -10.5s10 -15.167 10 -24.5c0 -10 -3.33301 -18.333 -10 -25s-15 -10 -25 -10s-18.333 3.33301 -25 10s-10 15 -10 25c0 9.33301 3.33301 17.5 10 24.5s15 10.5 25 10.5zM250 509.999
c10 0 18.5 -3.5 25.5 -10.5s10.5 -15.167 10.5 -24.5c0 -10 -3.5 -18.333 -10.5 -25s-15.5 -10 -25.5 -10c-9.33301 0 -17.5 3.33301 -24.5 10s-10.5 15 -10.5 25c0 9.33301 3.5 17.5 10.5 24.5s15.167 10.5 24.5 10.5zM232 569.999c0 -9.33301 -3.5 -17.5 -10.5 -24.5
s-15.5 -10.5 -25.5 -10.5c-9.33301 0 -17.5 3.5 -24.5 10.5s-10.5 15.167 -10.5 24.5c0 10 3.5 18.5 10.5 25.5s15.167 10.5 24.5 10.5c10 0 18.5 -3.5 25.5 -10.5s10.5 -15.5 10.5 -25.5z" />
    <glyph glyph-name="vehmedial" unicode="&#x6a4;" horiz-adv-x="414" arabic-form="medial" 
d="M416 37l-0.00292969 -37.001h-146c-3.33301 0 -7.66602 0.333008 -12.999 1s-10.666 1.66699 -15.999 3s-11 3.5 -17 6.5s-12 5.5 -18 7.5c-6 -2 -12 -4.5 -18 -7.5s-11.667 -5.16699 -17 -6.5s-10.666 -2.33301 -15.999 -3s-9.66602 -1 -12.999 -1h-145v37h121
c-22 15.333 -40.667 36.333 -56 63s-23 55.334 -23 86.001c0 25.333 4.33301 49.333 13 72s20.667 42.5 36 59.5s33 30.333 53 40s41.667 14.5 65 14.5c22.667 0 44.167 -4.83301 64.5 -14.5s38.166 -23 53.499 -40s27.333 -36.833 36 -59.5s13 -46.667 13 -72
c0 -30.667 -7.5 -59.5 -22.5 -86.5s-33.5 -47.833 -55.5 -62.5h121zM205.997 53.999c18.667 0 34.667 4.16699 48 12.5s24.166 19 32.499 32s14.333 27.667 18 44s5.5 32.5 5.5 48.5s-1.83301 32.333 -5.5 49s-9.66699 32 -18 46s-19.166 25.5 -32.499 34.5
s-29.333 13.5 -48 13.5c-19.333 0 -35.5 -4.5 -48.5 -13.5s-23.667 -20.5 -32 -34.5s-14.333 -29.333 -18 -46s-5.5 -33 -5.5 -49s1.83301 -32.167 5.5 -48.5s9.66699 -31 18 -44s19 -23.667 32 -32s29.167 -12.5 48.5 -12.5zM151.997 489.999c10 0 18.333 -3.5 25 -10.5
s10 -15.167 10 -24.5c0 -10 -3.33301 -18.333 -10 -25s-15 -10 -25 -10s-18.333 3.33301 -25 10s-10 15 -10 25c0 9.33301 3.33301 17.5 10 24.5s15 10.5 25 10.5zM259.997 489.999c10 0 18.5 -3.5 25.5 -10.5s10.5 -15.167 10.5 -24.5c0 -10 -3.5 -18.333 -10.5 -25
s-15.5 -10 -25.5 -10c-9.33301 0 -17.5 3.33301 -24.5 10s-10.5 15 -10.5 25c0 9.33301 3.5 17.5 10.5 24.5s15.167 10.5 24.5 10.5zM241.997 549.999c0 -9.33301 -3.5 -17.5 -10.5 -24.5s-15.5 -10.5 -25.5 -10.5c-9.33301 0 -17.5 3.5 -24.5 10.5s-10.5 15.167 -10.5 24.5
c0 10 3.5 18.5 10.5 25.5s15.167 10.5 24.5 10.5c10 0 18.5 -3.5 25.5 -10.5s10.5 -15.5 10.5 -25.5z" />
    <glyph glyph-name="tchehisolated" unicode="&#x686;" horiz-adv-x="444" arabic-form="isolated" 
d="M255 -112c-9.33301 5.33301 -15.333 12.501 -18 21.501s-1.66699 17.833 3 26.5c5.33301 8.66699 12.333 14.5 21 17.5s17.334 1.83301 26.001 -3.5c9.33301 -4.66699 15.5 -11.334 18.5 -20.001s1.83301 -17.667 -3.5 -27
c-4.66699 -8.66699 -11.334 -14.5 -20.001 -17.5s-17.667 -2.16699 -27 2.5zM351 -112.999c-8.66699 4.66699 -14.5 11.666 -17.5 20.999s-2.16699 18.333 2.5 27s11.5 14.334 20.5 17.001s17.833 1.66699 26.5 -3c9.33301 -4.66699 15.5 -11.5 18.5 -20.5
s2.16699 -17.833 -2.5 -26.5s-11.667 -14.5 -21 -17.5s-18.333 -2.16699 -27 2.5zM355 -181c-4.66699 -8.66699 -11.668 -14.5 -21.001 -17.5s-18.666 -2.16699 -27.999 2.5c-8 4.66699 -13.5 11.667 -16.5 21s-2.16699 18.333 2.5 27s11.5 14.5 20.5 17.5
s17.833 2.16699 26.5 -2.5c9.33301 -4.66699 15.5 -11.667 18.5 -21s2.16699 -18.333 -2.5 -27zM222.999 -119l5.99902 -29.0039h-28c-22 0.666992 -43 5 -63 13s-37.5 18.667 -52.5 32s-27 29.333 -36 48s-13.5 39.334 -13.5 62.001v2c0 8 2.83301 14.667 8.5 20
s12.5 8 20.5 8h267v49c0 28 -2.66699 56.833 -8 86.5s-14.166 56.5 -26.499 80.5s-28.333 43.833 -48 59.5s-43.5 23.5 -71.5 23.5h-14c-26 0 -49.333 -7.16699 -70 -21.5s-38 -35.166 -52 -62.499c-2 10.667 -3.66699 19 -5 25s-2.33301 10.333 -3 13s-1 4.16699 -1 4.5
v0.5c19.333 24 40 42.667 62 56s45.667 20 71 20h14c30 0 58.333 -7.5 85 -22.5s49.834 -35.333 69.501 -61s35.167 -55.834 46.5 -90.501s17 -71.667 17 -111v-86h-271c-8 0 -14.667 -3.16699 -20 -9.5s-8 -13.166 -8 -20.499c0 -10.667 2.16699 -21.167 6.5 -31.5
s10.666 -19.666 18.999 -27.999s18.333 -15.166 30 -20.499s25.167 -8.33301 40.5 -9h28z" />
    <glyph glyph-name="tchehfinal" unicode="&#x686;" horiz-adv-x="475" arabic-form="final" 
d="M214 -119c8.66699 1.33301 14.667 0.330078 18 -3.00293s5 -7 5 -11s-1.66699 -7.66699 -5 -11s-7.66602 -4.66602 -12.999 -3.99902c-22 0.666992 -43 4.83398 -63 12.501s-37.5 18.334 -52.5 32.001s-26.833 30 -35.5 49s-13 39.5 -13 61.5v2
c0 8 2.83301 14.667 8.5 20s12.167 8 19.5 8h199c28.667 0 47.667 5.66699 57 17s14 26 14 44v111c0 19.333 -3.16699 37 -9.5 53s-14.5 29.833 -24.5 41.5s-21.167 20.667 -33.5 27s-24.5 9.5 -36.5 9.5h-45c-16 0 -31.833 -1.83301 -47.5 -5.5
s-29.5 -9.33398 -41.5 -17.001s-21.833 -17 -29.5 -28s-11.5 -23.833 -11.5 -38.5h-18v119h19c0.666992 -2 1.66699 -4.33301 3 -7c2 -4 5 -8 9 -12c3.33301 -4 6.66602 -6.5 9.99902 -7.5s9 0.166992 17 3.5c13.333 7.33301 28.333 13 45 17s33 6.33301 49 7h41
c22 0 43 -4.33301 63 -13s37.833 -20.334 53.5 -35.001s28 -31.834 37 -51.501s13.5 -40.5 13.5 -62.5v-121c0.666992 -7.33301 1.33398 -14.166 2.00098 -20.499s2.83398 -11.833 6.50098 -16.5s9.66699 -8.16699 18 -10.5s20.166 -3.5 35.499 -3.5v-37h-51
c-16.667 0 -31 5.33301 -43 16c-12 -10.667 -26.333 -16 -43 -16h-196c-8 0 -14.5 -3.16699 -19.5 -9.5s-7.5 -13.166 -7.5 -20.499v-3c0 -10 2.16699 -19.833 6.5 -29.5s10.666 -18.667 18.999 -27s18.333 -15.166 30 -20.499s25.167 -8.33301 40.5 -9zM255 -112.003
c-9.33301 5.33301 -15.333 12.501 -18 21.501s-1.66699 17.833 3 26.5c5.33301 8.66699 12.333 14.5 21 17.5s17.334 1.83301 26.001 -3.5c9.33301 -4.66699 15.5 -11.334 18.5 -20.001s1.83301 -17.667 -3.5 -27c-4.66699 -8.66699 -11.334 -14.5 -20.001 -17.5
s-17.667 -2.16699 -27 2.5zM351 -162.002c-8.66699 4.66699 -14.5 11.666 -17.5 20.999s-2.16699 18.333 2.5 27s11.5 14.334 20.5 17.001s17.833 1.66699 26.5 -3c9.33301 -4.66699 15.5 -11.5 18.5 -20.5s2.16699 -17.833 -2.5 -26.5s-11.667 -14.5 -21 -17.5
s-18.333 -2.16699 -27 2.5zM307 -207.003c-4.66699 -8.66699 -11.668 -14.5 -21.001 -17.5s-18.666 -2.16699 -27.999 2.5c-8 4.66699 -13.5 11.667 -16.5 21s-2.16699 18.333 2.5 27s11.5 14.5 20.5 17.5s17.833 2.16699 26.5 -2.5c9.33301 -4.66699 15.5 -11.667 18.5 -21
s2.16699 -18.333 -2.5 -27z" />
    <glyph glyph-name="tchehinitial" unicode="&#x686;" horiz-adv-x="464" arabic-form="initial" 
d="M410 97c0 -6.66699 -1.16406 -15.4971 -3.49707 -26.4971s-6.33301 -21.667 -12 -32s-13.334 -19.333 -23.001 -27s-21.834 -11.5 -36.501 -11.5h-59h-278v37h278c28.667 0 47.5 5.66699 56.5 17s13.5 26 13.5 44v111c0 19.333 -3.16699 37 -9.5 53
s-14.5 29.833 -24.5 41.5s-21.167 20.667 -33.5 27s-24.5 9.5 -36.5 9.5h-18c-16 0 -31.833 -1.83301 -47.5 -5.5s-29.5 -9.33398 -41.5 -17.001s-21.833 -17 -29.5 -28s-11.5 -23.833 -11.5 -38.5h-18v119h19c0.666992 -2 1.66699 -4.33301 3 -7c2 -4 5 -8 9 -12
c3.33301 -4 6.66602 -6.5 9.99902 -7.5s9 0.166992 17 3.5c13.333 7.33301 28.333 13 45 17s33 6.33301 49 7h14c22 0 43.167 -4.33301 63.5 -13s38.333 -20.334 54 -35.001s28 -31.834 37 -51.501s13.5 -40.5 13.5 -62.5v-112zM122.003 -133.997
c-10 0 -18.333 3.5 -25 10.5s-10 15.167 -10 24.5c0 10 3.33301 18.333 10 25s15 10 25 10s18.333 -3.33301 25 -10s10 -15 10 -25c0 -9.33301 -3.33301 -17.5 -10 -24.5s-15 -10.5 -25 -10.5zM230.003 -133.997c-9.33301 0 -17.5 3.5 -24.5 10.5s-10.5 15.167 -10.5 24.5
c0 10 3.5 18.333 10.5 25s15.167 10 24.5 10c10 0 18.5 -3.33301 25.5 -10s10.5 -15 10.5 -25c0 -9.33301 -3.5 -17.5 -10.5 -24.5s-15.5 -10.5 -25.5 -10.5zM212.003 -193.997c0 -10 -3.5 -18.5 -10.5 -25.5s-15.5 -10.5 -25.5 -10.5c-9.33301 0 -17.5 3.5 -24.5 10.5
s-10.5 15.5 -10.5 25.5c0 9.33301 3.5 17.5 10.5 24.5s15.167 10.5 24.5 10.5c10 0 18.5 -3.5 25.5 -10.5s10.5 -15.167 10.5 -24.5z" />
    <glyph glyph-name="tchehmedial" unicode="&#x686;" horiz-adv-x="483" arabic-form="medial" 
d="M408 98c0 -18 5.33496 -32.498 16.002 -43.498s32.667 -16.833 66 -17.5v-37h-70c-17.333 0 -31.666 5.66699 -42.999 17c-11.333 -11.333 -26 -17 -44 -17h-334v37h276c28.667 0 47.5 5.66699 56.5 17s13.5 26 13.5 44v111c0 38.667 -9.5 70.167 -28.5 94.5
s-44.167 36.5 -75.5 36.5h-22c-12 0 -25.333 -2 -40 -6s-28.334 -9.66699 -41.001 -17s-23.334 -16.5 -32.001 -27.5s-13 -23.833 -13 -38.5h-17l-1 119h19c0.666992 -2 1.66699 -4.33301 3 -7c2 -4 5 -8 9 -12c3.33301 -4 8 -7 14 -9s13 -1.33301 21 2
c12 7.33301 25.333 13.5 40 18.5s30 7.83301 46 8.5h14c22 0 43.167 -4.33301 63.5 -13s38.166 -20.334 53.499 -35.001s27.5 -31.834 36.5 -51.501s13.5 -40.5 13.5 -62.5v-111zM122.002 -133.998c-10 0 -18.333 3.5 -25 10.5s-10 15.167 -10 24.5
c0 10 3.33301 18.333 10 25s15 10 25 10s18.333 -3.33301 25 -10s10 -15 10 -25c0 -9.33301 -3.33301 -17.5 -10 -24.5s-15 -10.5 -25 -10.5zM230.002 -133.998c-9.33301 0 -17.5 3.5 -24.5 10.5s-10.5 15.167 -10.5 24.5c0 10 3.5 18.333 10.5 25s15.167 10 24.5 10
c10 0 18.5 -3.33301 25.5 -10s10.5 -15 10.5 -25c0 -9.33301 -3.5 -17.5 -10.5 -24.5s-15.5 -10.5 -25.5 -10.5zM212.002 -193.998c0 -10 -3.5 -18.5 -10.5 -25.5s-15.5 -10.5 -25.5 -10.5c-9.33301 0 -17.5 3.5 -24.5 10.5s-10.5 15.5 -10.5 25.5
c0 9.33301 3.5 17.5 10.5 24.5s15.167 10.5 24.5 10.5c10 0 18.5 -3.5 25.5 -10.5s10.5 -15.167 10.5 -24.5z" />
    <glyph glyph-name="jehisolated" unicode="&#x698;" horiz-adv-x="274" arabic-form="isolated" 
d="M217 375l0.00390625 -344.998c0 -22 -4.5 -43.667 -13.5 -65s-21 -40.166 -36 -56.499s-32.5 -29.666 -52.5 -39.999s-41 -15.833 -63 -16.5c-12 -0.666992 -22.5 0 -31.5 2s-14.5 5.66699 -16.5 11c-4 7.33301 -4.16699 13.166 -0.5 17.499s9.16699 7.83301 16.5 10.5
c6 2 11.667 1.16699 17 -2.5s12.333 -6.83398 21 -9.50098c14.667 0.666992 28 5.5 40 14.5s22.167 19.667 30.5 32s14.666 25.166 18.999 38.499s6.5 24.666 6.5 33.999v299c-0.666992 10 -1.83398 17.333 -3.50098 22s-4.33398 8 -8.00098 10s-8.83398 3 -15.501 3h-26v19
zM76.0039 516.002c10 0 18.333 -3.5 25 -10.5s10 -15.167 10 -24.5c0 -10 -3.33301 -18.333 -10 -25s-15 -10 -25 -10s-18.333 3.33301 -25 10s-10 15 -10 25c0 9.33301 3.33301 17.5 10 24.5s15 10.5 25 10.5zM184.004 516.002c10 0 18.5 -3.5 25.5 -10.5
s10.5 -15.167 10.5 -24.5c0 -10 -3.5 -18.333 -10.5 -25s-15.5 -10 -25.5 -10c-9.33301 0 -17.5 3.33301 -24.5 10s-10.5 15 -10.5 25c0 9.33301 3.5 17.5 10.5 24.5s15.167 10.5 24.5 10.5zM166.004 576.002c0 -9.33301 -3.5 -17.5 -10.5 -24.5s-15.5 -10.5 -25.5 -10.5
c-9.33301 0 -17.5 3.5 -24.5 10.5s-10.5 15.167 -10.5 24.5c0 10 3.5 18.5 10.5 25.5s15.167 10.5 24.5 10.5c10 0 18.5 -3.5 25.5 -10.5s10.5 -15.5 10.5 -25.5z" />
    <glyph glyph-name="jehfinal" unicode="&#x698;" horiz-adv-x="291" arabic-form="final" 
d="M218 93c0.666992 -8 1.83594 -15.4961 3.50293 -22.4961s5.16699 -13 10.5 -18s13.333 -8.83301 24 -11.5s25 -4 43 -4v-37h-69c-4 0 -8.66699 0.666992 -14 2c-3.33301 -19.333 -10 -38 -20 -56s-22.167 -34 -36.5 -48s-30.5 -25.167 -48.5 -33.5s-37 -12.5 -57 -12.5
c-12.667 -0.666992 -23.334 0 -32.001 2s-14.334 5.66699 -17.001 11c-4 7.33301 -4.16699 13.166 -0.5 17.499s9.16699 7.83301 16.5 10.5c6 2 11.667 1.16699 17 -2.5s12.333 -6.83398 21 -9.50098c14.667 0.666992 28 5.5 40 14.5s22.167 19.667 30.5 32
s14.666 25.166 18.999 38.499s6.5 24.666 6.5 33.999v299c0 10 -0.833008 17.333 -2.5 22s-4.5 8 -8.5 10s-9.33301 3 -16 3h-26v19l116 22v-282v0zM76.002 516.004c10 0 18.333 -3.5 25 -10.5s10 -15.167 10 -24.5c0 -10 -3.33301 -18.333 -10 -25s-15 -10 -25 -10
s-18.333 3.33301 -25 10s-10 15 -10 25c0 9.33301 3.33301 17.5 10 24.5s15 10.5 25 10.5zM184.002 516.004c10 0 18.5 -3.5 25.5 -10.5s10.5 -15.167 10.5 -24.5c0 -10 -3.5 -18.333 -10.5 -25s-15.5 -10 -25.5 -10c-9.33301 0 -17.5 3.33301 -24.5 10s-10.5 15 -10.5 25
c0 9.33301 3.5 17.5 10.5 24.5s15.167 10.5 24.5 10.5zM166.002 576.004c0 -9.33301 -3.5 -17.5 -10.5 -24.5s-15.5 -10.5 -25.5 -10.5c-9.33301 0 -17.5 3.5 -24.5 10.5s-10.5 15.167 -10.5 24.5c0 10 3.5 18.5 10.5 25.5s15.167 10.5 24.5 10.5c10 0 18.5 -3.5 25.5 -10.5
s10.5 -15.5 10.5 -25.5z" />
    <glyph glyph-name="kehehisolated" unicode="&#x6a9;" horiz-adv-x="604" arabic-form="isolated" 
d="M288 419l-56.002 -0.00292969c-12 2 -21.833 7.5 -29.5 16.5s-11.5 19.5 -11.5 31.5c0 13.333 2.83301 24.5 8.5 33.5s15.167 13.5 28.5 13.5c11.333 0 20.5 -2.66699 27.5 -8s11.833 -14.666 14.5 -27.999h16v53h-15c-0.666992 -3.33301 -0.666992 -6.16602 0 -8.49902
s0.333984 -4.16602 -0.999023 -5.49902c-4.66699 6 -11 10.333 -19 13s-15.667 4 -23 4c-19.333 0 -36.166 -6.33301 -50.499 -19s-21.5 -28.667 -21.5 -48c0 -11.333 2.83301 -20.833 8.5 -28.5s12.5 -14.167 20.5 -19.5h-33v-25h136v25zM53.998 145.997
c0 26 4.49902 50.501 13.499 73.501s21.5 43.333 37.5 61s34.833 31.5 56.5 41.5s45.5 15 71.5 15c20 0 40 -5.16699 60 -15.5s36.333 -23.166 49 -38.499c2.66699 3.33301 5.33398 9.16602 8.00098 17.499s4.66699 15.833 6 22.5h16v-142h-17
c-7.33301 38 -21.5 68.333 -42.5 91s-47.5 34 -79.5 34c-23.333 0 -42.5 -5.16699 -57.5 -15.5s-27.167 -23.333 -36.5 -39s-15.833 -32.834 -19.5 -51.501s-5.5 -36.667 -5.5 -54v-47c0 -19.333 5.66699 -34.5 17 -45.5s31.666 -16.5 60.999 -16.5h222
c28.667 0 47.5 5.83301 56.5 17.5s13.5 26.167 13.5 43.5v383c0 10 -0.833008 17.5 -2.5 22.5s-4.5 8.5 -8.5 10.5s-9.33301 3 -16 3h-26v18l116 23v-459c0 -7.33301 -1.16699 -16.666 -3.5 -27.999s-6.16602 -22.166 -11.499 -32.499s-13 -19.333 -23 -27
s-22.333 -11.5 -37 -11.5h-58h-285c-14 0 -25.833 3.83301 -35.5 11.5s-17.5 16.667 -23.5 27s-10.167 21.166 -12.5 32.499s-3.5 20.666 -3.5 27.999v47z" />
    <glyph glyph-name="kehehfinal" unicode="&#x6a9;" horiz-adv-x="625" arabic-form="final" 
d="M291 392l-135.999 0.00292969v25h33c-8 5.33301 -14.667 11.833 -20 19.5s-8 17.167 -8 28.5c0 19.333 7 35.333 21 48s30.667 19 50 19c7.33301 0 15 -1.33301 23 -4s14.667 -7 20 -13c1.33301 1.33301 1.5 3.16602 0.5 5.49902s-1.16699 5.16602 -0.5 8.49902h15v-53
h-16c-2.66699 13.333 -7.33398 22.666 -14.001 27.999s-16 8 -28 8c-13.333 0 -22.833 -4.5 -28.5 -13.5s-8.5 -20.167 -8.5 -33.5c0 -12 3.83301 -22.5 11.5 -31.5s17.5 -14.5 29.5 -16.5h56v-25zM417.001 37.0029c28.667 0 47.5 5.66699 56.5 17s13.5 25.666 13.5 42.999
v384c0 10 -0.833008 17.5 -2.5 22.5s-4.5 8.5 -8.5 10.5s-9.33301 3 -16 3h-26v18l117 23v-461c0 -8.66699 1 -16.667 3 -24s5.5 -13.666 10.5 -18.999s12 -9.5 21 -12.5s20.833 -4.5 35.5 -4.5h14v-37h-73c-16.667 0 -31 5.33301 -43 16c-12 -10.667 -26.333 -16 -43 -16
h-345c-14 0 -25.833 3.83301 -35.5 11.5s-17.5 16.667 -23.5 27s-10.167 21 -12.5 32s-3.5 20.167 -3.5 27.5v47c0 26 4.5 50.667 13.5 74s21.5 43.833 37.5 61.5s34.833 31.5 56.5 41.5s45.5 15 71.5 15c20 0 40 -5.16699 60 -15.5s36.333 -23.5 49 -39.5
c2.66699 3.33301 5.33398 9.33301 8.00098 18s4.66699 16.334 6 23.001h16v-143h-16c-8 38.667 -22.5 69.167 -43.5 91.5s-47.5 33.5 -79.5 33.5c-23.333 0 -42.5 -5.16699 -57.5 -15.5s-27.167 -23.333 -36.5 -39s-15.833 -32.834 -19.5 -51.501s-5.5 -36.667 -5.5 -54v-47
c0 -19.333 5.66699 -34.333 17 -45s31.666 -16 60.999 -16h223z" />
    <glyph glyph-name="kehehinitial" unicode="&#x6a9;" horiz-adv-x="604" arabic-form="initial" 
d="M54 146c0 26 4.49902 50.501 13.499 73.501s21.5 43.333 37.5 61s34.833 31.5 56.5 41.5s45.5 15 71.5 15c20 0 40 -5.16699 60 -15.5s36.333 -23.166 49 -38.499c2.66699 3.33301 5.33398 9.16602 8.00098 17.499s4.66699 15.833 6 22.5h16v-142h-17
c-7.33301 38 -21.5 68.333 -42.5 91s-47.5 34 -79.5 34c-23.333 0 -42.5 -5.16699 -57.5 -15.5s-27.167 -23.333 -36.5 -39s-15.833 -32.834 -19.5 -51.501s-5.5 -36.667 -5.5 -54v-47c0 -19.333 5.66699 -34.5 17 -45.5s31.666 -16.5 60.999 -16.5h222
c28.667 0 47.5 5.83301 56.5 17.5s13.5 26.167 13.5 43.5v383c0 10 -0.833008 17.5 -2.5 22.5s-4.5 8.5 -8.5 10.5s-9.33301 3 -16 3h-26v18l116 23v-459c0 -7.33301 -1.16699 -16.666 -3.5 -27.999s-6.16602 -22.166 -11.499 -32.499s-13 -19.333 -23 -27
s-22.333 -11.5 -37 -11.5h-58h-285c-14 0 -25.833 3.83301 -35.5 11.5s-17.5 16.667 -23.5 27s-10.167 21.166 -12.5 32.499s-3.5 20.666 -3.5 27.999v47z" />
    <glyph glyph-name="kehehmedial" unicode="&#x6a9;" horiz-adv-x="625" arabic-form="medial" 
d="M417 37c28.667 0 47.5 5.66699 56.5 17s13.5 25.666 13.5 42.999v384c0 10 -0.833008 17.5 -2.5 22.5s-4.5 8.5 -8.5 10.5s-9.33301 3 -16 3h-26v18l117 23v-461c0 -8.66699 1 -16.667 3 -24s5.5 -13.666 10.5 -18.999s12 -9.5 21 -12.5s20.833 -4.5 35.5 -4.5h14v-37
h-73c-16.667 -0 -31 5.33301 -43 16c-12 -10.667 -26.333 -16 -43 -16h-345c-14 -0 -25.833 3.83301 -35.5 11.5s-17.5 16.667 -23.5 27s-10.167 21 -12.5 32s-3.5 20.167 -3.5 27.5v47c0 26 4.5 50.667 13.5 74s21.5 43.833 37.5 61.5s34.833 31.5 56.5 41.5
s45.5 15 71.5 15c20 0 40 -5.16699 60 -15.5s36.333 -23.5 49 -39.5c2.66699 3.33301 5.33398 9.33301 8.00098 18s4.66699 16.334 6 23.001h16v-143h-16c-8 38.667 -22.5 69.167 -43.5 91.5s-47.5 33.5 -79.5 33.5c-23.333 0 -42.5 -5.16699 -57.5 -15.5
s-27.167 -23.333 -36.5 -39s-15.833 -32.834 -19.5 -51.501s-5.5 -36.667 -5.5 -54v-47c0 -19.333 5.66699 -34.333 17 -45s31.666 -16 60.999 -16h223z" />
    <glyph glyph-name="gafisolated" unicode="&#x6af;" horiz-adv-x="502" arabic-form="isolated" 
d="M317 37c28.667 0 47.5 5.66895 56.5 17.002s13.5 26 13.5 44v18c0 22 -1.83301 44.167 -5.5 66.5s-11.5 42.5 -23.5 60.5s-29.333 32.667 -52 44s-53 17 -91 17c-32 0 -58.5 -9.33301 -79.5 -28s-35.167 -47 -42.5 -85h-17v142h1c-1.33301 22 3.33398 44.333 14.001 67
s28 41.667 52 57c16.667 10 35.334 15.167 56.001 15.5s41.334 -0.5 62.001 -2.5s40.334 -3.5 59.001 -4.5s34.334 2.5 47.001 10.5c12.667 7.33301 21.167 14.666 25.5 21.999s7 14.333 8 21s1.66699 12.5 2 17.5s2.5 9.16699 6.5 12.5
c5.33301 5.33301 10.833 8.33301 16.5 9s10.834 -2.66602 15.501 -9.99902c2 -4 2.16699 -9.33301 0.5 -16s-4.83398 -13.834 -9.50098 -21.501s-10.667 -15.667 -18 -24s-15.333 -15.833 -24 -22.5c-18.667 -14.667 -38.167 -24.167 -58.5 -28.5
s-40.333 -7.16602 -60 -8.49902s-38.834 -2.83301 -57.501 -4.5s-36 -7.5 -52 -17.5c-9.33301 -6 -18.333 -12.833 -27 -20.5s-16 -15.834 -22 -24.501s-10.333 -17.334 -13 -26.001s-2.66699 -17.334 0 -26.001c1.33301 -2.66699 2.5 -5.16699 3.5 -7.5
s2.16699 -4.16602 3.5 -5.49902v-1l2 -2c12.667 12.667 28.667 23.167 48 31.5s38.666 12.5 57.999 12.5c45.333 0 83.166 -5 113.499 -15s54.5 -24.5 72.5 -43.5s30.833 -42.167 38.5 -69.5s11.5 -58 11.5 -92v-18c0 -7.33301 -1.16699 -16.5 -3.5 -27.5
s-6.33301 -21.667 -12 -32s-13.334 -19.333 -23.001 -27s-21.834 -11.5 -36.501 -11.5h-60h-319v37h320z" />
    <glyph glyph-name="gaffinal" unicode="&#x6af;" horiz-adv-x="524" arabic-form="final" 
d="M462 0c-9.33301 0 -17.502 1.50098 -24.502 4.50098s-13.167 7.16699 -18.5 12.5c-5.33301 -5.33301 -11.5 -9.5 -18.5 -12.5s-15.167 -4.5 -24.5 -4.5h-60h-321v37h322c28.667 0 47.5 5.83301 56.5 17.5s13.5 26.5 13.5 44.5v18c0 26 -1.83301 50.5 -5.5 73.5
s-11.5 43 -23.5 60s-29.333 30.333 -52 40s-53 14.5 -91 14.5c-32 0 -58.5 -9.33301 -79.5 -28s-35.167 -47 -42.5 -85h-17v142c-1.33301 22 3.5 44.333 14.5 67s28.5 41.667 52.5 57c16.667 10 35.334 15.167 56.001 15.5s41.334 -0.5 62.001 -2.5s40.334 -3.5 59.001 -4.5
s34.334 2.5 47.001 10.5c12.667 7.33301 21.167 14.666 25.5 21.999s7 14.333 8 21s1.66699 12.5 2 17.5s2.5 9.16699 6.5 12.5c5.33301 5.33301 10.833 8.33301 16.5 9s10.834 -2.66602 15.501 -9.99902c2 -4 2.16699 -9.33301 0.5 -16s-4.83398 -13.834 -9.50098 -21.501
s-10.667 -15.667 -18 -24s-15.333 -15.833 -24 -22.5c-19.333 -14.667 -39 -24.167 -59 -28.5s-40 -7.16602 -60 -8.49902s-39.167 -2.83301 -57.5 -4.5s-35.5 -7.5 -51.5 -17.5c-10 -6 -19.167 -12.833 -27.5 -20.5s-15.5 -15.834 -21.5 -24.501
s-10.333 -17.334 -13 -26.001s-2.66699 -17.334 0 -26.001c1.33301 -2.66699 2.5 -5.16699 3.5 -7.5s2.16699 -4.16602 3.5 -5.49902v-1l2 -2c12.667 12.667 28.667 23.167 48 31.5s38.666 12.5 57.999 12.5c45.333 0 83.166 -4.66699 113.499 -14
s54.5 -23.166 72.5 -41.499s30.833 -41.333 38.5 -69s11.5 -59.5 11.5 -95.5v-18c0 -18 6 -32.833 18 -44.5s32.667 -17.5 62 -17.5v-37h-69z" />
    <glyph glyph-name="gafinitial" unicode="&#x6af;" horiz-adv-x="502" arabic-form="initial" 
d="M317 37c28.667 0 47.5 5.66895 56.5 17.002s13.5 26 13.5 44v18c0 22 -1.83301 44.167 -5.5 66.5s-11.5 42.5 -23.5 60.5s-29.333 32.667 -52 44s-53 17 -91 17c-32 0 -58.5 -9.33301 -79.5 -28s-35.167 -47 -42.5 -85h-17v142h1c-1.33301 22 3.33398 44.333 14.001 67
s28 41.667 52 57c16.667 10 35.334 15.167 56.001 15.5s41.334 -0.5 62.001 -2.5s40.334 -3.5 59.001 -4.5s34.334 2.5 47.001 10.5c12.667 7.33301 21.167 14.666 25.5 21.999s7 14.333 8 21s1.66699 12.5 2 17.5s2.5 9.16699 6.5 12.5
c5.33301 5.33301 10.833 8.33301 16.5 9s10.834 -2.66602 15.501 -9.99902c2 -4 2.16699 -9.33301 0.5 -16s-4.83398 -13.834 -9.50098 -21.501s-10.667 -15.667 -18 -24s-15.333 -15.833 -24 -22.5c-18.667 -14.667 -38.167 -24.167 -58.5 -28.5
s-40.333 -7.16602 -60 -8.49902s-38.834 -2.83301 -57.501 -4.5s-36 -7.5 -52 -17.5c-9.33301 -6 -18.333 -12.833 -27 -20.5s-16 -15.834 -22 -24.501s-10.333 -17.334 -13 -26.001s-2.66699 -17.334 0 -26.001c1.33301 -2.66699 2.5 -5.16699 3.5 -7.5
s2.16699 -4.16602 3.5 -5.49902v-1l2 -2c12.667 12.667 28.667 23.167 48 31.5s38.666 12.5 57.999 12.5c45.333 0 83.166 -5 113.499 -15s54.5 -24.5 72.5 -43.5s30.833 -42.167 38.5 -69.5s11.5 -58 11.5 -92v-18c0 -7.33301 -1.16699 -16.5 -3.5 -27.5
s-6.33301 -21.667 -12 -32s-13.334 -19.333 -23.001 -27s-21.834 -11.5 -36.501 -11.5h-60h-319v37h320zM17 423.002c-1.33301 22 3.3291 44.335 13.9961 67.002s28 41.667 52 57c16.667 10 35.334 15.167 56.001 15.5s41.334 -0.5 62.001 -2.5s40.334 -3.5 59.001 -4.5
s34.334 2.5 47.001 10.5c12.667 7.33301 21.167 14.666 25.5 21.999s7 14.333 8 21s1.66699 12.5 2 17.5s2.5 9.16699 6.5 12.5c5.33301 5.33301 10.833 8.33301 16.5 9s10.834 -2.66602 15.501 -9.99902c2 -4 2.16699 -9.33301 0.5 -16s-4.83398 -13.834 -9.50098 -21.501
s-10.667 -15.667 -18 -24s-15.333 -15.833 -24 -22.5c-18.667 -14.667 -38.167 -24.167 -58.5 -28.5s-40.333 -7.16602 -60 -8.49902s-38.834 -2.83301 -57.501 -4.5s-36 -7.5 -52 -17.5c-9.33301 -6 -18.333 -12.833 -27 -20.5s-16 -15.834 -22 -24.501
s-10.333 -17.334 -13 -26.001s-2.66699 -17.334 0 -26.001c0.666992 -1.33301 -0.166016 -0.666016 -2.49902 2.00098l-8.5 9.5l-9 10c-2.66699 3 -3.66699 4.16699 -3 3.5z" />
    <glyph glyph-name="gafmedial" unicode="&#x6af;" horiz-adv-x="524" arabic-form="medial" 
d="M462 0c-9.33301 0 -17.502 1.50098 -24.502 4.50098s-13.167 7.16699 -18.5 12.5c-5.33301 -5.33301 -11.5 -9.5 -18.5 -12.5s-15.167 -4.5 -24.5 -4.5h-60h-321v37h322c28.667 0 47.5 5.83301 56.5 17.5s13.5 26.5 13.5 44.5v18c0 26 -1.83301 50.5 -5.5 73.5
s-11.5 43 -23.5 60s-29.333 30.333 -52 40s-53 14.5 -91 14.5c-32 0 -58.5 -9.33301 -79.5 -28s-35.167 -47 -42.5 -85h-17v142c-1.33301 22 3.5 44.333 14.5 67s28.5 41.667 52.5 57c16.667 10 35.334 15.167 56.001 15.5s41.334 -0.5 62.001 -2.5s40.334 -3.5 59.001 -4.5
s34.334 2.5 47.001 10.5c12.667 7.33301 21.167 14.666 25.5 21.999s7 14.333 8 21s1.66699 12.5 2 17.5s2.5 9.16699 6.5 12.5c5.33301 5.33301 10.833 8.33301 16.5 9s10.834 -2.66602 15.501 -9.99902c2 -4 2.16699 -9.33301 0.5 -16s-4.83398 -13.834 -9.50098 -21.501
s-10.667 -15.667 -18 -24s-15.333 -15.833 -24 -22.5c-19.333 -14.667 -39 -24.167 -59 -28.5s-40 -7.16602 -60 -8.49902s-39.167 -2.83301 -57.5 -4.5s-35.5 -7.5 -51.5 -17.5c-10 -6 -19.167 -12.833 -27.5 -20.5s-15.5 -15.834 -21.5 -24.501
s-10.333 -17.334 -13 -26.001s-2.66699 -17.334 0 -26.001c1.33301 -2.66699 2.5 -5.16699 3.5 -7.5s2.16699 -4.16602 3.5 -5.49902v-1l2 -2c12.667 12.667 28.667 23.167 48 31.5s38.666 12.5 57.999 12.5c45.333 0 83.166 -4.66699 113.499 -14
s54.5 -23.166 72.5 -41.499s30.833 -41.333 38.5 -69s11.5 -59.5 11.5 -95.5v-18c0 -18 6 -32.833 18 -44.5s32.667 -17.5 62 -17.5v-37h-69zM16.998 423.001c-1.33301 22 3.3291 44.335 13.9961 67.002s28 41.667 52 57c16.667 10 35.334 15.167 56.001 15.5
s41.334 -0.5 62.001 -2.5s40.334 -3.5 59.001 -4.5s34.334 2.5 47.001 10.5c12.667 7.33301 21.167 14.666 25.5 21.999s7 14.333 8 21s1.66699 12.5 2 17.5s2.5 9.16699 6.5 12.5c5.33301 5.33301 10.833 8.33301 16.5 9s10.834 -2.66602 15.501 -9.99902
c2 -4 2.16699 -9.33301 0.5 -16s-4.83398 -13.834 -9.50098 -21.501s-10.667 -15.667 -18 -24s-15.333 -15.833 -24 -22.5c-18.667 -14.667 -38.167 -24.167 -58.5 -28.5s-40.333 -7.16602 -60 -8.49902s-38.834 -2.83301 -57.501 -4.5s-36 -7.5 -52 -17.5
c-9.33301 -6 -18.333 -12.833 -27 -20.5s-16 -15.834 -22 -24.501s-10.333 -17.334 -13 -26.001s-2.66699 -17.334 0 -26.001c0.666992 -1.33301 -0.166016 -0.666016 -2.49902 2.00098l-8.5 9.5l-9 10c-2.66699 3 -3.66699 4.16699 -3 3.5z" />
    <glyph glyph-name="farsiyehisolated" unicode="&#x6cc;" horiz-adv-x="654" arabic-form="isolated" 
d="M481 193c0 -26 -4.5 -50.665 -13.5 -73.998s-21.5 -43.833 -37.5 -61.5s-34.833 -31.5 -56.5 -41.5s-45.5 -15 -71.5 -15h-75c-26 0 -49.833 5 -71.5 15s-40.5 23.833 -56.5 41.5s-28.5 38.167 -37.5 61.5s-13.5 48 -13.5 74v112l116 -21v-17
c-10.667 0 -19.334 0.166992 -26.001 0.5s-12 -0.333984 -16 -2.00098s-6.83301 -5 -8.5 -10s-2.5 -12.833 -2.5 -23.5v-39c0 -17.333 1.66699 -35.5 5 -54.5s9.5 -36.333 18.5 -52s20.833 -28.667 35.5 -39s33.667 -15.5 57 -15.5h75c22.667 0 41.5 5.16699 56.5 15.5
s27 23.333 36 39s15.167 33 18.5 52s5 37.167 5 54.5l-1 54c0 18.667 4.16699 35.834 12.5 51.501s19.333 28.834 33 39.501s29.167 19 46.5 25s35 9 53 9c12 1.33301 22.833 1.16602 32.5 -0.500977s15.834 -4.83398 18.501 -9.50098c4 -7.33301 4.5 -13.333 1.5 -18
s-8.16699 -8.33398 -15.5 -11.001c-6 -2.66699 -11.833 -2.16699 -17.5 1.5s-12.5 6.5 -20.5 8.5c-24.667 -0.666992 -44.167 -9.5 -58.5 -26.5s-21.5 -39.833 -21.5 -68.5v-55z" />
    <glyph glyph-name="farsiyehfinal" unicode="&#x6cc;" horiz-adv-x="724" arabic-form="final" 
d="M609 192c0 -17.333 1.83301 -35.167 5.5 -53.5s9.83398 -35 18.501 -50s20.5 -27.333 35.5 -37s34.167 -14.5 57.5 -14.5v-37c-26 0 -50 5 -72 15s-41.167 23.833 -57.5 41.5s-29 38.167 -38 61.5s-13.5 48 -13.5 74v162h-52
c-26.667 -1.33301 -49.167 -7.33301 -67.5 -18s-33.333 -24 -45 -40s-20 -33.5 -25 -52.5s-7.5 -37.833 -7.5 -56.5h141c0 -26 -4.5 -50.333 -13.5 -73s-21.5 -42.5 -37.5 -59.5s-34.833 -30.333 -56.5 -40s-45.5 -14.5 -71.5 -14.5h-75c-26 0 -49.833 5 -71.5 15
s-40.5 23.833 -56.5 41.5s-28.5 38.167 -37.5 61.5s-13.5 48 -13.5 74v112l63 -21v-91c0 -17.333 1.66699 -35.5 5 -54.5s9.5 -36.333 18.5 -52s20.833 -28.667 35.5 -39s33.667 -15.5 57 -15.5h75c19.333 0 35.666 3.33301 48.999 10s24.5 15.667 33.5 27s16 24 21 38
s8.5 28.667 10.5 44h-140v37c0 26 5.33301 50.5 16 73.5s25.5 43 44.5 60s41.333 30.667 67 41s53.167 15.833 82.5 16.5h115v-186z" />
    <glyph glyph-name="shaddawithdammatanisolated" unicode="&#xfc5e;" arabic-form="isolated" 
d="M131 518c10 0 18.3301 -3.33398 24.9971 -10.001s10 -17.334 10 -32.001v-10c-1.33301 -14 -5.16602 -24 -11.499 -30s-14.166 -9 -23.499 -9h-51c-24 0 -36 14 -36 42v14c0 5.33301 -1 10.166 -3 14.499s-5.33301 6.5 -10 6.5c-5.33301 0 -9 -2.16699 -11 -6.5
s-3 -9.16602 -3 -14.499v-14l-17 -7v14c0 11.333 2 20.833 6 28.5s12.333 12.167 25 13.5c11.333 0 19.833 -4.16699 25.5 -12.5s8.5 -18.166 8.5 -29.499v-14c0 -5.33301 1.33301 -10.166 4 -14.499s6.33398 -6.5 11.001 -6.5h21c-5.33301 7.33301 -8 16.666 -8 27.999v7
c0 14.667 3.5 25.334 10.5 32.001s15.167 10 24.5 10h3zM144.997 482.999c0 5.33301 -1 10.167 -3 14.5s-5.66699 6.5 -11 6.5h-3c-4.66699 0 -8.16699 -2.16699 -10.5 -6.5s-3.5 -9.16602 -3.5 -14.499v-21c0 -5.33301 1 -10 3 -14s5 -6.33301 9 -7h5
c4 0 7.16699 1.66699 9.5 5s3.83301 7.66602 4.5 12.999v24zM92.9971 401l0.000976562 -54c0.666992 -5.33301 2.5 -10 5.5 -14s7.16699 -6 12.5 -6h2c5.33301 0 9.66602 2 12.999 6s5 8.66699 5 14v54l23 -13v-34c0 -14.667 -4 -25.167 -12 -31.5s-17.667 -9.5 -29 -9.5h-2
c-12 0 -22 4.66699 -30 14c-8 -9.33301 -18.333 -14 -31 -14h-2c-11.333 0 -20.833 3.16699 -28.5 9.5s-11.5 16.833 -11.5 31.5v34l23 13v-54c0 -5.33301 1.5 -10 4.5 -14s7.16699 -6 12.5 -6h2c5.33301 0 9.83301 2 13.5 6s5.5 8.66699 5.5 14v54h24z" />
    <glyph glyph-name="shaddawithkasratanisolated" unicode="&#xfc5f;" arabic-form="isolated" 
d="M96 528l0.000976562 -54c0.666992 -5.33301 2.5 -10 5.5 -14s7.16699 -6 12.5 -6h2c5.33301 0 9.66602 2 12.999 6s5 8.66699 5 14v54l23 -13v-34c0 -14.667 -4 -25.167 -12 -31.5s-17.667 -9.5 -29 -9.5h-2c-12 0 -22 4.66699 -30 14c-8 -9.33301 -18.333 -14 -31 -14
h-2c-11.333 0 -20.833 3.16699 -28.5 9.5s-11.5 16.833 -11.5 31.5v34l23 13v-54c0 -5.33301 1.5 -10 4.5 -14s7.16699 -6 12.5 -6h2c5.33301 0 9.83301 2 13.5 6s5.5 8.66699 5.5 14v54h24zM0.000976562 411l165 1v-27h-165v26zM0.000976562 359l165 1v-27h-165v26z" />
    <glyph glyph-name="shaddawithfathaisolated" unicode="&#xfc60;" arabic-form="isolated" 
d="M96 417l0.000976562 -54c0.666992 -5.33301 2.5 -10 5.5 -14s7.16699 -6 12.5 -6h2c5.33301 0 9.66602 2 12.999 6s5 8.66699 5 14v54l23 -13v-34c0 -14.667 -4 -25.167 -12 -31.5s-17.667 -9.5 -29 -9.5h-2c-12 0 -22 4.66699 -30 14c-8 -9.33301 -18.333 -14 -31 -14
h-2c-11.333 0 -20.833 3.16699 -28.5 9.5s-11.5 16.833 -11.5 31.5v34l23 13v-54c0 -5.33301 1.5 -10 4.5 -14s7.16699 -6 12.5 -6h2c5.33301 0 9.83301 2 13.5 6s5.5 8.66699 5.5 14v54h24zM0.000976562 473l165 1v-27h-165v26z" />
    <glyph glyph-name="shaddawithdammaisolated" unicode="&#xfc61;" arabic-form="isolated" 
d="M116 438c4.66699 0 8.5 1.66797 11.5 5.00098s4.83301 7.33301 5.5 12v24c0 5.33301 -1.5 10 -4.5 14s-7.16699 6 -12.5 6h-4c-5.33301 0 -9.5 -2 -12.5 -6s-4.5 -8.66699 -4.5 -14v-21c0 -5.33301 1.16699 -9.83301 3.5 -13.5s5.83301 -5.83398 10.5 -6.50098h7z
M96 389.001l0.000976562 -54c0.666992 -5.33301 2.5 -10 5.5 -14s7.16699 -6 12.5 -6h2c5.33301 0 9.66602 2 12.999 6s5 8.66699 5 14v54l23 -13v-34c0 -14.667 -4 -25.167 -12 -31.5s-17.667 -9.5 -29 -9.5h-2c-12 0 -22 4.66699 -30 14c-8 -9.33301 -18.333 -14 -31 -14
h-2c-11.333 0 -20.833 3.16699 -28.5 9.5s-11.5 16.833 -11.5 31.5v34l23 13v-54c0 -5.33301 1.5 -10 4.5 -14s7.16699 -6 12.5 -6h2c5.33301 0 9.83301 2 13.5 6s5.5 8.66699 5.5 14v54h24zM15.001 424.001l7.00195 14h57c-6 6.66699 -9 15.667 -9 27v7
c0 14 4.16699 24.333 12.5 31s18.166 10 29.499 10h4c11.333 0 21.166 -3.33301 29.499 -10s12.5 -17 12.5 -31v-10c-1.33301 -13.333 -6 -23 -14 -29s-17.333 -9 -28 -9h-101z" />
    <glyph glyph-name="shaddawithkasraisolated" unicode="&#xfc62;" arabic-form="isolated" 
d="M96 462l0.000976562 -54c0.666992 -5.33301 2.5 -10 5.5 -14s7.16699 -6 12.5 -6h2c5.33301 0 9.66602 2 12.999 6s5 8.66699 5 14v54l23 -13v-34c0 -14.667 -4 -25.167 -12 -31.5s-17.667 -9.5 -29 -9.5h-2c-12 0 -22 4.66699 -30 14c-8 -9.33301 -18.333 -14 -31 -14
h-2c-11.333 0 -20.833 3.16699 -28.5 9.5s-11.5 16.833 -11.5 31.5v34l23 13v-54c0 -5.33301 1.5 -10 4.5 -14s7.16699 -6 12.5 -6h2c5.33301 0 9.83301 2 13.5 6s5.5 8.66699 5.5 14v54h24zM0.000976562 339l165 1v-27h-165v26z" />
    <glyph glyph-name="shaddawithfathamedial" unicode="&#xfcf2;" horiz-adv-x="169" arabic-form="medial" 
d="M174 0h-178v37h178v-37zM96 410l0.000976562 -54c0.666992 -5.33301 2.5 -10 5.5 -14s7.16699 -6 12.5 -6h2c5.33301 0 9.66602 2 12.999 6s5 8.66699 5 14v54l23 -13v-34c0 -14.667 -4 -25.167 -12 -31.5s-17.667 -9.5 -29 -9.5h-2c-12 0 -22 4.66699 -30 14
c-8 -9.33301 -18.333 -14 -31 -14h-2c-11.333 0 -20.833 3.16699 -28.5 9.5s-11.5 16.833 -11.5 31.5v34l23 13v-54c0 -5.33301 1.5 -10 4.5 -14s7.16699 -6 12.5 -6h2c5.33301 0 9.83301 2 13.5 6s5.5 8.66699 5.5 14v54h24zM0.000976562 466l165 1v-27h-165v26z" />
    <glyph glyph-name="shaddawithdammamedial" unicode="&#xfcf3;" horiz-adv-x="169" arabic-form="medial" 
d="M174 0h-178v37h178v-37zM116 438c4.66699 0 8.5 1.66797 11.5 5.00098s4.83301 7.33301 5.5 12v24c0 5.33301 -1.5 10 -4.5 14s-7.16699 6 -12.5 6h-4c-5.33301 0 -9.5 -2 -12.5 -6s-4.5 -8.66699 -4.5 -14v-21c0 -5.33301 1.16699 -9.83301 3.5 -13.5
s5.83301 -5.83398 10.5 -6.50098h7zM96 389.001l0.000976562 -54c0.666992 -5.33301 2.5 -10 5.5 -14s7.16699 -6 12.5 -6h2c5.33301 0 9.66602 2 12.999 6s5 8.66699 5 14v54l23 -13v-34c0 -14.667 -4 -25.167 -12 -31.5s-17.667 -9.5 -29 -9.5h-2
c-12 0 -22 4.66699 -30 14c-8 -9.33301 -18.333 -14 -31 -14h-2c-11.333 0 -20.833 3.16699 -28.5 9.5s-11.5 16.833 -11.5 31.5v34l23 13v-54c0 -5.33301 1.5 -10 4.5 -14s7.16699 -6 12.5 -6h2c5.33301 0 9.83301 2 13.5 6s5.5 8.66699 5.5 14v54h24zM15.001 424.001
l7.00195 14h57c-6 6.66699 -9 15.667 -9 27v7c0 14 4.16699 24.333 12.5 31s18.166 10 29.499 10h4c11.333 0 21.166 -3.33301 29.499 -10s12.5 -17 12.5 -31v-10c-1.33301 -13.333 -6 -23 -14 -29s-17.333 -9 -28 -9h-101z" />
    <glyph glyph-name="shaddawithkasramedial" unicode="&#xfcf4;" horiz-adv-x="169" arabic-form="medial" 
d="M175 0h-178v37h178v-37zM0 364l165 1v-27h-165v26zM97 476l0.000976562 -54c0.666992 -5.33301 2.5 -10 5.5 -14s7.16699 -6 12.5 -6h2c5.33301 0 9.66602 2 12.999 6s5 8.66699 5 14v54l23 -13v-34c0 -14.667 -4 -25.167 -12 -31.5s-17.667 -9.5 -29 -9.5h-2
c-12 0 -22 4.66699 -30 14c-8 -9.33301 -18.333 -14 -31 -14h-2c-11.333 0 -20.833 3.16699 -28.5 9.5s-11.5 16.833 -11.5 31.5v34l23 13v-54c0 -5.33301 1.5 -10 4.5 -14s7.16699 -6 12.5 -6h2c5.33301 0 9.83301 2 13.5 6s5.5 8.66699 5.5 14v54h24z" />
    <glyph glyph-name="alefwithfathatanfinal" unicode="&#xfd3c;" horiz-adv-x="229" arabic-form="final" 
d="M34 677h157v-25h-157v25zM34 629h157v-24h-157v24zM126 98c0 -8.66699 1.00098 -16.665 3.00098 -23.998s6.33301 -13.833 13 -19.5s15.834 -10 27.501 -13s32.5 -4.5 62.5 -4.5v-37h-95c-14.667 0 -26.834 3.83301 -36.501 11.5s-17.334 16.667 -23.001 27
s-9.66699 21.166 -12 32.499s-3.5 20.666 -3.5 27.999v443l64 22v-466z" />
    <glyph glyph-name="alefwithfathatanisolated" unicode="&#xfd3d;" horiz-adv-x="223" arabic-form="isolated" 
d="M34 677h157v-25h-157v25zM34 629h157v-24h-157v24zM90 0v541l64 23v-564h-64z" />
    <glyph glyph-name="allahisolated" unicode="&#xfdf2;" horiz-adv-x="921" arabic-form="isolated" 
d="M668 0c-9.33301 0 -17.668 1.5 -25.001 4.5s-13.666 6.83301 -18.999 11.5c-5.33301 -4.66699 -11.333 -8.5 -18 -11.5s-14.667 -4.5 -24 -4.5h-127c-18 0 -32.167 6 -42.5 18s-18.166 25 -23.499 39c-17.333 -17.333 -38.333 -31.166 -63 -41.499
s-51.334 -15.5 -80.001 -15.5c-26.667 0 -51.834 4.83301 -75.501 14.5s-44.334 23 -62.001 40s-31.667 36.667 -42 59s-15.5 46.5 -15.5 72.5c0 25.333 5.16699 49.333 15.5 72s24.333 42.5 42 59.5s38.334 30.5 62.001 40.5s48.834 15 75.501 15c27.333 0 53 -5 77 -15
s44.833 -23.5 62.5 -40.5s31.667 -36.833 42 -59.5s15.5 -46.667 15.5 -72v-88c0 -8.66699 0.833008 -16.667 2.5 -24s5.33398 -13.833 11.001 -19.5s13.667 -10.167 24 -13.5s24.166 -5 41.499 -5h1c28.667 0 47.5 5.83301 56.5 17.5s13.5 26.167 13.5 43.5v382h64v-382
c0 -17.333 4.5 -31.833 13.5 -43.5s27.833 -17.5 56.5 -17.5h2c28.667 0 47.667 5.83301 57 17.5s14 26.167 14 43.5v437l64 25v-460c0 -7.33301 -0.666992 -16.5 -2 -27.5s-4.5 -21.833 -9.5 -32.5s-12.5 -19.834 -22.5 -27.501s-24 -11.5 -42 -11.5h-120zM245.998 37
c23.333 0 43.333 4.66699 60 14s30.334 21.333 41.001 36s18.5 30.834 23.5 48.501s7.5 34.5 7.5 50.5s-2.5 32.667 -7.5 50s-12.833 33.333 -23.5 48s-24.334 26.667 -41.001 36s-36.667 14 -60 14s-43.333 -4.66699 -60 -14s-30.334 -21.333 -41.001 -36
s-18.667 -30.667 -24 -48s-8 -34 -8 -50s2.66699 -32.833 8 -50.5s13.333 -33.834 24 -48.501s24.334 -26.667 41.001 -36s36.667 -14 60 -14zM637.998 627h-30l-1 104h30zM636.998 602l0.00195312 -54c0 -5.33301 1.5 -10 4.5 -14s7.16699 -6 12.5 -6h2
c5.33301 0 9.66602 2 12.999 6s5 8.66699 5 14v54h9l17 -13v-34c0 -14.667 -4.5 -25.167 -13.5 -31.5s-19.167 -9.5 -30.5 -9.5h-2c-12 0 -22 4.66699 -30 14c-8 -9.33301 -18.333 -14 -31 -14h-2c-11.333 0 -21.333 3.16699 -30 9.5s-13 16.833 -13 31.5v34l16 13h10v-54
c0 -5.33301 1.5 -10 4.5 -14s7.16699 -6 12.5 -6h2c5.33301 0 9.66602 2 12.999 6s5 8.66699 5 14v54h26z" />
    <glyph glyph-name="fathatanisolated" unicode="&#xfe70;" arabic-form="isolated" 
d="M12 403h157v-25h-157v25zM12 355h157v-24h-157v24z" />
    <glyph glyph-name="tatweelwithfathatanabove" unicode="&#xfe71;" horiz-adv-x="169" arabic-form="medial" 
d="M175 0h-179v37h179v-37zM0 411l165 1v-27h-165v26zM0 359l165 1v-27h-165v26z" />
    <glyph glyph-name="dammatanisolated" unicode="&#xfe72;" arabic-form="isolated" 
d="M132 392c10 0 18.4971 -2.33105 25.4971 -6.99805s10.5 -13.667 10.5 -27v-18c-1.33301 -14 -5.16602 -24 -11.499 -30s-14.166 -9 -23.499 -9h-51c-24 0 -36 14 -36 42v14c0 5.33301 -1 10.166 -3 14.499s-5.33301 6.5 -10 6.5c-5.33301 0 -9 -2.16699 -11 -6.5
s-3 -9.16602 -3 -14.499v-14l-17 -7v14c0 9.33301 2.16699 18.666 6.5 27.999s12.5 14 24.5 14c9.33301 0 17.333 -3.33301 24 -10s10 -17.334 10 -32.001v-14c0 -5.33301 1.33301 -10.166 4 -14.499s6.33398 -6.5 11.001 -6.5h21c-5.33301 7.33301 -8 16.666 -8 27.999v15
c0 13.333 3.5 22.333 10.5 27s15.833 7 26.5 7zM146.997 357.002c0 5.33301 -1.16797 10.167 -3.50098 14.5s-6.16602 6.5 -11.499 6.5c-6.66699 0 -11 -2.16699 -13 -6.5s-3 -9.16602 -3 -14.499v-21c0 -5.33301 1 -10 3 -14s5 -6.33301 9 -7h5c4 0 7.16699 1.66699 9.5 5
s3.83301 7.66602 4.5 12.999v24z" />
    <glyph glyph-name="kasratanisolated" unicode="&#xfe74;" arabic-form="isolated" 
d="M-15 -68l165 1v-27h-165v26zM-15 -120l165 1v-27h-165v26z" />
    <glyph glyph-name="fathaisolated" unicode="&#xfe76;" arabic-form="isolated" 
d="M0 359l165 1v-27h-165v26z" />
    <glyph glyph-name="fathamedial" unicode="&#xfe77;" horiz-adv-x="169" arabic-form="medial" 
d="M175 37h-178v-37h178v37zM13 364h157v-24h-157v24z" />
    <glyph glyph-name="dammaisolated" unicode="&#xfe78;" arabic-form="isolated" 
d="M103 329c4.66699 0 8.5 1.66797 11.5 5.00098s4.83301 7.33301 5.5 12v24c0 5.33301 -1.5 10 -4.5 14s-7.16699 6 -12.5 6h-4c-5.33301 0 -9.5 -2 -12.5 -6s-4.5 -8.66699 -4.5 -14v-21c0 -5.33301 1.16699 -9.83301 3.5 -13.5s5.83301 -5.83398 10.5 -6.50098h7z
M2 315.001l7.00195 14h57c-6 6.66699 -9 15.667 -9 27v7c0 14 4.16699 24.333 12.5 31s18.166 10 29.499 10h4c11.333 0 21.166 -3.33301 29.499 -10s12.5 -17 12.5 -31v-10c-1.33301 -13.333 -6 -23 -14 -29s-17.333 -9 -28 -9h-101z" />
    <glyph glyph-name="dammamedial" unicode="&#xfe79;" horiz-adv-x="169" arabic-form="medial" 
d="M175 37h-178v-37h178v37zM103 329c4.66699 0 8.5 1.66797 11.5 5.00098s4.83301 7.33301 5.5 12v24c0 5.33301 -1.5 10 -4.5 14s-7.16699 6 -12.5 6h-4c-5.33301 0 -9.5 -2 -12.5 -6s-4.5 -8.66699 -4.5 -14v-21c0 -5.33301 1.16699 -9.83301 3.5 -13.5
s5.83301 -5.83398 10.5 -6.50098h7zM2 315.001l7.00195 14h57c-6 6.66699 -9 15.667 -9 27v7c0 14 4.16699 24.333 12.5 31s18.166 10 29.499 10h4c11.333 0 21.166 -3.33301 29.499 -10s12.5 -17 12.5 -31v-10c-1.33301 -13.333 -6 -23 -14 -29s-17.333 -9 -28 -9h-101z
" />
    <glyph glyph-name="kasraisolated" unicode="&#xfe7a;" arabic-form="isolated" 
d="M-13 -108l165 1v-27h-165v26z" />
    <glyph glyph-name="kasramedial" unicode="&#xfe7b;" horiz-adv-x="169" arabic-form="medial" 
d="M173 0h-176v37h176v-37zM-32 -119l165 1v-27h-165v26z" />
    <glyph glyph-name="shaddaisolated" unicode="&#xfe7c;" arabic-form="isolated" 
d="M103 444l0.00195312 -54c0 -5.33301 1.5 -10 4.5 -14s7.16699 -6 12.5 -6h2c5.33301 0 9.66602 2 12.999 6s5 8.66699 5 14v54h9l17 -13v-34c0 -14.667 -4.5 -25.167 -13.5 -31.5s-19.167 -9.5 -30.5 -9.5h-2c-12 0 -22 4.66699 -30 14c-8 -9.33301 -18.333 -14 -31 -14
h-2c-11.333 0 -21.333 3.16699 -30 9.5s-13 16.833 -13 31.5v34l16 13h10v-54c0 -5.33301 1.5 -10 4.5 -14s7.16699 -6 12.5 -6h2c5.33301 0 9.66602 2 12.999 6s5 8.66699 5 14v54h26z" />
    <glyph glyph-name="shaddamedial" unicode="&#xfe7d;" horiz-adv-x="169" arabic-form="medial" 
d="M173 0h-176v37h176v-37zM103 444l0.00195312 -54c0 -5.33301 1.5 -10 4.5 -14s7.16699 -6 12.5 -6h2c5.33301 0 9.66602 2 12.999 6s5 8.66699 5 14v54h9l17 -13v-34c0 -14.667 -4.5 -25.167 -13.5 -31.5s-19.167 -9.5 -30.5 -9.5h-2c-12 0 -22 4.66699 -30 14
c-8 -9.33301 -18.333 -14 -31 -14h-2c-11.333 0 -21.333 3.16699 -30 9.5s-13 16.833 -13 31.5v34l16 13h10v-54c0 -5.33301 1.5 -10 4.5 -14s7.16699 -6 12.5 -6h2c5.33301 0 9.66602 2 12.999 6s5 8.66699 5 14v54h26z" />
    <glyph glyph-name="sukunisolated" unicode="&#xfe7e;" arabic-form="isolated" 
d="M10 380c0 13.333 4.83301 24.833 14.5 34.5s21.167 14.5 34.5 14.5s24.833 -4.83301 34.5 -14.5s14.5 -21.167 14.5 -34.5s-4.83301 -24.833 -14.5 -34.5s-21.167 -14.5 -34.5 -14.5s-24.833 4.83301 -34.5 14.5s-14.5 21.167 -14.5 34.5zM34 380
c0 -7.33301 2.33301 -13.333 7 -18s10.667 -7 18 -7s13.333 2.33301 18 7s7 10.667 7 18s-2.33301 13.5 -7 18.5s-10.667 7.5 -18 7.5s-13.333 -2.5 -18 -7.5s-7 -11.167 -7 -18.5z" />
    <glyph glyph-name="sukunmedial" unicode="&#xfe7f;" horiz-adv-x="169" arabic-form="medial" 
d="M174 0h-178v37h178v-37zM10 380c0 13.333 4.83301 24.833 14.5 34.5s21.167 14.5 34.5 14.5s24.833 -4.83301 34.5 -14.5s14.5 -21.167 14.5 -34.5s-4.83301 -24.833 -14.5 -34.5s-21.167 -14.5 -34.5 -14.5s-24.833 4.83301 -34.5 14.5s-14.5 21.167 -14.5 34.5zM34 380
c0 -7.33301 2.33301 -13.333 7 -18s10.667 -7 18 -7s13.333 2.33301 18 7s7 10.667 7 18s-2.33301 13.5 -7 18.5s-10.667 7.5 -18 7.5s-13.333 -2.5 -18 -7.5s-7 -11.167 -7 -18.5z" />
    <glyph glyph-name="hamzaisolated" unicode="&#x621;" horiz-adv-x="287" arabic-form="isolated" 
d="M250 38l-0.000976562 -37.9971h-211v38h50c-12.667 9.33301 -23 19.833 -31 31.5s-12 25.5 -12 41.5c0 29.333 11 53.5 33 72.5s47.667 28.5 77 28.5c12 0 24.333 -1.83301 37 -5.5s22.334 -9.83398 29.001 -18.501c14 -13.333 23.333 -33.333 28 -60h-29
c-3.33301 18.667 -10.333 32.5 -21 41.5s-25.334 13.5 -44.001 13.5c-21.333 -2.66699 -36.166 -10.167 -44.499 -22.5s-12.5 -28.833 -12.5 -49.5c0 -18.667 6 -34.834 18 -48.501s27 -21.834 45 -24.501h88z" />
    <glyph glyph-name="alefwithmaddaaboveisolated" unicode="&#x622;" horiz-adv-x="207" arabic-form="isolated" 
d="M52 655c18 12 40.0049 15.001 66.0049 9.00098c12 -3.33301 22 -4.16602 30 -2.49902s15 4.83398 21 9.50098s11 10.667 15 18l12 23l25 -10l-12 -24.5c-4.66699 -9.66699 -11.167 -18.334 -19.5 -26.001s-18.833 -13.334 -31.5 -17.001
s-28.334 -2.83398 -47.001 2.49902c-16.667 4.66699 -31.667 3 -45 -5c-6.66699 -4 -12.334 -9.33301 -17.001 -16s-8.33398 -13.167 -11.001 -19.5s-5.33398 -15.833 -8.00098 -28.5l-26 10c0 0.666992 0.666992 4 2 10s3.83301 13 7.5 21s8.66699 16.167 15 24.5
s14.166 15.5 23.499 21.5zM87.0049 0.000976562v541l63 23v-564h-63z" />
    <glyph glyph-name="alefwithmaddaabovefinal" unicode="&#x622;" horiz-adv-x="229" arabic-form="final" 
d="M62 655c18 12 40.0039 15.001 66.0039 9.00098c12 -3.33301 22 -4.16602 30 -2.49902s15 4.83398 21 9.50098s11 10.667 15 18l12 23l25 -10l-12 -24.5c-4.66699 -9.66699 -11.167 -18.334 -19.5 -26.001s-18.833 -13.334 -31.5 -17.001
s-28.334 -2.83398 -47.001 2.49902c-16.667 4.66699 -31.667 3 -45 -5c-6.66699 -4 -12.334 -9.33301 -17.001 -16s-8.33398 -13.167 -11.001 -19.5s-4.66699 -11.833 -6 -16.5l-2 -7l-26 5c0 0.666992 0.666992 4 2 10s3.83301 13 7.5 21s8.66699 16.167 15 24.5
s14.166 15.5 23.499 21.5zM126.004 98.001c0 -8.66699 1.00098 -16.665 3.00098 -23.998s6.33301 -13.833 13 -19.5s15.834 -10 27.501 -13s32.5 -4.5 62.5 -4.5v-37h-95c-14.667 0 -26.834 3.83301 -36.501 11.5s-17.334 16.667 -23.001 27s-9.66699 21.166 -12 32.499
s-3.5 20.666 -3.5 27.999v443l64 22v-466z" />
    <glyph glyph-name="alefwithhamzaaboveisolated" unicode="&#x623;" horiz-adv-x="212" arabic-form="isolated" 
d="M87 0v541l63 23v-564h-63zM179 627l0.000976562 -23h-130v23h31c-8 6 -14.5 12.5 -19.5 19.5s-7.5 15.5 -7.5 25.5c0 18 6.83301 32.833 20.5 44.5s29.5 17.5 47.5 17.5c7.33301 0 14.833 -1.16699 22.5 -3.5s13.5 -6.5 17.5 -12.5
c8.66699 -7.33301 14.667 -19.333 18 -36h-18c-2 12 -6.33301 20.667 -13 26s-15.667 8 -27 8c-13.333 -1.33301 -22.5 -5.83301 -27.5 -13.5s-7.5 -17.834 -7.5 -30.501c0 -11.333 3.66699 -21.166 11 -29.499s16.666 -13.5 27.999 -15.5h54z" />
    <glyph glyph-name="alefwithhamzaabovefinal" unicode="&#x623;" horiz-adv-x="230" arabic-form="final" 
d="M126 98c0 -8.66699 1.00098 -16.665 3.00098 -23.998s6.33301 -13.833 13 -19.5s15.834 -10 27.501 -13s32.5 -4.5 62.5 -4.5v-37h-95c-14.667 0 -26.834 3.83301 -36.501 11.5s-17.334 16.667 -23.001 27s-9.66699 21.166 -12 32.499s-3.5 20.666 -3.5 27.999v443l64 22
v-466zM154.001 625.002l0.000976562 -23h-130v23h31c-8 6 -14.5 12.5 -19.5 19.5s-7.5 15.5 -7.5 25.5c0 18 6.83301 32.833 20.5 44.5s29.5 17.5 47.5 17.5c7.33301 0 14.833 -1.16699 22.5 -3.5s13.5 -6.5 17.5 -12.5c8.66699 -7.33301 14.667 -19.333 18 -36h-18
c-2 12 -6.33301 20.667 -13 26s-15.667 8 -27 8c-13.333 -1.33301 -22.5 -5.83301 -27.5 -13.5s-7.5 -17.834 -7.5 -30.501c0 -11.333 3.66699 -21.166 11 -29.499s16.666 -13.5 27.999 -15.5h54z" />
    <glyph glyph-name="wawwithhamzaaboveisolated" unicode="&#x624;" horiz-adv-x="446" arabic-form="isolated" 
d="M284 459l0.000976562 -25.001h-136v25h33c-8.66699 6 -15.667 12.833 -21 20.5s-8 17.167 -8 28.5c0 19.333 7.16699 35.166 21.5 47.499s31.166 18.5 50.499 18.5c7.33301 0 15 -1.33301 23 -4s14.333 -6.66699 19 -12c8.66699 -8 14.667 -21.333 18 -40h-18
c-2.66699 13.333 -7.5 22.833 -14.5 28.5s-16.167 8.5 -27.5 8.5c-14 -1.33301 -23.667 -6.16602 -29 -14.499s-8 -19.166 -8 -32.499c0 -12.667 3.83301 -23.5 11.5 -32.5s17.5 -14.5 29.5 -16.5h56zM388.001 185.999c0 26 -4.49805 50.165 -13.498 72.498
s-21.333 42 -37 59s-33.834 30.333 -54.501 40s-42.334 14.5 -65.001 14.5s-44 -4.83301 -64 -14.5s-37.5 -23 -52.5 -40s-26.833 -36.667 -35.5 -59s-13 -46.5 -13 -72.5s4.33301 -50.167 13 -72.5s20.5 -42 35.5 -59s32.5 -30.333 52.5 -40s41.333 -14.5 64 -14.5
c19.333 0 38.166 3.33301 56.499 10s34.5 16.334 48.5 29.001v-42c0 -10 -2.33301 -21.667 -7 -35s-11.167 -26.166 -19.5 -38.499s-18.666 -22.833 -30.999 -31.5s-25.833 -13.334 -40.5 -14.001l-6 -29c20 0 39.333 4 58 12s35.667 18.833 51 32.5
s28.333 29.334 39 47.001s17.667 36.5 21 56.5v189zM218.003 36.9971c-32 0 -56.833 13.833 -74.5 41.5s-26.5 63.5 -26.5 107.5s8.83301 79.833 26.5 107.5s42.5 41.5 74.5 41.5c32.667 0 58.167 -13.833 76.5 -41.5s27.5 -63.5 27.5 -107.5s-9.16699 -79.833 -27.5 -107.5
s-43.833 -41.5 -76.5 -41.5z" />
    <glyph glyph-name="wawwithhamzaabovefinal" unicode="&#x624;" horiz-adv-x="471" arabic-form="final" 
d="M458 38c-25.333 1.33301 -43.5 9.33203 -54.5 23.999s-16.833 30.667 -17.5 48v76c0 26 -4.33301 50.167 -13 72.5s-20.5 42 -35.5 59s-32.667 30.333 -53 40s-41.833 14.5 -64.5 14.5s-44 -4.83301 -64 -14.5s-37.5 -23 -52.5 -40s-26.833 -36.667 -35.5 -59
s-13 -46.5 -13 -72.5c0 -25.333 4.33301 -49.333 13 -72s20.5 -42.5 35.5 -59.5s32.5 -30.333 52.5 -40s41.333 -14.5 64 -14.5c19.333 0 37.666 3.5 54.999 10.5s33 16.5 47 28.5v-42c0 -10 -2.16699 -21.667 -6.5 -35s-10.5 -26.166 -18.5 -38.499s-18 -22.833 -30 -31.5
s-25.333 -13.334 -40 -14.001l-6 -29c20 0 39 4 57 12s34.333 18.833 49 32.5s27 29.334 37 47.001s16.667 36.5 20 56.5l2 35c5.33301 -9.33301 11.333 -17 18 -23s14.334 -9 23.001 -9h46v38h-15zM220 30.999c-16 0 -30 4 -42 12s-22 19 -30 33s-14 30.333 -18 49
s-6 39 -6 61s2 42.5 6 61.5s10 35.5 18 49.5s18 25.167 30 33.5s26 12.5 42 12.5s30 -4.16699 42 -12.5s22 -19.5 30 -33.5s14 -30.5 18 -49.5s6 -39.5 6 -61.5s-2 -42.333 -6 -61s-10 -35 -18 -49s-18 -25 -30 -33s-26 -12 -42 -12zM281 458.999l0.000976562 -25.001h-136
v25h33c-8.66699 6 -15.667 12.833 -21 20.5s-8 17.167 -8 28.5c0 19.333 7.16699 35.166 21.5 47.499s31.166 18.5 50.499 18.5c7.33301 0 15 -1.33301 23 -4s14.333 -6.66699 19 -12c8.66699 -8 14.667 -21.333 18 -40h-18c-2.66699 13.333 -7.5 22.833 -14.5 28.5
s-16.167 8.5 -27.5 8.5c-14 -1.33301 -23.667 -6.16602 -29 -14.499s-8 -19.166 -8 -32.499c0 -12.667 3.83301 -23.5 11.5 -32.5s17.5 -14.5 29.5 -16.5h56z" />
    <glyph glyph-name="alefwithhamzabelowisolated" unicode="&#x625;" horiz-adv-x="223" arabic-form="isolated" 
d="M87 0v541l63 23v-564h-63zM172 -155l0.000976562 -23h-130v23h31c-8 6 -14.5 12.5 -19.5 19.5s-7.5 15.5 -7.5 25.5c0 18 6.83301 32.833 20.5 44.5s29.5 17.5 47.5 17.5c7.33301 0 14.833 -1.16699 22.5 -3.5s13.5 -6.5 17.5 -12.5
c8.66699 -7.33301 14.667 -19.333 18 -36h-18c-2 12 -6.33301 20.667 -13 26s-15.667 8 -27 8c-13.333 -1.33301 -22.5 -5.83301 -27.5 -13.5s-7.5 -17.834 -7.5 -30.501c0 -11.333 3.66699 -21.166 11 -29.499s16.666 -13.5 27.999 -15.5h54z" />
    <glyph glyph-name="alefwithhamzabelowfinal" unicode="&#x625;" horiz-adv-x="229" arabic-form="final" 
d="M126 98c0 -8.66699 1.00098 -16.665 3.00098 -23.998s6.33301 -13.833 13 -19.5s15.834 -10 27.501 -13s32.5 -4.5 62.5 -4.5v-37h-95c-14.667 0 -26.834 3.83301 -36.501 11.5s-17.334 16.667 -23.001 27s-9.66699 21.166 -12 32.499s-3.5 20.666 -3.5 27.999v443l64 22
v-466zM203.001 -144.998l0.000976562 -23h-130v23h31c-8 6 -14.5 12.5 -19.5 19.5s-7.5 15.5 -7.5 25.5c0 18 6.83301 32.833 20.5 44.5s29.5 17.5 47.5 17.5c7.33301 0 14.833 -1.16699 22.5 -3.5s13.5 -6.5 17.5 -12.5c8.66699 -7.33301 14.667 -19.333 18 -36h-18
c-2 12 -6.33301 20.667 -13 26s-15.667 8 -27 8c-13.333 -1.33301 -22.5 -5.83301 -27.5 -13.5s-7.5 -17.834 -7.5 -30.501c0 -11.333 3.66699 -21.166 11 -29.499s16.666 -13.5 27.999 -15.5h54z" />
    <glyph glyph-name="yehwithhamzaaboveisolated" unicode="&#x626;" horiz-adv-x="695" arabic-form="isolated" 
d="M178 376l0.000976562 -23h-130v23h31c-8 6 -14.5 12.5 -19.5 19.5s-7.5 15.5 -7.5 25.5c0 18 6.83301 32.833 20.5 44.5s29.5 17.5 47.5 17.5c7.33301 0 14.833 -1.16699 22.5 -3.5s13.5 -6.5 17.5 -12.5c8.66699 -7.33301 14.667 -19.333 18 -36h-18
c-2 12 -6.33301 20.667 -13 26s-15.667 8 -27 8c-13.333 -1.33301 -22.5 -5.83301 -27.5 -13.5s-7.5 -17.834 -7.5 -30.501c0 -11.333 3.66699 -21.166 11 -29.499s16.666 -13.5 27.999 -15.5h54zM521.001 354l6.99902 23.998c-30 0 -58.167 -5 -84.5 -15
s-49.333 -23.5 -69 -40.5s-35 -37.167 -46 -60.5s-16.5 -48.333 -16.5 -75v-37h140c-2 -14.667 -5.5 -29.167 -10.5 -43.5s-12 -27 -21 -38s-20.167 -20 -33.5 -27s-29.666 -10.5 -48.999 -10.5h-111c-23.333 0 -42.333 5.16699 -57 15.5s-26.5 23.333 -35.5 39
s-15.167 33 -18.5 52s-5 37.167 -5 54.5v91l-63 21v-112c0 -26 4.5 -50.667 13.5 -74s21.5 -43.833 37.5 -61.5s34.833 -31.5 56.5 -41.5s45.5 -15 71.5 -15h111c26 0 49.833 4.83301 71.5 14.5s40.5 22.834 56.5 39.501s28.5 36.334 37.5 59.001s13.5 47 13.5 73l-141 1
c0 18.667 2.5 37.5 7.5 56.5s13.333 36.5 25 52.5s26.667 29.333 45 40s40.833 16.667 67.5 18z" />
    <glyph glyph-name="yehwithhamzaabovefinal" unicode="&#x626;" horiz-adv-x="724" arabic-form="final" 
d="M609 378l-115 0.000976562c-29.333 -0.666992 -56.833 -6.16699 -82.5 -16.5s-48 -24 -67 -41s-33.833 -37 -44.5 -60s-16 -47.5 -16 -73.5v-37h140c-2 -15.333 -5.5 -30 -10.5 -44s-12 -26.667 -21 -38s-20.167 -20.333 -33.5 -27s-29.666 -10 -48.999 -10h-75
c-23.333 0 -42.333 5.16699 -57 15.5s-26.5 23.333 -35.5 39s-15.167 33 -18.5 52s-5 37.167 -5 54.5v91l-63 21v-112c0 -26 4.5 -50.667 13.5 -74s21.5 -43.833 37.5 -61.5s34.833 -31.5 56.5 -41.5s45.5 -15 71.5 -15h75c26 0 49.833 4.83301 71.5 14.5s40.5 23 56.5 40
s28.5 36.833 37.5 59.5s13.5 47 13.5 73h-141c0 18.667 2.5 37.5 7.5 56.5s13.333 36.5 25 52.5s26.667 29.333 45 40s40.833 16.667 67.5 18h52v-162c0 -26 4.5 -50.667 13.5 -74s21.667 -43.833 38 -61.5s35.5 -31.5 57.5 -41.5s46 -15 72 -15v37
c-23.333 0 -42.5 4.83301 -57.5 14.5s-26.833 22 -35.5 37s-14.834 31.667 -18.501 50s-5.5 36.166 -5.5 53.499v186zM178 376.001l0.000976562 -23h-130v23h31c-8 6 -14.5 12.5 -19.5 19.5s-7.5 15.5 -7.5 25.5c0 18 6.83301 32.833 20.5 44.5s29.5 17.5 47.5 17.5
c7.33301 0 14.833 -1.16699 22.5 -3.5s13.5 -6.5 17.5 -12.5c8.66699 -7.33301 14.667 -19.333 18 -36h-18c-2 12 -6.33301 20.667 -13 26s-15.667 8 -27 8c-13.333 -1.33301 -22.5 -5.83301 -27.5 -13.5s-7.5 -17.834 -7.5 -30.501c0 -11.333 3.66699 -21.166 11 -29.499
s16.666 -13.5 27.999 -15.5h54z" />
    <glyph glyph-name="yehwithhamzaaboveinitial" unicode="&#x626;" horiz-adv-x="255" arabic-form="initial" 
d="M-3 37l48.999 -0.00195312c29.333 0 48.5 5.83301 57.5 17.5s13.5 26.167 13.5 43.5v255l63 23v-277c0 -7.33301 -1.16699 -16.666 -3.5 -27.999s-6.16602 -22.166 -11.499 -32.499s-13 -19.333 -23 -27s-22.333 -11.5 -37 -11.5h-59h-49v37zM200.999 470.998
l0.000976562 -25.001h-136v25h33c-8.66699 6 -15.667 12.833 -21 20.5s-8 17.167 -8 28.5c0 19.333 7.16699 35.166 21.5 47.499s31.166 18.5 50.499 18.5c7.33301 0 15 -1.33301 23 -4s14.333 -6.66699 19 -12c8.66699 -8 14.667 -21.333 18 -40h-18
c-2.66699 13.333 -7.5 22.833 -14.5 28.5s-16.167 8.5 -27.5 8.5c-14 -1.33301 -23.667 -6.16602 -29 -14.499s-8 -19.166 -8 -32.499c0 -12.667 3.83301 -23.5 11.5 -32.5s17.5 -14.5 29.5 -16.5h56z" />
    <glyph glyph-name="yehwithhamzaabovemedial" unicode="&#x626;" horiz-adv-x="275" arabic-form="medial" 
d="M172 97c0 -8.66699 0.99707 -16.667 2.99707 -24s5.66699 -13.666 11 -18.999s12.5 -9.5 21.5 -12.5s20.833 -4.5 35.5 -4.5h35v-37h-94c-17.333 0 -31.666 5.66699 -42.999 17c-5.33301 -5.33301 -11.666 -9.5 -18.999 -12.5s-15.666 -4.5 -24.999 -4.5h-101v37h43
c28.667 0 47.5 5.66699 56.5 17s13.5 25.666 13.5 42.999v256l63 23v-279zM200.997 471l0.000976562 -25.001h-136v25h33c-8.66699 6 -15.667 12.833 -21 20.5s-8 17.167 -8 28.5c0 19.333 7.16699 35.166 21.5 47.499s31.166 18.5 50.499 18.5c7.33301 0 15 -1.33301 23 -4
s14.333 -6.66699 19 -12c8.66699 -8 14.667 -21.333 18 -40h-18c-2.66699 13.333 -7.5 22.833 -14.5 28.5s-16.167 8.5 -27.5 8.5c-14 -1.33301 -23.667 -6.16602 -29 -14.499s-8 -19.166 -8 -32.499c0 -12.667 3.83301 -23.5 11.5 -32.5s17.5 -14.5 29.5 -16.5h56z" />
    <glyph glyph-name="alefisolated" unicode="&#x627;" horiz-adv-x="207" arabic-form="isolated" 
d="M90 0v541l64 23v-564h-64z" />
    <glyph glyph-name="aleffinal" unicode="&#x627;" horiz-adv-x="222" arabic-form="final" 
d="M135 98c0 -8.66699 1.00098 -16.665 3.00098 -23.998s6.33301 -13.833 13 -19.5s15.834 -10 27.501 -13s27.167 -4.5 46.5 -4.5v-37h-79c-14.667 0 -26.834 3.83301 -36.501 11.5s-17.334 16.667 -23.001 27s-9.66699 21.166 -12 32.499s-3.5 20.666 -3.5 27.999v443
l64 22v-466z" />
    <glyph glyph-name="behisolated" unicode="&#x628;" horiz-adv-x="589" arabic-form="isolated" 
d="M291 -142c9.33301 0 17.5 3.5 24.5 10.5s10.5 15.167 10.5 24.5c0 10 -3.5 18.5 -10.5 25.5s-15.167 10.5 -24.5 10.5c-10 0 -18.5 -3.5 -25.5 -10.5s-10.5 -15.5 -10.5 -25.5c0 -9.33301 3.5 -17.5 10.5 -24.5s15.5 -10.5 25.5 -10.5zM187 0h-58.999
c-14.667 -0 -26.834 3.83301 -36.501 11.5s-17.334 16.667 -23.001 27s-9.66699 21.166 -12 32.499s-3.5 20.666 -3.5 27.999v277l63 -23v-255c0 -8.66699 1 -16.667 3 -24s5.66699 -13.833 11 -19.5s12.5 -10 21.5 -13s20.833 -4.5 35.5 -4.5h204
c28.667 0 47.667 5.83301 57 17.5s14 26.167 14 43.5l1 255l62 23v-277c0 -7.33301 -1.16699 -16.666 -3.5 -27.999s-6.16602 -22.166 -11.499 -32.499s-13 -19.333 -23 -27s-22.333 -11.5 -37 -11.5h-59h-204z" />
    <glyph glyph-name="behfinal" unicode="&#x628;" horiz-adv-x="606" arabic-form="final" 
d="M286 -142c-9.33301 0 -17.5 3.5 -24.5 10.5s-10.5 15.167 -10.5 24.5c0 10 3.5 18.5 10.5 25.5s15.167 10.5 24.5 10.5c10 0 18.5 -3.5 25.5 -10.5s10.5 -15.5 10.5 -25.5c0 -9.33301 -3.5 -17.5 -10.5 -24.5s-15.5 -10.5 -25.5 -10.5zM131 0
c-15.333 0 -27.834 3.83203 -37.501 11.499s-17.167 16.834 -22.5 27.501s-9.16602 21.5 -11.499 32.5s-3.5 20.167 -3.5 27.5v277l63 -23v-255c0 -8.66699 1 -16.667 3 -24s5.66699 -13.833 11 -19.5s12.5 -10 21.5 -13s20.833 -4.5 35.5 -4.5h202
c28.667 0 47.5 5.83301 56.5 17.5s13.5 26.167 13.5 43.5v255l63 23l1 -278c0 -8.66699 1 -16.667 3 -24s5.5 -13.833 10.5 -19.5s12 -10 21 -13s20.833 -4.5 35.5 -4.5h15v-37h-74c-9.33301 0 -17.5 1.5 -24.5 4.5s-13.167 7.16699 -18.5 12.5
c-5.33301 -5.33301 -11.5 -9.5 -18.5 -12.5s-15.167 -4.5 -24.5 -4.5h-320z" />
    <glyph glyph-name="behinitial" unicode="&#x628;" horiz-adv-x="237" arabic-form="initial" 
d="M-3 37l48.999 -0.00195312c29.333 0 48.5 5.83301 57.5 17.5s13.5 26.167 13.5 43.5v255l63 23v-277c0 -7.33301 -1.16699 -16.666 -3.5 -27.999s-6.16602 -22.166 -11.499 -32.499s-13 -19.333 -23 -27s-22.333 -11.5 -37 -11.5h-59h-49v37zM109.999 -142.002
c-9.33301 0 -17.5 3.5 -24.5 10.5s-10.5 15.167 -10.5 24.5c0 10 3.5 18.5 10.5 25.5s15.167 10.5 24.5 10.5c10 0 18.5 -3.5 25.5 -10.5s10.5 -15.5 10.5 -25.5c0 -9.33301 -3.5 -17.5 -10.5 -24.5s-15.5 -10.5 -25.5 -10.5z" />
    <glyph glyph-name="behmedial" unicode="&#x628;" horiz-adv-x="256" arabic-form="medial" 
d="M145 -142c-9.33301 0 -17.5 3.5 -24.5 10.5s-10.5 15.167 -10.5 24.5c0 10 3.5 18.5 10.5 25.5s15.167 10.5 24.5 10.5c10 0 18.5 -3.5 25.5 -10.5s10.5 -15.5 10.5 -25.5c0 -9.33301 -3.5 -17.5 -10.5 -24.5s-15.5 -10.5 -25.5 -10.5zM176 97
c0 -8.66699 0.99707 -16.667 2.99707 -24s5.66699 -13.666 11 -18.999s12.5 -9.5 21.5 -12.5s20.833 -4.5 35.5 -4.5h13v-37h-72c-17.333 0 -31.666 5.66699 -42.999 17c-5.33301 -5.33301 -11.666 -9.5 -18.999 -12.5s-15.666 -4.5 -24.999 -4.5h-110v37h52
c28.667 0 47.5 5.66699 56.5 17s13.5 25.666 13.5 42.999v256l63 23v-279z" />
    <glyph glyph-name="tehmarbutaisolated" unicode="&#x629;" horiz-adv-x="445" arabic-form="isolated" 
d="M171 484c10 0 18.333 -3.5 25 -10.5s10 -15.5 10 -25.5c0 -9.33301 -3.33301 -17.5 -10 -24.5s-15 -10.5 -25 -10.5s-18.333 3.5 -25 10.5s-10 15.167 -10 24.5c0 10 3.33301 18.5 10 25.5s15 10.5 25 10.5zM279 484c10 0 18.5 -3.5 25.5 -10.5s10.5 -15.5 10.5 -25.5
c0 -9.33301 -3.5 -17.5 -10.5 -24.5s-15.5 -10.5 -25.5 -10.5c-9.33301 0 -17.5 3.5 -24.5 10.5s-10.5 15.167 -10.5 24.5c0 10 3.5 18.5 10.5 25.5s15.167 10.5 24.5 10.5zM225 37c18.667 0 34.667 4.66699 48 14s24.166 21.166 32.499 35.499s14.333 30.333 18 48
s5.5 34.834 5.5 51.501s-1.83301 33.667 -5.5 51s-9.66699 33.333 -18 48s-19.166 26.667 -32.499 36s-29.333 14 -48 14c-19.333 0 -35.5 -4.66699 -48.5 -14s-23.667 -21.333 -32 -36s-14.333 -30.667 -18 -48s-5.5 -34.333 -5.5 -51s1.83301 -33.834 5.5 -51.501
s9.66699 -33.667 18 -48s19 -26.166 32 -35.499s29.167 -14 48.5 -14zM91 73c-10.667 15.333 -18.998 32.6689 -24.998 52.002s-9 39.666 -9 60.999c0 25.333 4.5 49.166 13.5 71.499s21 42 36 59s32.667 30.5 53 40.5s42.166 15 65.499 15c22.667 0 44.167 -5 64.5 -15
s38.166 -23.5 53.499 -40.5s27.333 -36.667 36 -59s13 -46.166 13 -71.499c0 -26 -4.33301 -50.167 -13 -72.5s-20.667 -42 -36 -59s-33.166 -30.333 -53.499 -40s-41.833 -14.5 -64.5 -14.5c-18.667 0 -36.334 3.16699 -53.001 9.5s-32 15.166 -46 26.499l-11 10l-11 12z
" />
    <glyph glyph-name="tehmarbutafinal" unicode="&#x629;" horiz-adv-x="460" arabic-form="final" 
d="M164 410c-10 0 -18.5 3.5 -25.5 10.5s-10.5 15.5 -10.5 25.5c0 9.33301 3.5 17.5 10.5 24.5s15.5 10.5 25.5 10.5c9.33301 0 17.5 -3.5 24.5 -10.5s10.5 -15.167 10.5 -24.5c0 -10 -3.5 -18.5 -10.5 -25.5s-15.167 -10.5 -24.5 -10.5zM272 410
c-9.33301 0 -17.5 3.5 -24.5 10.5s-10.5 15.5 -10.5 25.5c0 9.33301 3.5 17.5 10.5 24.5s15.167 10.5 24.5 10.5c10 0 18.333 -3.5 25 -10.5s10 -15.167 10 -24.5c0 -10 -3.33301 -18.5 -10 -25.5s-15 -10.5 -25 -10.5zM386 185c0 24.667 -4.33496 48.332 -13.002 70.999
s-20.667 42.5 -36 59.5s-33.166 30.5 -53.499 40.5s-41.833 15 -64.5 15c-23.333 0 -45.166 -5 -65.499 -15s-38 -23.5 -53 -40.5s-27 -36.833 -36 -59.5s-13.5 -46.334 -13.5 -71.001c0 -21.333 3 -41.666 9 -60.999s14.333 -36.666 25 -51.999l13 -15l11 -12l11 -10
c29.333 -24 62.333 -36 99 -36c23.333 0 45 4.66699 65 14s37.667 22.666 53 39.999c2 -17.333 8.66699 -30.666 20 -39.999s25 -14 41 -14h64v37c-13.333 0 -24.833 1 -34.5 3s-17.5 7.83301 -23.5 17.5s-10.5 24.5 -13.5 44.5s-4.5 48 -4.5 84zM218.998 35.998
c-19.333 0 -35.5 4.66699 -48.5 14s-23.667 21.166 -32 35.499s-14.333 30.333 -18 48s-5.5 34.834 -5.5 51.501s1.83301 33.667 5.5 51s9.66699 33.333 18 48s19 26.667 32 36s29.167 14 48.5 14c18.667 0 34.667 -4.66699 48 -14s24.166 -21.333 32.499 -36
s14.333 -30.667 18 -48s5.5 -34.333 5.5 -51s-1.83301 -33.834 -5.5 -51.501s-9.66699 -33.667 -18 -48s-19.166 -26.166 -32.499 -35.499s-29.333 -14 -48 -14z" />
    <glyph glyph-name="tehisolated" unicode="&#x62a;" horiz-adv-x="584" arabic-form="isolated" 
d="M222 510c10 0 18.333 -3.5 25 -10.5s10 -15.167 10 -24.5c0 -10 -3.33301 -18.333 -10 -25s-15 -10 -25 -10s-18.333 3.33301 -25 10s-10 15 -10 25c0 9.33301 3.33301 17.5 10 24.5s15 10.5 25 10.5zM330 510c10 0 18.5 -3.5 25.5 -10.5s10.5 -15.167 10.5 -24.5
c0 -10 -3.5 -18.333 -10.5 -25s-15.5 -10 -25.5 -10c-9.33301 0 -17.5 3.33301 -24.5 10s-10.5 15 -10.5 25c0 9.33301 3.5 17.5 10.5 24.5s15.167 10.5 24.5 10.5zM175 0h-58.999c-14.667 -0 -26.834 3.83301 -36.501 11.5s-17.334 16.667 -23.001 27
s-9.66699 21.166 -12 32.499s-3.5 20.666 -3.5 27.999v277l63 -23v-255c0 -8.66699 1 -16.667 3 -24s5.66699 -13.833 11 -19.5s12.5 -10 21.5 -13s20.833 -4.5 35.5 -4.5h204c28.667 0 47.667 5.83301 57 17.5s14 26.167 14 43.5l1 255l62 23v-277
c0 -7.33301 -1.16699 -16.666 -3.5 -27.999s-6.16602 -22.166 -11.499 -32.499s-13 -19.333 -23 -27s-22.333 -11.5 -37 -11.5h-59h-204z" />
    <glyph glyph-name="tehfinal" unicode="&#x62a;" horiz-adv-x="603" arabic-form="final" 
d="M131 0c-15.333 0 -27.834 3.83203 -37.501 11.499s-17.167 16.834 -22.5 27.501s-9.16602 21.5 -11.499 32.5s-3.5 20.167 -3.5 27.5v277l63 -23v-255c0 -8.66699 1 -16.667 3 -24s5.66699 -13.833 11 -19.5s12.5 -10 21.5 -13s20.833 -4.5 35.5 -4.5h202
c28.667 0 47.5 5.83301 56.5 17.5s13.5 26.167 13.5 43.5v255l63 23l1 -278c0 -8.66699 1 -16.667 3 -24s5.5 -13.833 10.5 -19.5s12 -10 21 -13s20.833 -4.5 35.5 -4.5h15v-37h-74c-9.33301 0 -17.5 1.5 -24.5 4.5s-13.167 7.16699 -18.5 12.5
c-5.33301 -5.33301 -11.5 -9.5 -18.5 -12.5s-15.167 -4.5 -24.5 -4.5h-320zM238.999 509.999c10 0 18.333 -3.5 25 -10.5s10 -15.167 10 -24.5c0 -10 -3.33301 -18.333 -10 -25s-15 -10 -25 -10s-18.333 3.33301 -25 10s-10 15 -10 25c0 9.33301 3.33301 17.5 10 24.5
s15 10.5 25 10.5zM346.999 509.999c10 0 18.5 -3.5 25.5 -10.5s10.5 -15.167 10.5 -24.5c0 -10 -3.5 -18.333 -10.5 -25s-15.5 -10 -25.5 -10c-9.33301 0 -17.5 3.33301 -24.5 10s-10.5 15 -10.5 25c0 9.33301 3.5 17.5 10.5 24.5s15.167 10.5 24.5 10.5z" />
    <glyph glyph-name="tehinitial" unicode="&#x62a;" horiz-adv-x="270" arabic-form="initial" 
d="M90 510c10 0 18.333 -3.5 25 -10.5s10 -15.167 10 -24.5c0 -10 -3.33301 -18.333 -10 -25s-15 -10 -25 -10s-18.333 3.33301 -25 10s-10 15 -10 25c0 9.33301 3.33301 17.5 10 24.5s15 10.5 25 10.5zM198 510c10 0 18.5 -3.5 25.5 -10.5s10.5 -15.167 10.5 -24.5
c0 -10 -3.5 -18.333 -10.5 -25s-15.5 -10 -25.5 -10c-9.33301 0 -17.5 3.33301 -24.5 10s-10.5 15 -10.5 25c0 9.33301 3.5 17.5 10.5 24.5s15.167 10.5 24.5 10.5zM-3 37l48.999 -0.00195312c29.333 0 48.5 5.83301 57.5 17.5s13.5 26.167 13.5 43.5v255l63 23v-277
c0 -7.33301 -1.16699 -16.666 -3.5 -27.999s-6.16602 -22.166 -11.499 -32.499s-13 -19.333 -23 -27s-22.333 -11.5 -37 -11.5h-59h-49v37z" />
    <glyph glyph-name="tehmedial" unicode="&#x62a;" horiz-adv-x="281" arabic-form="medial" 
d="M91 510c10 0 18.333 -3.5 25 -10.5s10 -15.167 10 -24.5c0 -10 -3.33301 -18.333 -10 -25s-15 -10 -25 -10s-18.333 3.33301 -25 10s-10 15 -10 25c0 9.33301 3.33301 17.5 10 24.5s15 10.5 25 10.5zM199 510c10 0 18.5 -3.5 25.5 -10.5s10.5 -15.167 10.5 -24.5
c0 -10 -3.5 -18.333 -10.5 -25s-15.5 -10 -25.5 -10c-9.33301 0 -17.5 3.33301 -24.5 10s-10.5 15 -10.5 25c0 9.33301 3.5 17.5 10.5 24.5s15.167 10.5 24.5 10.5zM176 97c0 -8.66699 0.99707 -16.667 2.99707 -24s5.66699 -13.666 11 -18.999s12.5 -9.5 21.5 -12.5
s20.833 -4.5 35.5 -4.5h38v-37h-97c-17.333 0 -31.666 5.66699 -42.999 17c-5.33301 -5.33301 -11.666 -9.5 -18.999 -12.5s-15.666 -4.5 -24.999 -4.5h-106v37h48c28.667 0 47.5 5.66699 56.5 17s13.5 25.666 13.5 42.999v256l63 23v-279z" />
    <glyph glyph-name="thehisolated" unicode="&#x62b;" horiz-adv-x="579" arabic-form="isolated" 
d="M219 510c10 0 18.333 -3.5 25 -10.5s10 -15.167 10 -24.5c0 -10 -3.33301 -18.333 -10 -25s-15 -10 -25 -10s-18.333 3.33301 -25 10s-10 15 -10 25c0 9.33301 3.33301 17.5 10 24.5s15 10.5 25 10.5zM327 510c10 0 18.5 -3.5 25.5 -10.5s10.5 -15.167 10.5 -24.5
c0 -10 -3.5 -18.333 -10.5 -25s-15.5 -10 -25.5 -10c-9.33301 0 -17.5 3.33301 -24.5 10s-10.5 15 -10.5 25c0 9.33301 3.5 17.5 10.5 24.5s15.167 10.5 24.5 10.5zM309 570c0 -9.33301 -3.5 -17.5 -10.5 -24.5s-15.5 -10.5 -25.5 -10.5c-9.33301 0 -17.5 3.5 -24.5 10.5
s-10.5 15.167 -10.5 24.5c0 10 3.5 18.5 10.5 25.5s15.167 10.5 24.5 10.5c10 0 18.5 -3.5 25.5 -10.5s10.5 -15.5 10.5 -25.5zM175 0h-58.999c-14.667 -0 -26.834 3.83301 -36.501 11.5s-17.334 16.667 -23.001 27s-9.66699 21.166 -12 32.499s-3.5 20.666 -3.5 27.999v277
l63 -23v-255c0 -8.66699 1 -16.667 3 -24s5.66699 -13.833 11 -19.5s12.5 -10 21.5 -13s20.833 -4.5 35.5 -4.5h204c28.667 0 47.667 5.83301 57 17.5s14 26.167 14 43.5l1 255l62 23v-277c0 -7.33301 -1.16699 -16.666 -3.5 -27.999s-6.16602 -22.166 -11.499 -32.499
s-13 -19.333 -23 -27s-22.333 -11.5 -37 -11.5h-59h-204z" />
    <glyph glyph-name="thehfinal" unicode="&#x62b;" horiz-adv-x="607" arabic-form="final" 
d="M237 510c10 0 18.333 -3.5 25 -10.5s10 -15.167 10 -24.5c0 -10 -3.33301 -18.333 -10 -25s-15 -10 -25 -10s-18.333 3.33301 -25 10s-10 15 -10 25c0 9.33301 3.33301 17.5 10 24.5s15 10.5 25 10.5zM345 510c10 0 18.5 -3.5 25.5 -10.5s10.5 -15.167 10.5 -24.5
c0 -10 -3.5 -18.333 -10.5 -25s-15.5 -10 -25.5 -10c-9.33301 0 -17.5 3.33301 -24.5 10s-10.5 15 -10.5 25c0 9.33301 3.5 17.5 10.5 24.5s15.167 10.5 24.5 10.5zM327 570c0 -9.33301 -3.5 -17.5 -10.5 -24.5s-15.5 -10.5 -25.5 -10.5c-9.33301 0 -17.5 3.5 -24.5 10.5
s-10.5 15.167 -10.5 24.5c0 10 3.5 18.5 10.5 25.5s15.167 10.5 24.5 10.5c10 0 18.5 -3.5 25.5 -10.5s10.5 -15.5 10.5 -25.5zM131 0c-15.333 0 -27.834 3.83203 -37.501 11.499s-17.167 16.834 -22.5 27.501s-9.16602 21.5 -11.499 32.5s-3.5 20.167 -3.5 27.5v277l63 -23
v-255c0 -8.66699 1 -16.667 3 -24s5.66699 -13.833 11 -19.5s12.5 -10 21.5 -13s20.833 -4.5 35.5 -4.5h202c28.667 0 47.5 5.83301 56.5 17.5s13.5 26.167 13.5 43.5v255l63 23l1 -278c0 -8.66699 1 -16.667 3 -24s5.5 -13.833 10.5 -19.5s12 -10 21 -13
s20.833 -4.5 35.5 -4.5h15v-37h-74c-9.33301 0 -17.5 1.5 -24.5 4.5s-13.167 7.16699 -18.5 12.5c-5.33301 -5.33301 -11.5 -9.5 -18.5 -12.5s-15.167 -4.5 -24.5 -4.5h-320z" />
    <glyph glyph-name="thehinitial" unicode="&#x62b;" horiz-adv-x="287" arabic-form="initial" 
d="M94 510c10 0 18.333 -3.5 25 -10.5s10 -15.167 10 -24.5c0 -10 -3.33301 -18.333 -10 -25s-15 -10 -25 -10s-18.333 3.33301 -25 10s-10 15 -10 25c0 9.33301 3.33301 17.5 10 24.5s15 10.5 25 10.5zM202 510c10 0 18.5 -3.5 25.5 -10.5s10.5 -15.167 10.5 -24.5
c0 -10 -3.5 -18.333 -10.5 -25s-15.5 -10 -25.5 -10c-9.33301 0 -17.5 3.33301 -24.5 10s-10.5 15 -10.5 25c0 9.33301 3.5 17.5 10.5 24.5s15.167 10.5 24.5 10.5zM184 570c0 -9.33301 -3.5 -17.5 -10.5 -24.5s-15.5 -10.5 -25.5 -10.5c-9.33301 0 -17.5 3.5 -24.5 10.5
s-10.5 15.167 -10.5 24.5c0 10 3.5 18.5 10.5 25.5s15.167 10.5 24.5 10.5c10 0 18.5 -3.5 25.5 -10.5s10.5 -15.5 10.5 -25.5zM-3 37l48.999 -0.00195312c29.333 0 48.5 5.83301 57.5 17.5s13.5 26.167 13.5 43.5v255l63 23v-277c0 -7.33301 -1.16699 -16.666 -3.5 -27.999
s-6.16602 -22.166 -11.499 -32.499s-13 -19.333 -23 -27s-22.333 -11.5 -37 -11.5h-59h-49v37z" />
    <glyph glyph-name="thehmedial" unicode="&#x62b;" horiz-adv-x="286" arabic-form="medial" 
d="M92 510c10 0 18.333 -3.5 25 -10.5s10 -15.167 10 -24.5c0 -10 -3.33301 -18.333 -10 -25s-15 -10 -25 -10s-18.333 3.33301 -25 10s-10 15 -10 25c0 9.33301 3.33301 17.5 10 24.5s15 10.5 25 10.5zM200 510c10 0 18.5 -3.5 25.5 -10.5s10.5 -15.167 10.5 -24.5
c0 -10 -3.5 -18.333 -10.5 -25s-15.5 -10 -25.5 -10c-9.33301 0 -17.5 3.33301 -24.5 10s-10.5 15 -10.5 25c0 9.33301 3.5 17.5 10.5 24.5s15.167 10.5 24.5 10.5zM182 570c0 -9.33301 -3.5 -17.5 -10.5 -24.5s-15.5 -10.5 -25.5 -10.5c-9.33301 0 -17.5 3.5 -24.5 10.5
s-10.5 15.167 -10.5 24.5c0 10 3.5 18.5 10.5 25.5s15.167 10.5 24.5 10.5c10 0 18.5 -3.5 25.5 -10.5s10.5 -15.5 10.5 -25.5zM176 97c0 -8.66699 0.99707 -16.667 2.99707 -24s5.66699 -13.666 11 -18.999s12.5 -9.5 21.5 -12.5s20.833 -4.5 35.5 -4.5h43v-37h-102
c-17.333 0 -31.666 5.66699 -42.999 17c-5.33301 -5.33301 -11.666 -9.5 -18.999 -12.5s-15.666 -4.5 -24.999 -4.5h-106v37h48c28.667 0 47.5 5.66699 56.5 17s13.5 25.666 13.5 42.999v256l63 23v-279z" />
    <glyph glyph-name="jeemisolated" unicode="&#x62c;" horiz-adv-x="448" arabic-form="isolated" 
d="M332 -148c-10 0 -18.5 3.5 -25.5 10.5s-10.5 15.167 -10.5 24.5c0 10 3.5 18.5 10.5 25.5s15.5 10.5 25.5 10.5c9.33301 0 17.5 -3.5 24.5 -10.5s10.5 -15.5 10.5 -25.5c0 -9.33301 -3.5 -17.5 -10.5 -24.5s-15.167 -10.5 -24.5 -10.5zM244 -119l5.99902 -29.0039h-49
c-22 0.666992 -43 5 -63 13s-37.5 18.667 -52.5 32s-27 29.333 -36 48s-13.5 39.334 -13.5 62.001v2c0 8 2.83301 14.667 8.5 20s12.5 8 20.5 8h267v49c0 28 -2.66699 56.833 -8 86.5s-14.166 56.5 -26.499 80.5s-28.333 43.833 -48 59.5s-43.5 23.5 -71.5 23.5h-14
c-26 0 -49.333 -7.16699 -70 -21.5s-38 -35.166 -52 -62.499c-2 10.667 -3.66699 19 -5 25s-2.33301 10.333 -3 13s-1 4.16699 -1 4.5v0.5c19.333 24 40 42.667 62 56s45.667 20 71 20h14c30 0 58.333 -7.5 85 -22.5s49.834 -35.333 69.501 -61s35.167 -55.834 46.5 -90.501
s17 -71.667 17 -111v-86h-271c-8 0 -14.667 -3.16699 -20 -9.5s-8 -13.166 -8 -20.499c0 -10.667 2.16699 -21.167 6.5 -31.5s10.666 -19.666 18.999 -27.999s18.333 -15.166 30 -20.499s25.167 -8.33301 40.5 -9h49z" />
    <glyph glyph-name="jeemfinal" unicode="&#x62c;" horiz-adv-x="531" arabic-form="final" 
d="M356 -147c-10 0 -18.333 3.5 -25 10.5s-10 15.167 -10 24.5c0 10 3.33301 18.333 10 25s15 10 25 10s18.333 -3.33301 25 -10s10 -15 10 -25c0 -9.33301 -3.33301 -17.5 -10 -24.5s-15 -10.5 -25 -10.5zM534 0c-35.333 0 -67.001 10.9971 -95.001 32.9971v-33h-294
c-8 0 -14.667 -3.16699 -20 -9.5s-8 -13.166 -8 -20.499c0 -10.667 2.16699 -21.167 6.5 -31.5s10.666 -19.666 18.999 -27.999s18.333 -15.166 30 -20.499s25.167 -8.33301 40.5 -9h49l6 -29h-49c-22 0.666992 -43 5 -63 13s-37.5 18.833 -52.5 32.5s-27 29.834 -36 48.501
s-13.5 39.667 -13.5 63c0 8 2.83301 14.667 8.5 20s12.5 8 20.5 8h290v49c0 28 -2.66699 56.667 -8 86s-14.166 56.166 -26.499 80.499s-28.333 44.333 -48 60s-43.5 23.5 -71.5 23.5h-33c-26.667 0 -50.167 -7.33301 -70.5 -22s-37.5 -35.334 -51.5 -62.001l-10 43h1
c18.667 24 39.167 42.667 61.5 56s46.166 20 71.499 20h33c26.667 0 52 -6.16699 76 -18.5s45.5 -29 64.5 -50s34.833 -45.667 47.5 -74s21.334 -59.166 26.001 -92.499c6 -26 16.833 -49 32.5 -69s37.834 -30 66.501 -30v-37z" />
    <glyph glyph-name="jeeminitial" unicode="&#x62c;" horiz-adv-x="473" arabic-form="initial" 
d="M212 -142c-10 0 -18.333 3.5 -25 10.5s-10 15.167 -10 24.5c0 10 3.33301 18.333 10 25s15 10 25 10c9.33301 0 17.5 -3.33301 24.5 -10s10.5 -15 10.5 -25c0 -9.33301 -3.5 -17.5 -10.5 -24.5s-15.167 -10.5 -24.5 -10.5zM-5 37h355.998v49
c0 28 -2.66699 56.833 -8 86.5s-14.166 56.5 -26.499 80.5s-28.333 43.833 -48 59.5s-43.5 23.5 -71.5 23.5h-14c-26 0 -49.333 -7.16699 -70 -21.5s-38 -35.166 -52 -62.499c-2 10.667 -3.66699 19 -5 25s-2.33301 10.333 -3 13s-1 4.16699 -1 4.5v0.5
c19.333 24 40 42.667 62 56s45.667 20 71 20h14c30 0 58.333 -7.5 85 -22.5s49.834 -35.333 69.501 -61s35.167 -55.834 46.5 -90.501s17 -71.667 17 -111v-86h-422v37z" />
    <glyph glyph-name="jeemmedial" unicode="&#x62c;" horiz-adv-x="511" arabic-form="medial" 
d="M192 -126c-9.33301 0 -17.5 3.5 -24.5 10.5s-10.5 15.5 -10.5 25.5c0 9.33301 3.5 17.5 10.5 24.5s15.167 10.5 24.5 10.5c10 0 18.5 -3.5 25.5 -10.5s10.5 -15.167 10.5 -24.5c0 -10 -3.5 -18.5 -10.5 -25.5s-15.5 -10.5 -25.5 -10.5zM415 136
c2.66699 -12.667 6.66406 -24.999 11.9971 -36.999s12 -22.5 20 -31.5s17.5 -16.333 28.5 -22s23.833 -8.5 38.5 -8.5v-37c-17.333 0 -34.166 3 -50.499 9s-31.5 14.333 -45.5 25v-34h-422v37h356v49c0 28 -2.66699 56.833 -8 86.5s-14.166 56.5 -26.499 80.5
s-28.333 43.833 -48 59.5s-43.5 23.5 -71.5 23.5h-14c-26 0 -49.333 -7.16699 -70 -21.5s-38 -35.166 -52 -62.499l-6.5 34c-1 5.33301 -1.83301 8.66602 -2.5 9.99902c19.333 23.333 40 41.666 62 54.999s45.667 20 71 20h14c26.667 0 52.167 -6 76.5 -18
s46 -28.5 65 -49.5s34.833 -45.833 47.5 -74.5s21.334 -59.667 26.001 -93zM52.9971 296.001v-1v1z" />
    <glyph glyph-name="hahisolated" unicode="&#x62d;" horiz-adv-x="448" arabic-form="isolated" 
d="M244 -119l5.99902 -29.0039h-49c-22 0.666992 -43 5 -63 13s-37.5 18.833 -52.5 32.5s-27 29.834 -36 48.501s-13.5 39.667 -13.5 63c0 8 2.83301 14.667 8.5 20s12.5 8 20.5 8h267v49c0 28 -2.66699 56.833 -8 86.5s-14.166 56.5 -26.499 80.5s-28.333 43.833 -48 59.5
s-43.5 23.5 -71.5 23.5h-14c-26 0 -49.333 -7.16699 -70 -21.5s-38 -35.166 -52 -62.499c-2 10.667 -3.66699 19 -5 25s-2.33301 10.333 -3 13s-1 4.16699 -1 4.5v0.5c19.333 24 40 42.667 62 56s45.667 20 71 20h14c30 0 58.333 -7.5 85 -22.5s49.834 -35.333 69.501 -61
s35.167 -55.834 46.5 -90.501s17 -71.667 17 -111v-86h-271c-8 0 -14.667 -3.16699 -20 -9.5s-8 -13.166 -8 -20.499c0 -10.667 2.16699 -21.167 6.5 -31.5s10.666 -19.666 18.999 -27.999s18.333 -15.166 30 -20.499s25.167 -8.33301 40.5 -9h49z" />
    <glyph glyph-name="hahfinal" unicode="&#x62d;" horiz-adv-x="531" arabic-form="final" 
d="M534 0c-35.333 0 -67.001 10.9971 -95.001 32.9971v-33h-294c-8 0 -14.667 -3.16699 -20 -9.5s-8 -13.166 -8 -20.499c0 -10.667 2.16699 -21.167 6.5 -31.5s10.666 -19.666 18.999 -27.999s18.333 -15.166 30 -20.499s25.167 -8.33301 40.5 -9h49l6 -29h-49
c-22 0.666992 -43 5 -63 13s-37.5 18.833 -52.5 32.5s-27 29.834 -36 48.501s-13.5 39.667 -13.5 63c0 8 2.83301 14.667 8.5 20s12.5 8 20.5 8h290v49c0 28 -2.66699 56.667 -8 86s-14.166 56.166 -26.499 80.499s-28.333 44.333 -48 60s-43.5 23.5 -71.5 23.5h-33
c-26.667 0 -50.167 -7.33301 -70.5 -22s-37.5 -35.334 -51.5 -62.001l-9 43c18.667 24 39.167 42.667 61.5 56s46.166 20 71.499 20h33c26.667 0 52 -6.16699 76 -18.5s45.5 -29 64.5 -50s34.833 -45.667 47.5 -74s21.334 -59.166 26.001 -92.499c6 -26 16.833 -49 32.5 -69
s37.834 -30 66.501 -30v-37z" />
    <glyph glyph-name="hahinitial" unicode="&#x62d;" horiz-adv-x="473" arabic-form="initial" 
d="M-5 37h355.998v49c0 28 -2.66699 56.833 -8 86.5s-14.166 56.5 -26.499 80.5s-28.333 43.833 -48 59.5s-43.5 23.5 -71.5 23.5h-14c-26 0 -49.333 -7.16699 -70 -21.5s-38 -35.166 -52 -62.499c-2 10.667 -3.66699 19 -5 25s-2.33301 10.333 -3 13s-1 4.16699 -1 4.5v0.5
c19.333 24 40 42.667 62 56s45.667 20 71 20h14c30 0 58.333 -7.5 85 -22.5s49.834 -35.333 69.501 -61s35.167 -55.834 46.5 -90.501s17 -71.667 17 -111v-86h-422v37z" />
    <glyph glyph-name="hahmedial" unicode="&#x62d;" horiz-adv-x="512" arabic-form="medial" 
d="M415 136c2.66699 -12.667 6.66406 -24.999 11.9971 -36.999s12 -22.5 20 -31.5s17.5 -16.333 28.5 -22s23.833 -8.5 38.5 -8.5v-37c-17.333 0 -34.166 3 -50.499 9s-31.5 14.333 -45.5 25v-34h-422v37h356v49c0 28 -2.66699 56.833 -8 86.5s-14.166 56.5 -26.499 80.5
s-28.333 43.833 -48 59.5s-43.5 23.5 -71.5 23.5h-14c-26 0 -49.333 -7.16699 -70 -21.5s-38 -35.166 -52 -62.499l-6.5 34c-1 5.33301 -1.83301 8.66602 -2.5 9.99902c19.333 23.333 40 41.666 62 54.999s45.667 20 71 20h14c26.667 0 52.167 -6 76.5 -18
s46 -28.5 65 -49.5s34.833 -45.833 47.5 -74.5s21.334 -59.667 26.001 -93zM52.9971 296.001v-1v1z" />
    <glyph glyph-name="khahisolated" unicode="&#x62e;" horiz-adv-x="448" arabic-form="isolated" 
d="M209 482c0 -9.33301 -3.5 -17.5 -10.5 -24.5s-15.5 -10.5 -25.5 -10.5c-9.33301 0 -17.5 3.5 -24.5 10.5s-10.5 15.167 -10.5 24.5c0 10 3.5 18.333 10.5 25s15.167 10 24.5 10c10 0 18.5 -3.33301 25.5 -10s10.5 -15 10.5 -25zM195 -119
c-15.333 0.666992 -28.832 3.6709 -40.499 9.00391s-21.667 12.166 -30 20.499s-14.666 17.666 -18.999 27.999s-6.5 20.833 -6.5 31.5c0 7.33301 2.66699 14.166 8 20.499s12 9.5 20 9.5h271v86c0 39.333 -5.66699 76.333 -17 111s-26.833 64.834 -46.5 90.501
s-42.834 46 -69.501 61s-55 22.5 -85 22.5h-14c-25.333 0 -49 -6.66699 -71 -20s-42.667 -32 -62 -56v-0.5c0 -0.333008 0.333008 -1.83301 1 -4.5s1.66699 -7 3 -13s3 -14.333 5 -25c14 27.333 31.333 48.166 52 62.499s44 21.5 70 21.5h14
c28 0 51.833 -7.83301 71.5 -23.5s35.667 -35.5 48 -59.5s21.166 -50.833 26.499 -80.5s8 -58.5 8 -86.5v-49h-267c-8 0 -14.833 -2.66699 -20.5 -8s-8.5 -12 -8.5 -20v-2c0 -22.667 4.5 -43.334 13.5 -62.001s21 -34.667 36 -48s32.5 -24 52.5 -32s41 -12.333 63 -13h49
l-6 29h-49z" />
    <glyph glyph-name="khahfinal" unicode="&#x62e;" horiz-adv-x="531" arabic-form="final" 
d="M250 482c0 -9.33301 -3.5 -17.5 -10.5 -24.5s-15.5 -10.5 -25.5 -10.5c-9.33301 0 -17.5 3.5 -24.5 10.5s-10.5 15.167 -10.5 24.5c0 10 3.5 18.333 10.5 25s15.167 10 24.5 10c10 0 18.5 -3.33301 25.5 -10s10.5 -15 10.5 -25zM534 37
c-28.667 0 -50.833 10.0029 -66.5 30.0029s-26.5 43 -32.5 69c-4.66699 33.333 -13.334 64.166 -26.001 92.499s-28.5 53 -47.5 74s-40.5 37.667 -64.5 50s-49.333 18.5 -76 18.5h-33c-25.333 0 -49.166 -6.66699 -71.499 -20s-42.833 -32 -61.5 -56l9 -43
c14 26.667 31.167 47.334 51.5 62.001s43.833 22 70.5 22h33c28 0 51.833 -7.83301 71.5 -23.5s35.667 -35.667 48 -60s21.166 -51.166 26.499 -80.499s8 -58 8 -86v-49h-290c-8 0 -14.833 -2.66699 -20.5 -8s-8.5 -12 -8.5 -20c0 -23.333 4.5 -44.333 13.5 -63
s21 -34.834 36 -48.501s32.5 -24.5 52.5 -32.5s41 -12.333 63 -13h49l-6 29h-49c-15.333 0.666992 -28.833 3.66699 -40.5 9s-21.667 12.166 -30 20.499s-14.666 17.666 -18.999 27.999s-6.5 20.833 -6.5 31.5c0 7.33301 2.66699 14.166 8 20.499s12 9.5 20 9.5h294v33
c28 -22 59.667 -33 95 -33v37z" />
    <glyph glyph-name="khahinitial" unicode="&#x62e;" horiz-adv-x="473" arabic-form="initial" 
d="M228 482c0 -9.33301 -3.5 -17.5 -10.5 -24.5s-15.5 -10.5 -25.5 -10.5c-9.33301 0 -17.5 3.5 -24.5 10.5s-10.5 15.167 -10.5 24.5c0 10 3.5 18.333 10.5 25s15.167 10 24.5 10c10 0 18.5 -3.33301 25.5 -10s10.5 -15 10.5 -25zM-5 0h422.002v86
c0 39.333 -5.66699 76.333 -17 111s-26.833 64.834 -46.5 90.501s-42.834 46 -69.501 61s-55 22.5 -85 22.5h-14c-25.333 0 -49 -6.66699 -71 -20s-42.667 -32 -62 -56v-0.5c0 -0.333008 0.333008 -1.83301 1 -4.5s1.66699 -7 3 -13s3 -14.333 5 -25
c14 27.333 31.333 48.166 52 62.499s44 21.5 70 21.5h14c28 0 51.833 -7.83301 71.5 -23.5s35.667 -35.5 48 -59.5s21.166 -50.833 26.499 -80.5s8 -58.5 8 -86.5v-49h-356v-37z" />
    <glyph glyph-name="khahmedial" unicode="&#x62e;" horiz-adv-x="511" arabic-form="medial" 
d="M228 482c0 -9.33301 -3.5 -17.5 -10.5 -24.5s-15.5 -10.5 -25.5 -10.5c-9.33301 0 -17.5 3.5 -24.5 10.5s-10.5 15.167 -10.5 24.5c0 10 3.5 18.333 10.5 25s15.167 10 24.5 10c10 0 18.5 -3.33301 25.5 -10s10.5 -15 10.5 -25zM415 136
c-4.66699 33.333 -13.3311 64.332 -25.998 92.999s-28.5 53.5 -47.5 74.5s-40.667 37.5 -65 49.5s-49.833 18 -76.5 18h-14c-25.333 0 -49 -6.66699 -71 -20s-42.667 -31.666 -62 -54.999c0.666992 -1.33301 1.5 -4.66602 2.5 -9.99902l6.5 -34
c14 27.333 31.333 48.166 52 62.499s44 21.5 70 21.5h14c28 0 51.833 -7.83301 71.5 -23.5s35.667 -35.5 48 -59.5s21.166 -50.833 26.499 -80.5s8 -58.5 8 -86.5v-49h-356v-37h422v34c14 -10.667 29.167 -19 45.5 -25s33.166 -9 50.499 -9v37
c-14.667 0 -27.5 2.83301 -38.5 8.5s-20.5 13 -28.5 22s-14.667 19.5 -20 31.5s-9.33301 24.333 -12 37zM53.0029 294.999v1v-1z" />
    <glyph glyph-name="dalisolated" unicode="&#x62f;" horiz-adv-x="385" arabic-form="isolated" 
d="M306 99l-6.49316 -13.0029c-1.66699 -3.33301 -3.5 -6.5 -5.5 -9.5s-4.33301 -6.16699 -7 -9.5s-6.33398 -7.66602 -11.001 -12.999c-14.667 -16 -31.834 -28.833 -51.501 -38.5s-40.5 -14.834 -62.5 -15.501h-124v37h121c18.667 0 34.667 4.66699 48 14
s24.166 21.166 32.499 35.499s14.166 30.333 17.499 48s5 34.834 5 51.501s-1.83301 33.834 -5.5 51.501s-9.5 33.834 -17.5 48.501s-18.667 26.667 -32 36s-29.333 14 -48 14c-15.333 0 -30.5 -1.83301 -45.5 -5.5s-27.167 -12.167 -36.5 -25.5v43
c11.333 9.33301 25.166 16 41.499 20s32.166 5.33301 47.499 4c22 -1.33301 42.833 -7.16602 62.5 -17.499s36.667 -23.833 51 -40.5s25.666 -36 33.999 -58s12.5 -45.333 12.5 -70c0 -15.333 -1.83301 -30.333 -5.5 -45s-8.5 -28.667 -14.5 -42z" />
    <glyph glyph-name="dalfinal" unicode="&#x62f;" horiz-adv-x="392" arabic-form="final" 
d="M306 99c8 -17.333 19.5039 -32.0029 34.5039 -44.0029s33.167 -18 54.5 -18v-37c-23.333 0 -45.166 4.83301 -65.499 14.5s-38.166 22.834 -53.499 39.501c-14.667 -16 -31.834 -28.833 -51.501 -38.5s-40.5 -14.834 -62.5 -15.501h-124v37h121
c18.667 0 34.667 4.66699 48 14s24.166 21.166 32.499 35.499s14.166 30.333 17.499 48s5 34.834 5 51.501s-1.83301 33.834 -5.5 51.501s-9.5 33.834 -17.5 48.501s-18.667 26.667 -32 36s-29.333 14 -48 14c-15.333 0 -30.5 -1.83301 -45.5 -5.5
s-27.167 -12.167 -36.5 -25.5v43c11.333 9.33301 25.166 16 41.499 20s32.166 5.33301 47.499 4c22 -1.33301 42.833 -7.16602 62.5 -17.499s36.667 -23.833 51 -40.5s25.666 -36 33.999 -58s12.5 -45.333 12.5 -70c0 -15.333 -1.83301 -30.333 -5.5 -45
s-8.5 -28.667 -14.5 -42z" />
    <glyph glyph-name="thalisolated" unicode="&#x630;" horiz-adv-x="373" arabic-form="isolated" 
d="M202 482c0 -9.33301 -3.5 -17.5 -10.5 -24.5s-15.5 -10.5 -25.5 -10.5c-9.33301 0 -17.5 3.5 -24.5 10.5s-10.5 15.167 -10.5 24.5c0 10 3.5 18.333 10.5 25s15.167 10 24.5 10c10 0 18.5 -3.33301 25.5 -10s10.5 -15 10.5 -25zM306 99
c6 13.333 10.8262 27.3359 14.4932 42.0029s5.5 29.667 5.5 45c0 24.667 -4.16699 48 -12.5 70s-19.666 41.333 -33.999 58s-31.333 30.167 -51 40.5s-40.5 16.166 -62.5 17.499c-15.333 1.33301 -31.166 0 -47.499 -4s-30.166 -10.667 -41.499 -20v-43
c9.33301 13.333 21.5 21.833 36.5 25.5s30.167 5.5 45.5 5.5c18.667 0 34.667 -4.66699 48 -14s24 -21.333 32 -36s13.833 -30.834 17.5 -48.501s5.5 -34.834 5.5 -51.501s-1.66699 -33.834 -5 -51.501s-9.16602 -33.667 -17.499 -48s-19.166 -26.166 -32.499 -35.499
s-29.333 -14 -48 -14h-121v-37h124c22 0.666992 42.833 5.83398 62.5 15.501s36.834 22.5 51.501 38.5c4.66699 5.33301 8.33398 9.66602 11.001 12.999s5 6.5 7 9.5s3.83301 6.16699 5.5 9.5z" />
    <glyph glyph-name="thalfinal" unicode="&#x630;" horiz-adv-x="391" arabic-form="final" 
d="M203 482c0 -9.33301 -3.5 -17.5 -10.5 -24.5s-15.5 -10.5 -25.5 -10.5c-9.33301 0 -17.5 3.5 -24.5 10.5s-10.5 15.167 -10.5 24.5c0 10 3.5 18.333 10.5 25s15.167 10 24.5 10c10 0 18.5 -3.33301 25.5 -10s10.5 -15 10.5 -25zM306 99
c6 13.333 10.8291 27.3359 14.4961 42.0029s5.5 29.667 5.5 45c0 24.667 -4.16699 48 -12.5 70s-19.666 41.333 -33.999 58s-31.333 30.167 -51 40.5s-40.5 16.166 -62.5 17.499c-15.333 1.33301 -31.166 0 -47.499 -4s-30.166 -10.667 -41.499 -20v-43
c9.33301 13.333 21.5 21.833 36.5 25.5s30.167 5.5 45.5 5.5c18.667 0 34.667 -4.66699 48 -14s24 -21.333 32 -36s13.833 -30.834 17.5 -48.501s5.5 -34.834 5.5 -51.501s-1.66699 -33.834 -5 -51.501s-9.16602 -33.667 -17.499 -48s-19.166 -26.166 -32.499 -35.499
s-29.333 -14 -48 -14h-121v-37h124c22 0.666992 42.833 5.83398 62.5 15.501s36.834 22.5 51.501 38.5c15.333 -16.667 33.166 -29.834 53.499 -39.501s42.166 -14.5 65.499 -14.5v37c-21.333 0 -39.5 6 -54.5 18s-26.5 26.667 -34.5 44z" />
    <glyph glyph-name="rehisolated" unicode="&#x631;" horiz-adv-x="263" arabic-form="isolated" 
d="M214 375l0.000976562 -345c0 -22 -4.5 -43.667 -13.5 -65s-21 -40.166 -36 -56.499s-32.5 -29.666 -52.5 -39.999s-46.333 -15.833 -79 -16.5l6 29c25.333 0.666992 44 5.5 56 14.5s22.167 19.667 30.5 32s14.666 25.166 18.999 38.499s6.5 24.666 6.5 33.999v353z" />
    <glyph glyph-name="rehfinal" unicode="&#x631;" horiz-adv-x="284" arabic-form="final" 
d="M197 93c1.33301 -16.667 8.50098 -30.165 21.501 -40.498s35.833 -15.5 68.5 -15.5v-37h-71c-8 0 -15 5 -21 15c-3.33301 -28 -10 -51 -20 -69s-22.167 -34 -36.5 -48s-30.5 -25.167 -48.5 -33.5s-37 -12.5 -57 -12.5l5 29c14.667 0.666992 28 5.5 40 14.5
s22.167 19.667 30.5 32s14.666 25.166 18.999 38.499s6.5 24.666 6.5 33.999v353l63 22v-282z" />
    <glyph glyph-name="zainisolated" unicode="&#x632;" horiz-adv-x="274" arabic-form="isolated" 
d="M164 449c-10 0 -18.333 3.5 -25 10.5s-10 15.5 -10 25.5c0 9.33301 3.33301 17.5 10 24.5s15 10.5 25 10.5s18.333 -3.5 25 -10.5s10 -15.167 10 -24.5c0 -10 -3.33301 -18.5 -10 -25.5s-15 -10.5 -25 -10.5zM214 375l0.000976562 -345c0 -22 -4.5 -43.667 -13.5 -65
s-21 -40.166 -36 -56.499s-32.5 -29.666 -52.5 -39.999s-46.333 -15.833 -79 -16.5l6 29c25.333 0.666992 44 5.5 56 14.5s22.167 19.667 30.5 32s14.666 25.166 18.999 38.499s6.5 24.666 6.5 33.999v353z" />
    <glyph glyph-name="zainfinal" unicode="&#x632;" horiz-adv-x="277" arabic-form="final" 
d="M197 93c1.33301 -16.667 8.50098 -30.165 21.501 -40.498s33.5 -15.5 61.5 -15.5v-37h-64c-8 0 -15 5 -21 15c-3.33301 -28 -10 -51 -20 -69s-22.167 -34 -36.5 -48s-30.5 -25.167 -48.5 -33.5s-37 -12.5 -57 -12.5l5 29c14.667 0.666992 28 5.5 40 14.5
s22.167 19.667 30.5 32s14.666 25.166 18.999 38.499s6.5 24.666 6.5 33.999v353l63 22v-282zM165.001 450.002c-9.33301 0 -17.5 3.5 -24.5 10.5s-10.5 15.167 -10.5 24.5c0 10 3.5 18.5 10.5 25.5s15.167 10.5 24.5 10.5c10 0 18.5 -3.5 25.5 -10.5s10.5 -15.5 10.5 -25.5
c0 -9.33301 -3.5 -17.5 -10.5 -24.5s-15.5 -10.5 -25.5 -10.5z" />
    <glyph glyph-name="seenisolated" unicode="&#x633;" horiz-adv-x="875" arabic-form="isolated" 
d="M822 98c0 -13.333 -3.5 -28.3359 -10.5 -45.0029s-14.167 -28.667 -21.5 -36c-11.333 -11.333 -25.666 -17 -42.999 -17h-137c-17.333 0 -31.666 5.66699 -42.999 17c-11.333 -11.333 -25.666 -17 -42.999 -17h-152c-4 -21.333 -11 -40.833 -21 -58.5
s-22.333 -33 -37 -46s-31.167 -23.167 -49.5 -30.5s-37.5 -11 -57.5 -11c-21.333 0 -41.5 4.33301 -60.5 13s-35.833 20.334 -50.5 35.001s-26.834 31.834 -36.501 51.501s-15.834 40.5 -18.501 62.5l62 24c0 -16.667 1.83301 -33.834 5.5 -51.501s9.66699 -33.667 18 -48
s19 -26.166 32 -35.499s29.167 -14 48.5 -14c18.667 0 34.667 4.33301 48 13s24.166 20 32.499 34s14.333 29.5 18 46.5s5.5 33.833 5.5 50.5l-1 318l65 22l-1 -278c0 -8.66699 1 -16.667 3 -24s5.66699 -13.666 11 -18.999s12.5 -9.5 21.5 -12.5s20.833 -4.5 35.5 -4.5h20
c28.667 0 47.5 5.66699 56.5 17s13.5 25.666 13.5 42.999v256l64 22v-278c0 -8.66699 1 -16.667 3 -24s5.5 -13.666 10.5 -18.999s12 -9.5 21 -12.5s20.833 -4.5 35.5 -4.5h19c28.667 0 47.667 5.83301 57 17.5s14 26.167 14 43.5l-1 255l64 22v-277z" />
    <glyph glyph-name="seenfinal" unicode="&#x633;" horiz-adv-x="904" arabic-form="final" 
d="M907 37l-0.000976562 -37.0039h-74c-17.333 0 -31.666 5.66699 -42.999 17c-11.333 -11.333 -25.666 -17 -42.999 -17h-137c-17.333 0 -31.666 5.66699 -42.999 17c-11.333 -11.333 -25.666 -17 -42.999 -17h-152c-4 -21.333 -11 -40.833 -21 -58.5s-22.333 -33 -37 -46
s-31.167 -23.167 -49.5 -30.5s-37.5 -11 -57.5 -11c-21.333 0 -41.5 4.33301 -60.5 13s-35.833 20.334 -50.5 35.001s-26.834 31.834 -36.501 51.501s-15.834 40.5 -18.501 62.5l62 24c0 -16.667 1.83301 -33.834 5.5 -51.501s9.66699 -33.667 18 -48s19 -26.166 32 -35.499
s29.167 -14 48.5 -14c18.667 0 34.667 4.33301 48 13s24.166 20 32.499 34s14.333 29.5 18 46.5s5.5 33.833 5.5 50.5l-1 318l65 22l-1 -278c0 -8.66699 1 -16.667 3 -24s5.66699 -13.666 11 -18.999s12.5 -9.5 21.5 -12.5s20.833 -4.5 35.5 -4.5h20
c28.667 0 47.5 5.66699 56.5 17s13.5 25.666 13.5 42.999v256l64 22v-278c0 -8.66699 1 -16.667 3 -24s5.5 -13.666 10.5 -18.999s12 -9.5 21 -12.5s20.833 -4.5 35.5 -4.5h19c28.667 0 47.667 5.83301 57 17.5s14 26.167 14 43.5l-1 255l64 22v-278
c0 -17.333 4.5 -31.666 13.5 -42.999s27.833 -17 56.5 -17h15z" />
    <glyph glyph-name="seeninitial" unicode="&#x633;" horiz-adv-x="669" arabic-form="initial" 
d="M616 375l-0.00292969 -276.002c0 -7.33301 -1.16699 -16.666 -3.5 -27.999s-6.33301 -22.166 -12 -32.499s-13.334 -19.333 -23.001 -27s-21.834 -11.5 -36.501 -11.5h-137c-17.333 0 -31.666 5.66699 -42.999 17c-5.33301 -5.33301 -11.666 -9.5 -18.999 -12.5
s-15.666 -4.5 -24.999 -4.5h-137c-9.33301 0 -17.666 1.5 -24.999 4.5s-13.666 7.16699 -18.999 12.5c-5.33301 -5.33301 -11.5 -9.5 -18.5 -12.5s-15.167 -4.5 -24.5 -4.5h-97v37h38c14.667 0 26.5 1.5 35.5 4.5s16.167 7.16699 21.5 12.5s9 11.666 11 18.999
s3 15.333 3 24v256l63 22v-278c0 -8.66699 1 -16.667 3 -24s5.66699 -13.666 11 -18.999s12.5 -9.5 21.5 -12.5s20.833 -4.5 35.5 -4.5h20c28.667 0 47.5 5.66699 56.5 17s13.5 25.666 13.5 42.999v256l63 22v-278c0 -8.66699 1 -16.667 3 -24s5.66699 -13.666 11 -18.999
s12.5 -9.5 21.5 -12.5s20.833 -4.5 35.5 -4.5h19c28.667 0 47.5 5.83301 56.5 17.5s13.5 26.167 13.5 43.5v255z" />
    <glyph glyph-name="seenmedial" unicode="&#x633;" horiz-adv-x="696" arabic-form="medial" 
d="M188 0c-9.33301 0 -17.668 1.50098 -25.001 4.50098s-13.666 7.16699 -18.999 12.5c-5.33301 -5.33301 -11.5 -9.5 -18.5 -12.5s-15.167 -4.5 -24.5 -4.5h-104v37h45c14.667 0 26.5 1.5 35.5 4.5s16.167 7.16699 21.5 12.5s9 11.666 11 18.999s3 15.333 3 24l-1 256
l64 22v-278c0 -16 3.66699 -29.5 11 -40.5s22.333 -17.5 45 -19.5h33c28.667 0 47.5 5.83301 56.5 17.5s13.5 26.167 13.5 43.5v256l64 22v-278c0 -8.66699 1 -16.667 3 -24s5.5 -13.833 10.5 -19.5s12 -10 21 -13s20.833 -4.5 35.5 -4.5h20
c28.667 0 47.5 5.83301 56.5 17.5s13.5 26.167 13.5 43.5v255l64 23v-278c0 -17.333 4.5 -31.833 13.5 -43.5s27.833 -17.5 56.5 -17.5h7v-37h-66c-9.33301 0 -17.5 1.66699 -24.5 5s-13.167 7.66602 -18.5 12.999c-5.33301 -5.33301 -11.5 -9.66602 -18.5 -12.999
s-15.167 -5 -24.5 -5h-138c-9.33301 0 -17.5 1.66699 -24.5 5s-13.167 7.66602 -18.5 12.999c-5.33301 -5.33301 -11.5 -9.66602 -18.5 -12.999s-15.167 -5 -24.5 -5h-136z" />
    <glyph glyph-name="sheenisolated" unicode="&#x634;" horiz-adv-x="874" arabic-form="isolated" 
d="M513 510c10 0 18.333 -3.5 25 -10.5s10 -15.167 10 -24.5c0 -10 -3.33301 -18.333 -10 -25s-15 -10 -25 -10s-18.333 3.33301 -25 10s-10 15 -10 25c0 9.33301 3.33301 17.5 10 24.5s15 10.5 25 10.5zM621 510c10 0 18.5 -3.5 25.5 -10.5s10.5 -15.167 10.5 -24.5
c0 -10 -3.5 -18.333 -10.5 -25s-15.5 -10 -25.5 -10c-9.33301 0 -17.5 3.33301 -24.5 10s-10.5 15 -10.5 25c0 9.33301 3.5 17.5 10.5 24.5s15.167 10.5 24.5 10.5zM603 570c0 -9.33301 -3.5 -17.5 -10.5 -24.5s-15.5 -10.5 -25.5 -10.5c-9.33301 0 -17.5 3.5 -24.5 10.5
s-10.5 15.167 -10.5 24.5c0 10 3.5 18.5 10.5 25.5s15.167 10.5 24.5 10.5c10 0 18.5 -3.5 25.5 -10.5s10.5 -15.5 10.5 -25.5zM822 375l-64 -21.9971l1 -255c0 -17.333 -4.66699 -31.833 -14 -43.5s-28.333 -17.5 -57 -17.5h-19c-14.667 0 -26.5 1.5 -35.5 4.5
s-16 7.16699 -21 12.5s-8.5 11.666 -10.5 18.999s-3 15.333 -3 24v278l-64 -22v-256c0 -17.333 -4.5 -31.666 -13.5 -42.999s-27.833 -17 -56.5 -17h-20c-14.667 0 -26.5 1.5 -35.5 4.5s-16.167 7.16699 -21.5 12.5s-9 11.666 -11 18.999s-3 15.333 -3 24l1 278l-65 -22
l1 -318c0 -16.667 -1.83301 -33.5 -5.5 -50.5s-9.66699 -32.5 -18 -46.5s-19.166 -25.333 -32.499 -34s-29.333 -13 -48 -13c-19.333 0 -35.5 4.66699 -48.5 14s-23.667 21.166 -32 35.499s-14.333 30.333 -18 48s-5.5 34.834 -5.5 51.501l-62 -24
c2.66699 -22 8.83398 -42.833 18.501 -62.5s21.834 -36.834 36.501 -51.501s31.5 -26.334 50.5 -35.001s39.167 -13 60.5 -13c20 0 39.167 3.66699 57.5 11s34.833 17.5 49.5 30.5s27 28.333 37 46s17 37.167 21 58.5h152c17.333 0 31.666 5.66699 42.999 17
c11.333 -11.333 25.666 -17 42.999 -17h137c17.333 0 31.666 5.66699 42.999 17c7.33301 7.33301 14.5 19.333 21.5 36s10.5 31.667 10.5 45v277z" />
    <glyph glyph-name="sheenfinal" unicode="&#x634;" horiz-adv-x="904" arabic-form="final" 
d="M514 510c10 0 18.333 -3.5 25 -10.5s10 -15.167 10 -24.5c0 -10 -3.33301 -18.333 -10 -25s-15 -10 -25 -10s-18.333 3.33301 -25 10s-10 15 -10 25c0 9.33301 3.33301 17.5 10 24.5s15 10.5 25 10.5zM622 510c10 0 18.5 -3.5 25.5 -10.5s10.5 -15.167 10.5 -24.5
c0 -10 -3.5 -18.333 -10.5 -25s-15.5 -10 -25.5 -10c-9.33301 0 -17.5 3.33301 -24.5 10s-10.5 15 -10.5 25c0 9.33301 3.5 17.5 10.5 24.5s15.167 10.5 24.5 10.5zM604 570c0 -9.33301 -3.5 -17.5 -10.5 -24.5s-15.5 -10.5 -25.5 -10.5c-9.33301 0 -17.5 3.5 -24.5 10.5
s-10.5 15.167 -10.5 24.5c0 10 3.5 18.5 10.5 25.5s15.167 10.5 24.5 10.5c10 0 18.5 -3.5 25.5 -10.5s10.5 -15.5 10.5 -25.5zM892 37c-28.667 0 -47.499 5.6709 -56.499 17.0039s-13.5 25.666 -13.5 42.999v278l-64 -22l1 -255c0 -17.333 -4.66699 -31.833 -14 -43.5
s-28.333 -17.5 -57 -17.5h-19c-14.667 0 -26.5 1.5 -35.5 4.5s-16 7.16699 -21 12.5s-8.5 11.666 -10.5 18.999s-3 15.333 -3 24v278l-64 -22v-256c0 -17.333 -4.5 -31.666 -13.5 -42.999s-27.833 -17 -56.5 -17h-20c-14.667 0 -26.5 1.5 -35.5 4.5
s-16.167 7.16699 -21.5 12.5s-9 11.666 -11 18.999s-3 15.333 -3 24l1 278l-65 -22l1 -318c0 -16.667 -1.83301 -33.5 -5.5 -50.5s-9.66699 -32.5 -18 -46.5s-19.166 -25.333 -32.499 -34s-29.333 -13 -48 -13c-19.333 0 -35.5 4.66699 -48.5 14s-23.667 21.166 -32 35.499
s-14.333 30.333 -18 48s-5.5 34.834 -5.5 51.501l-62 -24c2.66699 -22 8.83398 -42.833 18.501 -62.5s21.834 -36.834 36.501 -51.501s31.5 -26.334 50.5 -35.001s39.167 -13 60.5 -13c20 0 39.167 3.66699 57.5 11s34.833 17.5 49.5 30.5s27 28.333 37 46
s17 37.167 21 58.5h152c17.333 0 31.666 5.66699 42.999 17c11.333 -11.333 25.666 -17 42.999 -17h137c17.333 0 31.666 5.66699 42.999 17c11.333 -11.333 25.666 -17 42.999 -17h74v37h-15z" />
    <glyph glyph-name="sheeninitial" unicode="&#x634;" horiz-adv-x="679" arabic-form="initial" 
d="M307 510c10 0 18.333 -3.5 25 -10.5s10 -15.167 10 -24.5c0 -10 -3.33301 -18.333 -10 -25s-15 -10 -25 -10s-18.333 3.33301 -25 10s-10 15 -10 25c0 9.33301 3.33301 17.5 10 24.5s15 10.5 25 10.5zM415 510c10 0 18.5 -3.5 25.5 -10.5s10.5 -15.167 10.5 -24.5
c0 -10 -3.5 -18.333 -10.5 -25s-15.5 -10 -25.5 -10c-9.33301 0 -17.5 3.33301 -24.5 10s-10.5 15 -10.5 25c0 9.33301 3.5 17.5 10.5 24.5s15.167 10.5 24.5 10.5zM397 570c0 -9.33301 -3.5 -17.5 -10.5 -24.5s-15.5 -10.5 -25.5 -10.5c-9.33301 0 -17.5 3.5 -24.5 10.5
s-10.5 15.167 -10.5 24.5c0 10 3.5 18.5 10.5 25.5s15.167 10.5 24.5 10.5c10 0 18.5 -3.5 25.5 -10.5s10.5 -15.5 10.5 -25.5zM616 375l-0.00292969 -276.002c0 -7.33301 -1.16699 -16.666 -3.5 -27.999s-6.33301 -22.166 -12 -32.499s-13.334 -19.333 -23.001 -27
s-21.834 -11.5 -36.501 -11.5h-137c-17.333 0 -31.666 5.66699 -42.999 17c-5.33301 -5.33301 -11.666 -9.5 -18.999 -12.5s-15.666 -4.5 -24.999 -4.5h-137c-9.33301 0 -17.666 1.5 -24.999 4.5s-13.666 7.16699 -18.999 12.5c-5.33301 -5.33301 -11.5 -9.5 -18.5 -12.5
s-15.167 -4.5 -24.5 -4.5h-97v37h38c14.667 0 26.5 1.5 35.5 4.5s16.167 7.16699 21.5 12.5s9 11.666 11 18.999s3 15.333 3 24v256l63 22v-278c0 -8.66699 1 -16.667 3 -24s5.66699 -13.666 11 -18.999s12.5 -9.5 21.5 -12.5s20.833 -4.5 35.5 -4.5h20
c28.667 0 47.5 5.66699 56.5 17s13.5 25.666 13.5 42.999v256l63 22v-278c0 -8.66699 1 -16.667 3 -24s5.66699 -13.666 11 -18.999s12.5 -9.5 21.5 -12.5s20.833 -4.5 35.5 -4.5h19c28.667 0 47.5 5.83301 56.5 17.5s13.5 26.167 13.5 43.5v255z" />
    <glyph glyph-name="sheenmedial" unicode="&#x634;" horiz-adv-x="696" arabic-form="medial" 
d="M188 0c-9.33301 0 -17.668 1.50098 -25.001 4.50098s-13.666 7.16699 -18.999 12.5c-5.33301 -5.33301 -11.5 -9.5 -18.5 -12.5s-15.167 -4.5 -24.5 -4.5h-104v37h45c14.667 0 26.5 1.5 35.5 4.5s16.167 7.16699 21.5 12.5s9 11.666 11 18.999s3 15.333 3 24l-1 256
l64 22v-278c0 -16 3.66699 -29.5 11 -40.5s22.333 -17.5 45 -19.5h33c28.667 0 47.5 5.83301 56.5 17.5s13.5 26.167 13.5 43.5v256l64 22v-278c0 -8.66699 1 -16.667 3 -24s5.5 -13.833 10.5 -19.5s12 -10 21 -13s20.833 -4.5 35.5 -4.5h20
c28.667 0 47.5 5.83301 56.5 17.5s13.5 26.167 13.5 43.5v255l64 23v-278c0 -17.333 4.5 -31.833 13.5 -43.5s27.833 -17.5 56.5 -17.5h7v-37h-66c-9.33301 0 -17.5 1.66699 -24.5 5s-13.167 7.66602 -18.5 12.999c-5.33301 -5.33301 -11.5 -9.66602 -18.5 -12.999
s-15.167 -5 -24.5 -5h-138c-9.33301 0 -17.5 1.66699 -24.5 5s-13.167 7.66602 -18.5 12.999c-5.33301 -5.33301 -11.5 -9.66602 -18.5 -12.999s-15.167 -5 -24.5 -5h-136zM312.998 510.001c10 0 18.333 -3.5 25 -10.5s10 -15.167 10 -24.5c0 -10 -3.33301 -18.333 -10 -25
s-15 -10 -25 -10s-18.333 3.33301 -25 10s-10 15 -10 25c0 9.33301 3.33301 17.5 10 24.5s15 10.5 25 10.5zM420.998 510.001c10 0 18.5 -3.5 25.5 -10.5s10.5 -15.167 10.5 -24.5c0 -10 -3.5 -18.333 -10.5 -25s-15.5 -10 -25.5 -10c-9.33301 0 -17.5 3.33301 -24.5 10
s-10.5 15 -10.5 25c0 9.33301 3.5 17.5 10.5 24.5s15.167 10.5 24.5 10.5zM402.998 570.001c0 -9.33301 -3.5 -17.5 -10.5 -24.5s-15.5 -10.5 -25.5 -10.5c-9.33301 0 -17.5 3.5 -24.5 10.5s-10.5 15.167 -10.5 24.5c0 10 3.5 18.5 10.5 25.5s15.167 10.5 24.5 10.5
c10 0 18.5 -3.5 25.5 -10.5s10.5 -15.5 10.5 -25.5z" />
    <glyph glyph-name="sadisolated" unicode="&#x635;" horiz-adv-x="842" arabic-form="isolated" 
d="M790 91c-2.66699 -6.66699 -7.49805 -15.166 -14.498 -25.499s-15 -20.333 -24 -30s-18.5 -18 -28.5 -25s-19.333 -10.5 -28 -10.5h-311c-4 -21.333 -11 -41 -21 -59s-22.333 -33.667 -37 -47s-31.167 -23.833 -49.5 -31.5s-37.5 -11.5 -57.5 -11.5
c-21.333 0 -41.5 4.33301 -60.5 13s-35.833 20.334 -50.5 35.001s-26.834 31.834 -36.501 51.501s-15.834 40.5 -18.501 62.5l62 24c0 -16.667 1.83301 -33.834 5.5 -51.501s9.66699 -33.667 18 -48s19 -26.166 32 -35.499s29.167 -14 48.5 -14
c18.667 0 34.667 4.66699 48 14s24.166 21.166 32.499 35.499s14.333 30.166 18 47.499s5.5 34.333 5.5 51v317l60 23l1 -41l20.5 13.5c7.66699 5 16.667 9.5 27 13.5s22.5 7.5 36.5 10.5s30 4.5 48 4.5h122c23.333 0 45.333 -5 66 -15s38.667 -23.5 54 -40.5
s27.5 -37 36.5 -60s13.5 -47.167 13.5 -72.5c0 -16.667 -1.16699 -33.834 -3.5 -51.501s-7.16602 -33.167 -14.499 -46.5zM638.002 38.001c19.333 0 35.667 4.66602 49 13.999s24.333 21.333 33 36s14.834 30.834 18.501 48.501s5.5 35.167 5.5 52.5
c0 16.667 -1.83301 34 -5.5 52s-9.83398 34.333 -18.501 49s-19.667 26.667 -33 36s-29.666 14 -48.999 14h-112c-26 0 -48 -4 -66 -12s-32.5 -18.667 -43.5 -32s-18.833 -28.5 -23.5 -45.5s-7 -34.167 -7 -51.5v-103c0 -17.333 4.66699 -31.5 14 -42.5
s28.666 -16.5 57.999 -16.5z" />
    <glyph glyph-name="sadfinal" unicode="&#x635;" horiz-adv-x="848" arabic-form="final" 
d="M786 97c-2 -4.66699 -3.33008 -10.501 -3.99707 -17.501s1 -13.667 5 -20s10.833 -11.666 20.5 -15.999s24.167 -6.5 43.5 -6.5v-37h-69c-18 -0 -32.667 5.33301 -44 16c-10.667 -10.667 -25 -16 -43 -16h-311c-4 -21.333 -11 -41 -21 -59s-22.333 -33.667 -37 -47
s-31.167 -23.833 -49.5 -31.5s-37.5 -11.5 -57.5 -11.5c-21.333 0 -41.5 4.33301 -60.5 13s-35.833 20.334 -50.5 35.001s-26.834 31.834 -36.501 51.501s-15.834 40.5 -18.501 62.5l62 24c0 -16.667 1.83301 -33.834 5.5 -51.501s9.66699 -33.667 18 -48
s19 -26.166 32 -35.499s29.167 -14 48.5 -14c18.667 0 34.667 4.66699 48 14s24.166 21.166 32.499 35.499s14.333 30.166 18 47.499s5.5 34.333 5.5 51v317l60 23l1 -41l20.5 13.5c7.66699 5 16.667 9.5 27 13.5s22.5 7.5 36.5 10.5s30 4.5 48 4.5h122
c23.333 0 45.333 -5 66 -15s38.667 -23.5 54 -40.5s27.5 -37 36.5 -60s13.5 -47.167 13.5 -72.5c0 -33.333 -7.33301 -64 -22 -92zM638.003 37.999c19.333 0 35.667 4.66602 49 13.999s24.333 21.333 33 36s14.834 30.834 18.501 48.501s5.5 35.167 5.5 52.5
c0 16.667 -1.83301 34 -5.5 52s-9.83398 34.333 -18.501 49s-19.667 26.667 -33 36s-29.666 14 -48.999 14h-112c-26 0 -48 -4 -66 -12s-32.5 -18.667 -43.5 -32s-18.833 -28.5 -23.5 -45.5s-7 -34.167 -7 -51.5v-103c0 -17.333 4.66699 -31.5 14 -42.5
s28.666 -16.5 57.999 -16.5z" />
    <glyph glyph-name="sadinitial" unicode="&#x635;" horiz-adv-x="640" arabic-form="initial" 
d="M417 378c23.333 0 45.332 -5 65.999 -15s38.667 -23.667 54 -41s27.5 -37.5 36.5 -60.5s13.5 -47.167 13.5 -72.5c0 -26 -4.5 -50.5 -13.5 -73.5s-21.167 -43 -36.5 -60s-33.333 -30.5 -54 -40.5s-42.667 -15 -66 -15h-239c-17.333 0 -31.666 5.66699 -42.999 17
c-11.333 -11.333 -26 -17 -44 -17h-95v37h36c28.667 0 47.5 5.5 56.5 16.5s13.5 25.167 13.5 42.5v257l60 23l1 -41l20.5 13.5c7.66699 5 16.667 9.66699 27 14s22.5 8 36.5 11s30 4.5 48 4.5h122zM416.999 37c19.333 0 35.667 4.66699 49 14s24.333 21.5 33 36.5
s14.834 31.333 18.501 49s5.5 35.167 5.5 52.5c0 16.667 -1.83301 34 -5.5 52s-9.83398 34.333 -18.501 49s-19.667 26.667 -33 36s-29.666 14 -48.999 14h-112c-26 0 -48 -4 -66 -12s-32.5 -18.667 -43.5 -32s-18.833 -28.5 -23.5 -45.5s-7 -34.167 -7 -51.5v-103
c0 -17.333 4.66699 -31.5 14 -42.5s28.666 -16.5 57.999 -16.5h180z" />
    <glyph glyph-name="sadmedial" unicode="&#x635;" horiz-adv-x="661" arabic-form="medial" 
d="M180 0c-17.333 0 -31.668 5.66699 -43.001 17c-11.333 -11.333 -26 -17 -44 -17h-96v37h37c28.667 0 47.5 5.5 56.5 16.5s13.5 25.167 13.5 42.5v258l60 23l1 -42l20.5 13.5c7.66699 5 16.667 9.5 27 13.5s22.5 7.5 36.5 10.5s30 4.5 48 4.5h122
c23.333 0 45.333 -5 66 -15s38.667 -23.5 54 -40.5s27.5 -37 36.5 -60s13.5 -47.167 13.5 -72.5c0 -33.333 -7.33301 -64 -22 -92c-3.33301 -6.66699 -3.66602 -13.5 -0.999023 -20.5s8.16699 -13.5 16.5 -19.5s19.333 -10.833 33 -14.5s30.167 -5.5 49.5 -5.5v-37h-102
c-18 -0 -32.667 5.33301 -44 16c-10.667 -10.667 -25 -16 -43 -16h-296zM166.998 96c0 -17.333 4.66797 -31.5 14.001 -42.5s28.666 -16.5 57.999 -16.5h180c19.333 0 35.666 4.66699 48.999 14s24.333 21.5 33 36.5s14.834 31.333 18.501 49s5.5 35.167 5.5 52.5
c0 16.667 -1.83301 34 -5.5 52s-9.83398 34.333 -18.501 49s-19.667 26.667 -33 36s-29.666 14 -48.999 14h-112c-26 0 -48 -4 -66 -12s-32.5 -18.667 -43.5 -32s-18.833 -28.5 -23.5 -45.5s-7 -34.167 -7 -51.5v-103z" />
    <glyph glyph-name="dadisolated" unicode="&#x636;" horiz-adv-x="855" arabic-form="isolated" 
d="M517 448c-10 0 -18.5 3.5 -25.5 10.5s-10.5 15.167 -10.5 24.5c0 10 3.5 18.333 10.5 25s15.5 10 25.5 10c9.33301 0 17.5 -3.33301 24.5 -10s10.5 -15 10.5 -25c0 -9.33301 -3.5 -17.5 -10.5 -24.5s-15.167 -10.5 -24.5 -10.5zM790 91
c7.33301 13.333 12.1641 28.832 14.4971 46.499s3.5 34.834 3.5 51.501c0 25.333 -4.5 49.5 -13.5 72.5s-21.167 43 -36.5 60s-33.333 30.5 -54 40.5s-42.667 15 -66 15h-122c-18 0 -34 -1.5 -48 -4.5s-26.167 -6.5 -36.5 -10.5s-19.333 -8.5 -27 -13.5l-20.5 -13.5l-1 41
l-60 -23v-317c0 -16.667 -1.83301 -33.667 -5.5 -51s-9.66699 -33.166 -18 -47.499s-19.166 -26.166 -32.499 -35.499s-29.333 -14 -48 -14c-19.333 0 -35.5 4.66699 -48.5 14s-23.667 21.166 -32 35.499s-14.333 30.333 -18 48s-5.5 34.834 -5.5 51.501l-62 -24
c2.66699 -22 8.83398 -42.833 18.501 -62.5s21.834 -36.834 36.501 -51.501s31.5 -26.334 50.5 -35.001s39.167 -13 60.5 -13c20 0 39.167 3.83301 57.5 11.5s34.833 18.167 49.5 31.5s27 29 37 47s17 37.667 21 59h311c8.66699 0 18 3.5 28 10.5s19.5 15.333 28.5 25
s17 19.667 24 30s11.833 18.833 14.5 25.5zM637.998 37.999l-180.001 -0.999023c-29.333 0 -48.666 5.5 -57.999 16.5s-14 25.167 -14 42.5v103c0 17.333 2.33301 34.5 7 51.5s12.5 32.167 23.5 45.5s25.5 24 43.5 32s40 12 66 12h112c19.333 0 35.666 -4.66699 48.999 -14
s24.333 -21.333 33 -36s14.834 -31 18.501 -49s5.5 -35.333 5.5 -52c0 -17.333 -1.83301 -34.833 -5.5 -52.5s-9.83398 -33.834 -18.501 -48.501s-19.667 -26.667 -33 -36s-29.666 -14 -48.999 -14z" />
    <glyph glyph-name="dadfinal" unicode="&#x636;" horiz-adv-x="847" arabic-form="final" 
d="M516 448c-10 0 -18.5 3.5 -25.5 10.5s-10.5 15.167 -10.5 24.5c0 10 3.5 18.333 10.5 25s15.5 10 25.5 10c9.33301 0 17.5 -3.33301 24.5 -10s10.5 -15 10.5 -25c0 -9.33301 -3.5 -17.5 -10.5 -24.5s-15.167 -10.5 -24.5 -10.5zM786 97
c14.667 28 21.9971 58.668 21.9971 92.001c0 25.333 -4.5 49.5 -13.5 72.5s-21.167 43 -36.5 60s-33.333 30.5 -54 40.5s-42.667 15 -66 15h-122c-18 0 -34 -1.5 -48 -4.5s-26.167 -6.5 -36.5 -10.5s-19.333 -8.5 -27 -13.5l-20.5 -13.5l-1 41l-60 -23v-317
c0 -16.667 -1.83301 -33.667 -5.5 -51s-9.66699 -33.166 -18 -47.499s-19.166 -26.166 -32.499 -35.499s-29.333 -14 -48 -14c-19.333 0 -35.5 4.66699 -48.5 14s-23.667 21.166 -32 35.499s-14.333 30.333 -18 48s-5.5 34.834 -5.5 51.501l-62 -24
c2.66699 -22 8.83398 -42.833 18.501 -62.5s21.834 -36.834 36.501 -51.501s31.5 -26.334 50.5 -35.001s39.167 -13 60.5 -13c20 0 39.167 3.83301 57.5 11.5s34.833 18.167 49.5 31.5s27 29 37 47s17 37.667 21 59h311c18 0 32.333 5.33301 43 16
c11.333 -10.667 26 -16 44 -16h69v37c-19.333 0 -33.833 2.16699 -43.5 6.5s-16.5 9.66602 -20.5 15.999s-5.66699 13 -5 20s2 12.833 4 17.5zM637.997 38.001l-180.001 -0.999023c-29.333 0 -48.666 5.5 -57.999 16.5s-14 25.167 -14 42.5v103
c0 17.333 2.33301 34.5 7 51.5s12.5 32.167 23.5 45.5s25.5 24 43.5 32s40 12 66 12h112c19.333 0 35.666 -4.66699 48.999 -14s24.333 -21.333 33 -36s14.834 -31 18.501 -49s5.5 -35.333 5.5 -52c0 -17.333 -1.83301 -34.833 -5.5 -52.5s-9.83398 -33.834 -18.501 -48.501
s-19.667 -26.667 -33 -36s-29.666 -14 -48.999 -14z" />
    <glyph glyph-name="dadinitial" unicode="&#x636;" horiz-adv-x="639" arabic-form="initial" 
d="M296 457c-10 0 -18.5 3.5 -25.5 10.5s-10.5 15.5 -10.5 25.5c0 9.33301 3.5 17.5 10.5 24.5s15.5 10.5 25.5 10.5c9.33301 0 17.5 -3.5 24.5 -10.5s10.5 -15.167 10.5 -24.5c0 -10 -3.5 -18.5 -10.5 -25.5s-15.167 -10.5 -24.5 -10.5zM417 378h-121.999
c-18 0 -34 -1.5 -48 -4.5s-26.167 -6.66699 -36.5 -11s-19.333 -9 -27 -14l-20.5 -13.5l-1 41l-60 -23v-257c0 -17.333 -4.5 -31.5 -13.5 -42.5s-27.833 -16.5 -56.5 -16.5h-36v-37h95c18 0 32.667 5.66699 44 17c11.333 -11.333 25.666 -17 42.999 -17h239
c23.333 0 45.333 5 66 15s38.667 23.5 54 40.5s27.5 37 36.5 60s13.5 47.5 13.5 73.5c0 25.333 -4.5 49.5 -13.5 72.5s-21.167 43.167 -36.5 60.5s-33.333 31 -54 41s-42.667 15 -66 15zM237.001 37c-29.333 0 -48.667 5.5 -58 16.5s-14 25.167 -14 42.5v103
c0 17.333 2.33301 34.5 7 51.5s12.5 32.167 23.5 45.5s25.5 24 43.5 32s40 12 66 12h112c19.333 0 35.666 -4.66699 48.999 -14s24.333 -21.333 33 -36s14.834 -31 18.501 -49s5.5 -35.333 5.5 -52c0 -17.333 -1.83301 -34.833 -5.5 -52.5s-9.83398 -34 -18.501 -49
s-19.667 -27.167 -33 -36.5s-29.666 -14 -48.999 -14h-180z" />
    <glyph glyph-name="dadmedial" unicode="&#x636;" horiz-adv-x="671" arabic-form="medial" 
d="M308 457c-10 0 -18.5 3.5 -25.5 10.5s-10.5 15.5 -10.5 25.5c0 9.33301 3.5 17.5 10.5 24.5s15.5 10.5 25.5 10.5c9.33301 0 17.5 -3.5 24.5 -10.5s10.5 -15.167 10.5 -24.5c0 -10 -3.5 -18.5 -10.5 -25.5s-15.167 -10.5 -24.5 -10.5zM486 0
c18 0 32.335 5.33301 43.002 16c11.333 -10.667 26 -16 44 -16h102v37c-19.333 0 -35.833 1.83301 -49.5 5.5s-24.667 8.5 -33 14.5s-13.833 12.5 -16.5 19.5s-2.33398 13.833 0.999023 20.5c14.667 28 22 58.667 22 92c0 25.333 -4.5 49.5 -13.5 72.5s-21.167 43 -36.5 60
s-33.333 30.5 -54 40.5s-42.667 15 -66 15h-122c-18 0 -34 -1.5 -48 -4.5s-26.167 -6.5 -36.5 -10.5s-19.333 -8.5 -27 -13.5l-20.5 -13.5l-1 42l-60 -23v-258c0 -17.333 -4.5 -31.5 -13.5 -42.5s-27.833 -16.5 -56.5 -16.5h-47v-37h106c18 0 32.667 5.66699 44 17
c11.333 -11.333 25.666 -17 42.999 -17h296zM177.002 96l-0.000976562 103c0 17.333 2.33301 34.5 7 51.5s12.5 32.167 23.5 45.5s25.5 24 43.5 32s40 12 66 12h112c19.333 0 35.666 -4.66699 48.999 -14s24.333 -21.333 33 -36s14.834 -31 18.501 -49s5.5 -35.333 5.5 -52
c0 -17.333 -1.83301 -34.833 -5.5 -52.5s-9.83398 -34 -18.501 -49s-19.667 -27.167 -33 -36.5s-29.666 -14 -48.999 -14h-180c-29.333 0 -48.666 5.5 -57.999 16.5s-14 25.167 -14 42.5z" />
    <glyph glyph-name="tahisolated" unicode="&#x637;" horiz-adv-x="667" arabic-form="isolated" 
d="M446 377c23.333 0 45.332 -5 65.999 -15s38.667 -23.5 54 -40.5s27.5 -37 36.5 -60s13.5 -47.167 13.5 -72.5c0 -26 -4.5 -50.5 -13.5 -73.5s-21.167 -43 -36.5 -60s-33.333 -30.5 -54 -40.5s-42.667 -15 -66 -15h-239c-17.333 0 -31.666 5.66699 -42.999 17
c-11.333 -11.333 -26 -17 -44 -17h-67v37h8c28.667 0 47.5 5.5 56.5 16.5s13.5 25.167 13.5 42.5v445l60 23l1 -229l20.5 13.5c7.66699 5 16.667 9.5 27 13.5s22.5 7.5 36.5 10.5s30 4.5 48 4.5h122zM445.999 37c19.333 0 35.667 4.66699 49 14s24.333 21.5 33 36.5
s14.834 31.333 18.501 49s5.5 35.167 5.5 52.5c0 16.667 -1.83301 34 -5.5 52s-9.83398 34.333 -18.501 49s-19.667 26.667 -33 36s-29.666 14 -48.999 14h-112c-26 0 -48 -4 -66 -12s-32.5 -18.667 -43.5 -32s-18.833 -28.5 -23.5 -45.5s-7 -34.167 -7 -51.5v-103
c0 -17.333 4.66699 -31.5 14 -42.5s28.666 -16.5 57.999 -16.5h180z" />
    <glyph glyph-name="tahfinal" unicode="&#x637;" horiz-adv-x="690" arabic-form="final" 
d="M208 0c-17.333 0 -31.668 5.66699 -43.001 17c-11.333 -11.333 -26 -17 -44 -17h-85v37h26c28.667 0 47.5 5.5 56.5 16.5s13.5 25.167 13.5 42.5v444l60 23l1 -228l20.5 13.5c7.66699 5 16.667 9.5 27 13.5s22.5 7.5 36.5 10.5s30 4.5 48 4.5h122
c23.333 0 45.333 -5 66 -15s38.667 -23.5 54 -40.5s27.5 -37 36.5 -60s13.5 -47.167 13.5 -72.5c0 -33.333 -7.33301 -64 -22 -92c-3.33301 -6.66699 -3.66602 -13.5 -0.999023 -20.5s8.16699 -13.5 16.5 -19.5s19.333 -10.833 33 -14.5s30.167 -5.5 49.5 -5.5v-37h-102
c-18 -0 -32.667 5.33301 -44 16c-10.667 -10.667 -25 -16 -43 -16h-296zM194.998 96c0 -17.333 4.66797 -31.5 14.001 -42.5s28.666 -16.5 57.999 -16.5h180c19.333 0 35.666 4.66699 48.999 14s24.333 21.5 33 36.5s14.834 31.333 18.501 49s5.5 35.167 5.5 52.5
c0 16.667 -1.83301 34 -5.5 52s-9.83398 34.333 -18.501 49s-19.667 26.667 -33 36s-29.666 14 -48.999 14h-112c-26 0 -48 -4 -66 -12s-32.5 -18.667 -43.5 -32s-18.833 -28.5 -23.5 -45.5s-7 -34.167 -7 -51.5v-103z" />
    <glyph glyph-name="tahinitial" unicode="&#x637;" horiz-adv-x="660" arabic-form="initial" 
d="M436 377c23.333 0 45.332 -5 65.999 -15s38.667 -23.5 54 -40.5s27.5 -37 36.5 -60s13.5 -47.167 13.5 -72.5c0 -26 -4.5 -50.5 -13.5 -73.5s-21.167 -43 -36.5 -60s-33.333 -30.5 -54 -40.5s-42.667 -15 -66 -15h-239c-17.333 0 -31.666 5.66699 -42.999 17
c-11.333 -11.333 -26 -17 -44 -17h-114v37h55c28.667 0 47.5 5.5 56.5 16.5s13.5 25.167 13.5 42.5v445l60 23l1 -229l20.5 13.5c7.66699 5 16.667 9.5 27 13.5s22.5 7.5 36.5 10.5s30 4.5 48 4.5h122zM435.999 37c19.333 0 35.667 4.66699 49 14s24.333 21.5 33 36.5
s14.834 31.333 18.501 49s5.5 35.167 5.5 52.5c0 16.667 -1.83301 34 -5.5 52s-9.83398 34.333 -18.501 49s-19.667 26.667 -33 36s-29.666 14 -48.999 14h-112c-26 0 -48 -4 -66 -12s-32.5 -18.667 -43.5 -32s-18.833 -28.5 -23.5 -45.5s-7 -34.167 -7 -51.5v-103
c0 -17.333 4.66699 -31.5 14 -42.5s28.666 -16.5 57.999 -16.5h180z" />
    <glyph glyph-name="tahmedial" unicode="&#x637;" horiz-adv-x="679" arabic-form="medial" 
d="M197 0c-17.333 0 -31.668 5.66699 -43.001 17c-11.333 -11.333 -26 -17 -44 -17h-113v37h54c28.667 0 47.5 5.5 56.5 16.5s13.5 25.167 13.5 42.5v445l60 23l1 -229l20.5 13.5c7.66699 5 16.667 9.5 27 13.5s22.5 7.5 36.5 10.5s30 4.5 48 4.5h122
c23.333 0 45.333 -5 66 -15s38.667 -23.5 54 -40.5s27.5 -37 36.5 -60s13.5 -47.167 13.5 -72.5c0 -33.333 -7.33301 -64 -22 -92c-3.33301 -6.66699 -3.66602 -13.5 -0.999023 -20.5s8.16699 -13.5 16.5 -19.5s19.333 -10.833 33 -14.5s30.167 -5.5 49.5 -5.5v-37h-102
c-18 -0 -32.667 5.33301 -44 16c-10.667 -10.667 -25 -16 -43 -16h-296zM183.998 96c0 -17.333 4.66797 -31.5 14.001 -42.5s28.666 -16.5 57.999 -16.5h180c19.333 0 35.666 4.66699 48.999 14s24.333 21.5 33 36.5s14.834 31.333 18.501 49s5.5 35.167 5.5 52.5
c0 16.667 -1.83301 34 -5.5 52s-9.83398 34.333 -18.501 49s-19.667 26.667 -33 36s-29.666 14 -48.999 14h-112c-26 0 -48 -4 -66 -12s-32.5 -18.667 -43.5 -32s-18.833 -28.5 -23.5 -45.5s-7 -34.167 -7 -51.5v-103z" />
    <glyph glyph-name="zahisolated" unicode="&#x638;" horiz-adv-x="661" arabic-form="isolated" 
d="M342 455c-9.33301 0 -17.5 3.33301 -24.5 10s-10.5 15 -10.5 25c0 9.33301 3.5 17.5 10.5 24.5s15.167 10.5 24.5 10.5c10 0 18.333 -3.5 25 -10.5s10 -15.167 10 -24.5c0 -10 -3.33301 -18.333 -10 -25s-15 -10 -25 -10zM436 377c23.333 0 45.332 -5 65.999 -15
s38.667 -23.5 54 -40.5s27.5 -37 36.5 -60s13.5 -47.167 13.5 -72.5c0 -26 -4.5 -50.5 -13.5 -73.5s-21.167 -43 -36.5 -60s-33.333 -30.5 -54 -40.5s-42.667 -15 -66 -15h-239c-17.333 0 -31.666 5.66699 -42.999 17c-11.333 -11.333 -26 -17 -44 -17h-67v37h8
c28.667 0 47.5 5.5 56.5 16.5s13.5 25.167 13.5 42.5v445l60 23l1 -229l20.5 13.5c7.66699 5 16.667 9.5 27 13.5s22.5 7.5 36.5 10.5s30 4.5 48 4.5h122zM435.999 37c19.333 0 35.667 4.66699 49 14s24.333 21.5 33 36.5s14.834 31.333 18.501 49s5.5 35.167 5.5 52.5
c0 16.667 -1.83301 34 -5.5 52s-9.83398 34.333 -18.501 49s-19.667 26.667 -33 36s-29.666 14 -48.999 14h-112c-26 0 -48 -4 -66 -12s-32.5 -18.667 -43.5 -32s-18.833 -28.5 -23.5 -45.5s-7 -34.167 -7 -51.5v-103c0 -17.333 4.66699 -31.5 14 -42.5
s28.666 -16.5 57.999 -16.5h180z" />
    <glyph glyph-name="zahfinal" unicode="&#x638;" horiz-adv-x="682" arabic-form="final" 
d="M337 455c-9.33301 0 -17.5 3.33301 -24.5 10s-10.5 15 -10.5 25c0 9.33301 3.5 17.5 10.5 24.5s15.167 10.5 24.5 10.5c10 0 18.333 -3.5 25 -10.5s10 -15.167 10 -24.5c0 -10 -3.33301 -18.333 -10 -25s-15 -10 -25 -10zM201 0c-17.333 0 -31.668 5.66699 -43.001 17
c-11.333 -11.333 -26 -17 -44 -17h-85v37h26c28.667 0 47.5 5.5 56.5 16.5s13.5 25.167 13.5 42.5v444l60 23l1 -228l20.5 13.5c7.66699 5 16.667 9.5 27 13.5s22.5 7.5 36.5 10.5s30 4.5 48 4.5h122c23.333 0 45.333 -5 66 -15s38.667 -23.5 54 -40.5s27.5 -37 36.5 -60
s13.5 -47.167 13.5 -72.5c0 -33.333 -7.33301 -64 -22 -92c-3.33301 -6.66699 -3.66602 -13.5 -0.999023 -20.5s8.16699 -13.5 16.5 -19.5s19.333 -10.833 33 -14.5s30.167 -5.5 49.5 -5.5v-37h-102c-18 -0 -32.667 5.33301 -44 16c-10.667 -10.667 -25 -16 -43 -16h-296z
M187.998 96c0 -17.333 4.66797 -31.5 14.001 -42.5s28.666 -16.5 57.999 -16.5h180c19.333 0 35.666 4.66699 48.999 14s24.333 21.5 33 36.5s14.834 31.333 18.501 49s5.5 35.167 5.5 52.5c0 16.667 -1.83301 34 -5.5 52s-9.83398 34.333 -18.501 49s-19.667 26.667 -33 36
s-29.666 14 -48.999 14h-112c-26 0 -48 -4 -66 -12s-32.5 -18.667 -43.5 -32s-18.833 -28.5 -23.5 -45.5s-7 -34.167 -7 -51.5v-103z" />
    <glyph glyph-name="zahinitial" unicode="&#x638;" horiz-adv-x="660" arabic-form="initial" 
d="M344 455c-9.33301 0 -17.5 3.33301 -24.5 10s-10.5 15 -10.5 25c0 9.33301 3.5 17.5 10.5 24.5s15.167 10.5 24.5 10.5c10 0 18.333 -3.5 25 -10.5s10 -15.167 10 -24.5c0 -10 -3.33301 -18.333 -10 -25s-15 -10 -25 -10zM436 377c23.333 0 45.332 -5 65.999 -15
s38.667 -23.5 54 -40.5s27.5 -37 36.5 -60s13.5 -47.167 13.5 -72.5c0 -26 -4.5 -50.5 -13.5 -73.5s-21.167 -43 -36.5 -60s-33.333 -30.5 -54 -40.5s-42.667 -15 -66 -15h-239c-17.333 0 -31.666 5.66699 -42.999 17c-11.333 -11.333 -26 -17 -44 -17h-114v37h55
c28.667 0 47.5 5.5 56.5 16.5s13.5 25.167 13.5 42.5v445l60 23l1 -229l20.5 13.5c7.66699 5 16.667 9.5 27 13.5s22.5 7.5 36.5 10.5s30 4.5 48 4.5h122zM435.999 37c19.333 0 35.667 4.66699 49 14s24.333 21.5 33 36.5s14.834 31.333 18.501 49s5.5 35.167 5.5 52.5
c0 16.667 -1.83301 34 -5.5 52s-9.83398 34.333 -18.501 49s-19.667 26.667 -33 36s-29.666 14 -48.999 14h-112c-26 0 -48 -4 -66 -12s-32.5 -18.667 -43.5 -32s-18.833 -28.5 -23.5 -45.5s-7 -34.167 -7 -51.5v-103c0 -17.333 4.66699 -31.5 14 -42.5
s28.666 -16.5 57.999 -16.5h180z" />
    <glyph glyph-name="zahmedial" unicode="&#x638;" horiz-adv-x="679" arabic-form="medial" 
d="M372 455c-9.33301 0 -17.5 3.33301 -24.5 10s-10.5 15 -10.5 25c0 9.33301 3.5 17.5 10.5 24.5s15.167 10.5 24.5 10.5c10 0 18.333 -3.5 25 -10.5s10 -15.167 10 -24.5c0 -10 -3.33301 -18.333 -10 -25s-15 -10 -25 -10zM197 0c-17.333 0 -31.668 5.66699 -43.001 17
c-11.333 -11.333 -26 -17 -44 -17h-113v37h54c28.667 0 47.5 5.5 56.5 16.5s13.5 25.167 13.5 42.5v445l60 23l1 -229l20.5 13.5c7.66699 5 16.667 9.5 27 13.5s22.5 7.5 36.5 10.5s30 4.5 48 4.5h122c23.333 0 45.333 -5 66 -15s38.667 -23.5 54 -40.5s27.5 -37 36.5 -60
s13.5 -47.167 13.5 -72.5c0 -33.333 -7.33301 -64 -22 -92c-3.33301 -6.66699 -3.66602 -13.5 -0.999023 -20.5s8.16699 -13.5 16.5 -19.5s19.333 -10.833 33 -14.5s30.167 -5.5 49.5 -5.5v-37h-102c-18 -0 -32.667 5.33301 -44 16c-10.667 -10.667 -25 -16 -43 -16h-296z
M183.998 96c0 -17.333 4.66797 -31.5 14.001 -42.5s28.666 -16.5 57.999 -16.5h180c19.333 0 35.666 4.66699 48.999 14s24.333 21.5 33 36.5s14.834 31.333 18.501 49s5.5 35.167 5.5 52.5c0 16.667 -1.83301 34 -5.5 52s-9.83398 34.333 -18.501 49s-19.667 26.667 -33 36
s-29.666 14 -48.999 14h-112c-26 0 -48 -4 -66 -12s-32.5 -18.667 -43.5 -32s-18.833 -28.5 -23.5 -45.5s-7 -34.167 -7 -51.5v-103z" />
    <glyph glyph-name="ainisolated" unicode="&#x639;" horiz-adv-x="509" arabic-form="isolated" 
d="M460 37l-0.00195312 -37.0029h-325c-7.33301 -0.666992 -13.666 -4 -18.999 -10s-8 -12.667 -8 -20c0 -10.667 2.16699 -21.167 6.5 -31.5s10.666 -19.666 18.999 -27.999s18.333 -15.166 30 -20.499s25.167 -8.33301 40.5 -9h112l6 -29h-112c-22 0.666992 -43 5 -63 13
s-37.5 18.667 -52.5 32s-27 29.333 -36 48s-13.5 39.334 -13.5 62.001v2c0 8 2.83301 14.667 8.5 20s12.5 8 20.5 8h25c-1.33301 8 -2.33301 16 -3 24s-1 16.333 -1 25c0 39.333 5.83301 76.333 17.5 111s27.834 64.834 48.501 90.501s44.834 46 72.501 61
s57.167 22.5 88.5 22.5c28 0 53.333 -7.16699 76 -21.5s43.334 -32.5 62.001 -54.5l-9 -43c-14.667 27.333 -32.5 48.166 -53.5 62.499s-45.167 21.5 -72.5 21.5c-30 0 -55.167 -7.83301 -75.5 -23.5s-36.833 -35.5 -49.5 -59.5s-21.834 -50.833 -27.501 -80.5
s-8.5 -58.5 -8.5 -86.5v-24.5c0 -8.33301 0.666992 -16.5 2 -24.5h294z" />
    <glyph glyph-name="ainfinal" unicode="&#x639;" horiz-adv-x="523" arabic-form="final" 
d="M526 37l-0.00195312 -37.0029h-391c-7.33301 -0.666992 -13.666 -4 -18.999 -10s-8 -12.667 -8 -20c0 -10.667 2.16699 -21.167 6.5 -31.5s10.666 -19.666 18.999 -27.999s18.333 -15.166 30 -20.499s25.167 -8.33301 40.5 -9h112l6 -29h-112c-22 0.666992 -43 5 -63 13
s-37.5 18.667 -52.5 32s-27 29.333 -36 48s-13.5 39.334 -13.5 62.001v2c0 8 2.83301 14.667 8.5 20s12.5 8 20.5 8h25c-1.33301 8 -2.33301 16 -3 24s-1 16.333 -1 25c0 39.333 5.83301 76.333 17.5 111s27.834 64.834 48.501 90.501s44.834 46 72.501 61
s57.167 22.5 88.5 22.5c28 0 53.333 -7.16699 76 -21.5s43.334 -32.5 62.001 -54.5l-9 -43c-14.667 27.333 -32.5 48.166 -53.5 62.499s-45.167 21.5 -72.5 21.5c-30 0 -55.167 -7.83301 -75.5 -23.5s-36.833 -35.5 -49.5 -59.5s-21.834 -50.833 -27.501 -80.5
s-8.5 -58.5 -8.5 -86.5v-24.5c0 -8.33301 0.666992 -16.5 2 -24.5h360z" />
    <glyph glyph-name="aininitial" unicode="&#x639;" horiz-adv-x="483" arabic-form="initial" 
d="M134 85l-0.00195312 -24.5c0 -8.33301 0.666992 -16.5 2 -24.5h294v-37h-435v37h72c-1.33301 8 -2 16 -2 24v25c0 39.333 5.83301 76.333 17.5 111s27.834 64.834 48.501 90.501s44.834 46 72.501 61s57.167 22.5 88.5 22.5c28 0 53.333 -7.16699 76 -21.5
s43.334 -32.5 62.001 -54.5l-9 -43c-14.667 27.333 -32.5 48.166 -53.5 62.499s-45.167 21.5 -72.5 21.5c-30 0 -55.167 -7.83301 -75.5 -23.5s-36.833 -35.5 -49.5 -59.5s-21.834 -50.833 -27.501 -80.5s-8.5 -58.5 -8.5 -86.5z" />
    <glyph glyph-name="ainmedial" unicode="&#x639;" horiz-adv-x="512" arabic-form="medial" 
d="M134 86l-0.00195312 -24.5c0 -8.33301 0.666992 -16.5 2 -24.5h379v-37h-520v37h72c-1.33301 8 -2 16 -2 24v25c0 39.333 5.83301 76.333 17.5 111s27.834 64.834 48.501 90.501s44.834 46 72.501 61s57.167 22.5 88.5 22.5c28 0 53.333 -7.16699 76 -21.5
s43.334 -32.5 62.001 -54.5l-9 -43c-14.667 27.333 -32.5 48.166 -53.5 62.499s-45.167 21.5 -72.5 21.5c-30 0 -55.167 -7.83301 -75.5 -23.5s-36.833 -35.5 -49.5 -59.5s-21.834 -50.833 -27.501 -80.5s-8.5 -58.5 -8.5 -86.5z" />
    <glyph glyph-name="ghainisolated" unicode="&#x63a;" horiz-adv-x="514" arabic-form="isolated" 
d="M357 482c0 -9.33301 -3.5 -17.5 -10.5 -24.5s-15.5 -10.5 -25.5 -10.5c-9.33301 0 -17.5 3.5 -24.5 10.5s-10.5 15.167 -10.5 24.5c0 10 3.5 18.333 10.5 25s15.167 10 24.5 10c10 0 18.5 -3.33301 25.5 -10s10.5 -15 10.5 -25zM166 37
c-1.33301 8 -1.99805 16.1699 -1.99805 24.5029v24.5c0 28 2.83301 56.833 8.5 86.5s14.834 56.5 27.501 80.5s29.167 43.833 49.5 59.5s45.5 23.5 75.5 23.5c27.333 0 51.5 -7.16699 72.5 -21.5s38.833 -35.166 53.5 -62.499l9 43c-18.667 22 -39.334 40.167 -62.001 54.5
s-48 21.5 -76 21.5c-31.333 0 -60.833 -7.5 -88.5 -22.5s-51.834 -35.333 -72.501 -61s-36.834 -55.834 -48.501 -90.501s-17.5 -71.667 -17.5 -111c0 -8.66699 0.333008 -17 1 -25s1.66699 -16 3 -24h-25c-8 0 -14.833 -2.66699 -20.5 -8s-8.5 -12 -8.5 -20v-2
c0 -22.667 4.5 -43.334 13.5 -62.001s21 -34.667 36 -48s32.5 -24 52.5 -32s41 -12.333 63 -13h112l-6 29h-112c-15.333 0.666992 -28.833 3.66699 -40.5 9s-21.667 12.166 -30 20.499s-14.666 17.666 -18.999 27.999s-6.5 20.833 -6.5 31.5c0 7.33301 2.66699 14 8 20
s11.666 9.33301 18.999 10h325v37h-294z" />
    <glyph glyph-name="ghainfinal" unicode="&#x63a;" horiz-adv-x="522" arabic-form="final" 
d="M358 482c0 -9.33301 -3.5 -17.5 -10.5 -24.5s-15.5 -10.5 -25.5 -10.5c-9.33301 0 -17.5 3.5 -24.5 10.5s-10.5 15.167 -10.5 24.5c0 10 3.5 18.333 10.5 25s15.167 10 24.5 10c10 0 18.5 -3.33301 25.5 -10s10.5 -15 10.5 -25zM166 37
c-1.33301 8 -1.99805 16.1699 -1.99805 24.5029v24.5c0 28 2.83301 56.833 8.5 86.5s14.834 56.5 27.501 80.5s29.167 43.833 49.5 59.5s45.5 23.5 75.5 23.5c27.333 0 51.5 -7.16699 72.5 -21.5s38.833 -35.166 53.5 -62.499l9 43c-18.667 22 -39.334 40.167 -62.001 54.5
s-48 21.5 -76 21.5c-31.333 0 -60.833 -7.5 -88.5 -22.5s-51.834 -35.333 -72.501 -61s-36.834 -55.834 -48.501 -90.501s-17.5 -71.667 -17.5 -111c0 -8.66699 0.333008 -17 1 -25s1.66699 -16 3 -24h-25c-8 0 -14.833 -2.66699 -20.5 -8s-8.5 -12 -8.5 -20v-2
c0 -22.667 4.5 -43.334 13.5 -62.001s21 -34.667 36 -48s32.5 -24 52.5 -32s41 -12.333 63 -13h112l-6 29h-112c-15.333 0.666992 -28.833 3.66699 -40.5 9s-21.667 12.166 -30 20.499s-14.666 17.666 -18.999 27.999s-6.5 20.833 -6.5 31.5c0 7.33301 2.66699 14 8 20
s11.666 9.33301 18.999 10h391v37h-360z" />
    <glyph glyph-name="ghaininitial" unicode="&#x63a;" horiz-adv-x="480" arabic-form="initial" 
d="M328 482c0 -9.33301 -3.5 -17.5 -10.5 -24.5s-15.5 -10.5 -25.5 -10.5c-9.33301 0 -17.5 3.5 -24.5 10.5s-10.5 15.167 -10.5 24.5c0 10 3.5 18.333 10.5 25s15.167 10 24.5 10c10 0 18.5 -3.33301 25.5 -10s10.5 -15 10.5 -25zM134 85c0 28 2.83496 56.833 8.50195 86.5
s14.834 56.5 27.501 80.5s29.167 43.833 49.5 59.5s45.5 23.5 75.5 23.5c27.333 0 51.5 -7.16699 72.5 -21.5s38.833 -35.166 53.5 -62.499l9 43c-18.667 22 -39.334 40.167 -62.001 54.5s-48 21.5 -76 21.5c-31.333 0 -60.833 -7.5 -88.5 -22.5
s-51.834 -35.333 -72.501 -61s-36.834 -55.834 -48.501 -90.501s-17.5 -71.667 -17.5 -111v-25c0 -8 0.666992 -16 2 -24h-72v-37h435v37h-294c-1.33301 8 -2 16.167 -2 24.5v24.5z" />
    <glyph glyph-name="ghainmedial" unicode="&#x63a;" horiz-adv-x="510" arabic-form="medial" 
d="M327 481c0 -9.33301 -3.5 -17.5 -10.5 -24.5s-15.167 -10.5 -24.5 -10.5c-10 0 -18.5 3.5 -25.5 10.5s-10.5 15.167 -10.5 24.5c0 10 3.5 18.333 10.5 25s15.5 10 25.5 10c9.33301 0 17.5 -3.33301 24.5 -10s10.5 -15 10.5 -25zM134 86c0 28 2.83496 56.833 8.50195 86.5
s14.834 56.5 27.501 80.5s29.167 43.833 49.5 59.5s45.5 23.5 75.5 23.5c27.333 0 51.5 -7.16699 72.5 -21.5s38.833 -35.166 53.5 -62.499l9 43c-18.667 22 -39.334 40.167 -62.001 54.5s-48 21.5 -76 21.5c-31.333 0 -60.833 -7.5 -88.5 -22.5
s-51.834 -35.333 -72.501 -61s-36.834 -55.834 -48.501 -90.501s-17.5 -71.667 -17.5 -111v-25c0 -8 0.666992 -16 2 -24h-72v-37h520v37h-379c-1.33301 8 -2 16.167 -2 24.5v24.5z" />
    <glyph glyph-name="fehisolated" unicode="&#x641;" horiz-adv-x="892" arabic-form="isolated" 
d="M670 420c-10 0 -18.5 3.5 -25.5 10.5s-10.5 15.5 -10.5 25.5c0 9.33301 3.5 17.5 10.5 24.5s15.5 10.5 25.5 10.5c9.33301 0 17.5 -3.5 24.5 -10.5s10.5 -15.167 10.5 -24.5c0 -10 -3.5 -18.5 -10.5 -25.5s-15.167 -10.5 -24.5 -10.5zM671 372
c-23.333 0 -44.999 -4.83105 -64.999 -14.498s-37.667 -23 -53 -40s-27.333 -36.833 -36 -59.5s-13 -46.667 -13 -72c0 -30.667 6.16699 -58.834 18.5 -84.501s28.5 -47.167 48.5 -64.5h-449v49c0 27.333 2.5 55.333 7.5 84s13.333 55 25 79s26.667 44 45 60
s40.833 25 67.5 27l7 35c-30 0 -58.333 -7.5 -85 -22.5s-49.834 -35.333 -69.501 -61s-35.167 -55.834 -46.5 -90.501s-17 -71.667 -17 -111v-86h615c22.667 -0 44.334 4.83301 65.001 14.5s38.5 23 53.5 40s27 36.833 36 59.5s13.5 46.667 13.5 72s-4.5 49.333 -13.5 72
s-21 42.5 -36 59.5s-32.833 30.333 -53.5 40s-42.334 14.5 -65.001 14.5zM671.001 37.002c-19.333 0 -35.5 4.66699 -48.5 14s-23.667 21.166 -32 35.499s-14.333 30.333 -18 48s-5.5 34.834 -5.5 51.501s1.83301 33.667 5.5 51s9.66699 33.333 18 48s19 26.667 32 36
s29.167 14 48.5 14c18.667 0 34.667 -4.66699 48 -14s24.166 -21.333 32.499 -36s14.333 -30.667 18 -48s5.5 -34.333 5.5 -51s-1.83301 -33.834 -5.5 -51.501s-9.66699 -33.667 -18 -48s-19.166 -26.166 -32.499 -35.499s-29.333 -14 -48 -14z" />
    <glyph glyph-name="fehfinal" unicode="&#x641;" horiz-adv-x="907" arabic-form="final" 
d="M667 420c-10 0 -18.5 3.5 -25.5 10.5s-10.5 15.5 -10.5 25.5c0 9.33301 3.5 17.5 10.5 24.5s15.5 10.5 25.5 10.5c9.33301 0 17.5 -3.5 24.5 -10.5s10.5 -15.167 10.5 -24.5c0 -10 -3.5 -18.5 -10.5 -25.5s-15.167 -10.5 -24.5 -10.5zM771 37
c20.667 17.333 37.1689 39.002 49.502 65.002s18.5 54 18.5 84c0 25.333 -4.5 49.333 -13.5 72s-21 42.5 -36 59.5s-32.833 30.333 -53.5 40s-42.334 14.5 -65.001 14.5c-23.333 0 -45 -4.83301 -65 -14.5s-37.667 -23 -53 -40s-27.333 -36.833 -36 -59.5
s-13 -46.667 -13 -72c0 -30.667 6.16699 -58.834 18.5 -84.501s28.5 -47.167 48.5 -64.5h-449v49c0 27.333 2.5 55.333 7.5 84s13.333 55 25 79s26.667 44 45 60s40.833 25 67.5 27l7 35c-30 0 -58.333 -7.5 -85 -22.5s-49.834 -35.333 -69.501 -61
s-35.167 -55.834 -46.5 -90.501s-17 -71.667 -17 -111v-86h859v37h-144zM567.002 186.002c0 16.667 1.83301 33.667 5.5 51s9.66699 33.333 18 48s19 26.667 32 36s29.167 14 48.5 14c18.667 0 34.667 -4.66699 48 -14s24.166 -21.333 32.499 -36s14.333 -30.667 18 -48
s5.5 -34.333 5.5 -51s-1.83301 -33.834 -5.5 -51.501s-9.66699 -33.667 -18 -48s-19.166 -26.166 -32.499 -35.499s-29.333 -14 -48 -14c-19.333 0 -35.5 4.66699 -48.5 14s-23.667 21.166 -32 35.499s-14.333 30.333 -18 48s-5.5 34.834 -5.5 51.501z" />
    <glyph glyph-name="fehinitial" unicode="&#x641;" horiz-adv-x="463" arabic-form="initial" 
d="M277 474c0 -9.33301 -3.5 -17.5 -10.5 -24.5s-15.5 -10.5 -25.5 -10.5c-9.33301 0 -17.5 3.5 -24.5 10.5s-10.5 15.167 -10.5 24.5c0 10 3.5 18.5 10.5 25.5s15.167 10.5 24.5 10.5c10 0 18.5 -3.5 25.5 -10.5s10.5 -15.5 10.5 -25.5zM241 38
c18.667 0 34.667 4.66699 48 14s24.166 21.166 32.499 35.499s14.333 30.166 18 47.499s5.5 34.333 5.5 51s-1.83301 33.667 -5.5 51s-9.66699 33.333 -18 48s-19.166 26.667 -32.499 36s-29.333 14 -48 14c-19.333 0 -35.5 -4.66699 -48.5 -14s-23.667 -21.333 -32 -36
s-14.333 -30.667 -18 -48s-5.5 -34.333 -5.5 -51s1.83301 -33.667 5.5 -51s9.66699 -33.166 18 -47.499s19 -26.166 32 -35.499s29.167 -14 48.5 -14zM408 186c0 -25.333 -4.33301 -49.334 -13 -72.001s-20.667 -42.5 -36 -59.5s-33.166 -30.333 -53.499 -40
s-41.833 -14.5 -64.5 -14.5h-243v37h143c-20.667 17.333 -37 38.833 -49 64.5s-18 53.834 -18 84.501c0 25.333 4.33301 49.333 13 72s20.667 42.5 36 59.5s33 30.333 53 40s41.667 14.5 65 14.5c22.667 0 44.167 -4.83301 64.5 -14.5s38.166 -23 53.499 -40
s27.333 -36.833 36 -59.5s13 -46.667 13 -72z" />
    <glyph glyph-name="fehmedial" unicode="&#x641;" horiz-adv-x="481" arabic-form="medial" 
d="M239 421c-10 0 -18.5 3.33301 -25.5 10s-10.5 15 -10.5 25c0 9.33301 3.5 17.5 10.5 24.5s15.5 10.5 25.5 10.5c9.33301 0 17.5 -3.5 24.5 -10.5s10.5 -15.167 10.5 -24.5c0 -10 -3.5 -18.333 -10.5 -25s-15.167 -10 -24.5 -10zM-4 0h489.001v37h-146
c20.667 17.333 37.167 38.833 49.5 64.5s18.5 53.834 18.5 84.501c0 25.333 -4.5 49.333 -13.5 72s-21 42.5 -36 59.5s-32.833 30.333 -53.5 40s-42.334 14.5 -65.001 14.5c-23.333 0 -45 -4.83301 -65 -14.5s-37.667 -23 -53 -40s-27.333 -36.833 -36 -59.5
s-13 -46.667 -13 -72c0 -30.667 6.16699 -58.834 18.5 -84.501s28.5 -47.167 48.5 -64.5h-143v-37zM135.001 186c0 16.667 1.83301 33.667 5.5 51s9.66699 33.333 18 48s19 26.667 32 36s29.167 14 48.5 14c18.667 0 34.667 -4.66699 48 -14s24.166 -21.333 32.499 -36
s14.333 -30.667 18 -48s5.5 -34.333 5.5 -51s-1.83301 -33.834 -5.5 -51.501s-9.66699 -33.667 -18 -48s-19.166 -26.166 -32.499 -35.499s-29.333 -14 -48 -14c-19.333 0 -35.5 4.66699 -48.5 14s-23.667 21.166 -32 35.499s-14.333 30.333 -18 48s-5.5 34.834 -5.5 51.501
z" />
    <glyph glyph-name="qafisolated" unicode="&#x642;" horiz-adv-x="893" arabic-form="isolated" 
d="M616 493c10 0 18.5 -3.5 25.5 -10.5s10.5 -15.167 10.5 -24.5c0 -10 -3.5 -18.333 -10.5 -25s-15.5 -10 -25.5 -10c-9.33301 0 -17.5 3.33301 -24.5 10s-10.5 15 -10.5 25c0 9.33301 3.5 17.5 10.5 24.5s15.167 10.5 24.5 10.5zM725 493c9.33301 0 17.5 -3.5 24.5 -10.5
s10.5 -15.167 10.5 -24.5c0 -10 -3.5 -18.333 -10.5 -25s-15.167 -10 -24.5 -10c-10 0 -18.5 3.33301 -25.5 10s-10.5 15 -10.5 25c0 9.33301 3.5 17.5 10.5 24.5s15.5 10.5 25.5 10.5zM671 372c-23.333 0 -44.999 -4.83105 -64.999 -14.498s-37.667 -23 -53 -40
s-27.333 -36.833 -36 -59.5s-13 -46.667 -13 -72c0 -30.667 6.16699 -58.834 18.5 -84.501s28.5 -47.167 48.5 -64.5h-449v49c0 27.333 2.5 55.333 7.5 84s13.333 55 25 79s26.667 44 45 60s40.833 25 67.5 27l7 35c-30 0 -58.333 -7.5 -85 -22.5
s-49.834 -35.333 -69.501 -61s-35.167 -55.834 -46.5 -90.501s-17 -71.667 -17 -111v-86h615c22.667 -0 44.334 4.83301 65.001 14.5s38.5 23 53.5 40s27 36.833 36 59.5s13.5 46.667 13.5 72s-4.5 49.333 -13.5 72s-21 42.5 -36 59.5s-32.833 30.333 -53.5 40
s-42.334 14.5 -65.001 14.5zM671.001 37.002c-19.333 0 -35.5 4.66699 -48.5 14s-23.667 21.166 -32 35.499s-14.333 30.333 -18 48s-5.5 34.834 -5.5 51.501s1.83301 33.667 5.5 51s9.66699 33.333 18 48s19 26.667 32 36s29.167 14 48.5 14
c18.667 0 34.667 -4.66699 48 -14s24.166 -21.333 32.499 -36s14.333 -30.667 18 -48s5.5 -34.333 5.5 -51s-1.83301 -33.834 -5.5 -51.501s-9.66699 -33.667 -18 -48s-19.166 -26.166 -32.499 -35.499s-29.333 -14 -48 -14z" />
    <glyph glyph-name="qaffinal" unicode="&#x642;" horiz-adv-x="911" arabic-form="final" 
d="M615 493c10 0 18.5 -3.5 25.5 -10.5s10.5 -15.167 10.5 -24.5c0 -10 -3.5 -18.333 -10.5 -25s-15.5 -10 -25.5 -10c-9.33301 0 -17.5 3.33301 -24.5 10s-10.5 15 -10.5 25c0 9.33301 3.5 17.5 10.5 24.5s15.167 10.5 24.5 10.5zM724 493c9.33301 0 17.5 -3.5 24.5 -10.5
s10.5 -15.167 10.5 -24.5c0 -10 -3.5 -18.333 -10.5 -25s-15.167 -10 -24.5 -10c-10 0 -18.5 3.33301 -25.5 10s-10.5 15 -10.5 25c0 9.33301 3.5 17.5 10.5 24.5s15.5 10.5 25.5 10.5zM771 37c20.667 17.333 37.1689 39.002 49.502 65.002s18.5 54 18.5 84
c0 25.333 -4.5 49.333 -13.5 72s-21 42.5 -36 59.5s-32.833 30.333 -53.5 40s-42.334 14.5 -65.001 14.5c-23.333 0 -45 -4.83301 -65 -14.5s-37.667 -23 -53 -40s-27.333 -36.833 -36 -59.5s-13 -46.667 -13 -72c0 -30.667 6.16699 -58.834 18.5 -84.501
s28.5 -47.167 48.5 -64.5h-449v49c0 27.333 2.5 55.333 7.5 84s13.333 55 25 79s26.667 44 45 60s40.833 25 67.5 27l7 35c-30 0 -58.333 -7.5 -85 -22.5s-49.834 -35.333 -69.501 -61s-35.167 -55.834 -46.5 -90.501s-17 -71.667 -17 -111v-86h859v37h-144z
M567.002 186.002c0 16.667 1.83301 33.667 5.5 51s9.66699 33.333 18 48s19 26.667 32 36s29.167 14 48.5 14c18.667 0 34.667 -4.66699 48 -14s24.166 -21.333 32.499 -36s14.333 -30.667 18 -48s5.5 -34.333 5.5 -51s-1.83301 -33.834 -5.5 -51.501
s-9.66699 -33.667 -18 -48s-19.166 -26.166 -32.499 -35.499s-29.333 -14 -48 -14c-19.333 0 -35.5 4.66699 -48.5 14s-23.667 21.166 -32 35.499s-14.333 30.333 -18 48s-5.5 34.834 -5.5 51.501z" />
    <glyph glyph-name="qafinitial" unicode="&#x642;" horiz-adv-x="463" arabic-form="initial" 
d="M408 186c0 -25.333 -4.33301 -49.334 -13 -72.001s-20.667 -42.5 -36 -59.5s-33.166 -30.333 -53.499 -40s-41.833 -14.5 -64.5 -14.5h-245v37h145c-20.667 17.333 -37 38.833 -49 64.5s-18 53.834 -18 84.501c0 25.333 4.33301 49.333 13 72s20.667 42.5 36 59.5
s33 30.333 53 40s41.667 14.5 65 14.5c22.667 0 44.167 -4.83301 64.5 -14.5s38.166 -23 53.499 -40s27.333 -36.833 36 -59.5s13 -46.667 13 -72zM241 37.999c18.667 0 34.667 4.66699 48 14s24.166 21.166 32.499 35.499s14.333 30.166 18 47.499s5.5 34.333 5.5 51
s-1.83301 33.667 -5.5 51s-9.66699 33.333 -18 48s-19.166 26.667 -32.499 36s-29.333 14 -48 14c-19.333 0 -35.5 -4.66699 -48.5 -14s-23.667 -21.333 -32 -36s-14.333 -30.667 -18 -48s-5.5 -34.333 -5.5 -51s1.83301 -33.667 5.5 -51s9.66699 -33.166 18 -47.499
s19 -26.166 32 -35.499s29.167 -14 48.5 -14zM187 502.999c10 0 18.5 -3.5 25.5 -10.5s10.5 -15.167 10.5 -24.5c0 -10 -3.5 -18.333 -10.5 -25s-15.5 -10 -25.5 -10c-9.33301 0 -17.5 3.33301 -24.5 10s-10.5 15 -10.5 25c0 9.33301 3.5 17.5 10.5 24.5
s15.167 10.5 24.5 10.5zM296 502.999c9.33301 0 17.5 -3.5 24.5 -10.5s10.5 -15.167 10.5 -24.5c0 -10 -3.5 -18.333 -10.5 -25s-15.167 -10 -24.5 -10c-10 0 -18.5 3.33301 -25.5 10s-10.5 15 -10.5 25c0 9.33301 3.5 17.5 10.5 24.5s15.5 10.5 25.5 10.5z" />
    <glyph glyph-name="qafmedial" unicode="&#x642;" horiz-adv-x="481" arabic-form="medial" 
d="M184 503c10 0 18.5 -3.5 25.5 -10.5s10.5 -15.167 10.5 -24.5c0 -10 -3.5 -18.333 -10.5 -25s-15.5 -10 -25.5 -10c-9.33301 0 -17.5 3.33301 -24.5 10s-10.5 15 -10.5 25c0 9.33301 3.5 17.5 10.5 24.5s15.167 10.5 24.5 10.5zM293 503c9.33301 0 17.5 -3.5 24.5 -10.5
s10.5 -15.167 10.5 -24.5c0 -10 -3.5 -18.333 -10.5 -25s-15.167 -10 -24.5 -10c-10 0 -18.5 3.33301 -25.5 10s-10.5 15 -10.5 25c0 9.33301 3.5 17.5 10.5 24.5s15.5 10.5 25.5 10.5zM-3 0h489.001v37h-146c20.667 17.333 37.167 38.833 49.5 64.5
s18.5 53.834 18.5 84.501c0 25.333 -4.5 49.333 -13.5 72s-21 42.5 -36 59.5s-32.833 30.333 -53.5 40s-42.334 14.5 -65.001 14.5c-23.333 0 -45 -4.83301 -65 -14.5s-37.667 -23 -53 -40s-27.333 -36.833 -36 -59.5s-13 -46.667 -13 -72
c0 -30.667 6.16699 -58.834 18.5 -84.501s28.5 -47.167 48.5 -64.5h-143v-37zM136.001 186c0 16.667 1.83301 33.667 5.5 51s9.66699 33.333 18 48s19 26.667 32 36s29.167 14 48.5 14c18.667 0 34.667 -4.66699 48 -14s24.166 -21.333 32.499 -36s14.333 -30.667 18 -48
s5.5 -34.333 5.5 -51s-1.83301 -33.834 -5.5 -51.501s-9.66699 -33.667 -18 -48s-19.166 -26.166 -32.499 -35.499s-29.333 -14 -48 -14c-19.333 0 -35.5 4.66699 -48.5 14s-23.667 21.166 -32 35.499s-14.333 30.333 -18 48s-5.5 34.834 -5.5 51.501z" />
    <glyph glyph-name="kafisolated" unicode="&#x643;" horiz-adv-x="604" arabic-form="isolated" 
d="M547 564l-0.00195312 -465.003c0 -7.33301 -1.16699 -16.666 -3.5 -27.999s-6.16602 -22.166 -11.499 -32.499s-13 -19.333 -23 -27s-22.333 -11.5 -37 -11.5h-418v59c0 39.333 5.66699 76.333 17 111s26.833 64.834 46.5 90.501s42.834 46 69.501 61s55 22.5 85 22.5
l-7 -35c-26.667 -2 -49.167 -11 -67.5 -27s-33.333 -36 -45 -60s-20 -50.333 -25 -79s-7.5 -56.667 -7.5 -84v-22h294c28.667 0 47.5 5.83301 56.5 17.5s13.5 26.167 13.5 43.5v443zM271.998 429.997l0.000976562 -23h-130v23h31c-8 6 -14.5 12.5 -19.5 19.5
s-7.5 15.5 -7.5 25.5c0 18 6.83301 32.833 20.5 44.5s29.5 17.5 47.5 17.5c7.33301 0 14.833 -1.16699 22.5 -3.5s13.5 -6.5 17.5 -12.5c8.66699 -7.33301 14.667 -19.333 18 -36h-18c-2 12 -6.33301 20.667 -13 26s-15.667 8 -27 8
c-13.333 -1.33301 -22.5 -5.83301 -27.5 -13.5s-7.5 -17.834 -7.5 -30.501c0 -11.333 3.66699 -21.166 11 -29.499s16.666 -13.5 27.999 -15.5h54z" />
    <glyph glyph-name="arabickaffinal" unicode="&#x643;" horiz-adv-x="625" arabic-form="final" 
d="M275 407h-129.999v23h31c-8 6 -14.5 12.5 -19.5 19.5s-7.5 15.5 -7.5 25.5c0 18 6.83301 32.833 20.5 44.5s29.5 17.5 47.5 17.5c7.33301 0 14.833 -1.16699 22.5 -3.5s13.5 -6.5 17.5 -12.5c8.66699 -7.33301 14.667 -19.333 18 -36h-18c-4 22.667 -17.333 34 -40 34
c-13.333 -1.33301 -22.5 -5.83301 -27.5 -13.5s-7.5 -17.834 -7.5 -30.501c0 -11.333 3.66699 -21.166 11 -29.499s16.666 -13.5 27.999 -15.5h54v-23zM628.001 0l-66.0039 -0.000976562c-9.33301 0 -17.5 1.5 -24.5 4.5s-13.167 7.16699 -18.5 12.5
c-5.33301 -5.33301 -11.666 -9.5 -18.999 -12.5s-15.666 -4.5 -24.999 -4.5h-418v59c0 39.333 5.66699 76.333 17 111s26.833 64.834 46.5 90.501s42.834 46 69.501 61s55 22.5 85 22.5l-7 -35c-26.667 -2 -49.167 -11 -67.5 -27s-33.333 -36 -45 -60s-20 -50.333 -25 -79
s-7.5 -56.667 -7.5 -84v-22h294c28 0 46.667 5.5 56 16.5s14 25.167 14 42.5v445l63 23v-468c0.666992 -17.333 6.83398 -31.5 18.501 -42.5s31.5 -16.5 59.5 -16.5v-37z" />
    <glyph glyph-name="kafinitial" unicode="&#x643;" horiz-adv-x="502" arabic-form="initial" 
d="M291 373c22 -1.33301 42.8379 -7.33398 62.5049 -18.001s36.667 -24.334 51 -41.001s25.666 -36 33.999 -58s12.5 -45.333 12.5 -70c0 -15.333 -1.83301 -30.333 -5.5 -45s-8.5 -28.667 -14.5 -42l-6.5 -13c-1.66699 -3.33301 -3.5 -6.5 -5.5 -9.5
s-4.33301 -6.16699 -7 -9.5s-6.33398 -7.66602 -11.001 -12.999c-14.667 -16 -31.834 -28.833 -51.501 -38.5s-40.5 -14.834 -62.5 -15.501h-292v37h289c18.667 0 34.667 4.66699 48 14s24.166 21.166 32.499 35.499s14.166 30.333 17.499 48s5 34.834 5 51.501
c0 16 -1.66699 32.667 -5 50s-9 33.333 -17 48s-18.333 26.834 -31 36.501s-28 14.834 -46 15.501h-203v37c0 26.667 5.5 51.667 16.5 75s26.333 43.5 46 60.5s42.667 30.5 69 40.5s54.5 15 84.5 15l-7 -24c-26.667 -1.33301 -49.167 -7.33301 -67.5 -18
s-33.333 -24 -45 -40s-20 -33.5 -25 -52.5s-7.5 -37.833 -7.5 -56.5h142v0z" />
    <glyph glyph-name="kafmedial" unicode="&#x643;" horiz-adv-x="524" arabic-form="medial" 
d="M527 0l-61.998 -0.00195312c-15.333 0 -29.666 6.83301 -42.999 20.5s-21.666 28.834 -24.999 45.501c-4 -12 -10.333 -22.167 -19 -30.5s-18.5 -15 -29.5 -20s-22.833 -8.83301 -35.5 -11.5s-24.334 -4 -35.001 -4h-282v37h279c18.667 0 34.667 4.66699 48 14
s24.166 21.166 32.499 35.499s14.166 30.333 17.499 48s5 34.834 5 51.501c0 16 -1.66699 32.667 -5 50s-9 33.333 -17 48s-18.333 26.834 -31 36.501s-28 14.834 -46 15.501h-203v37c0 26.667 5.5 51.667 16.5 75s26.333 43.5 46 60.5s42.667 30.5 69 40.5s54.5 15 84.5 15
l-7 -24c-26.667 -1.33301 -49.167 -7.33301 -67.5 -18s-33.333 -24 -45 -40s-20 -33.5 -25 -52.5s-7.5 -37.833 -7.5 -56.5h142c22 -1.33301 42.833 -7.33301 62.5 -18s36.667 -24.334 51 -41.001s25.666 -36 33.999 -58s12.5 -45.333 12.5 -70v-60.5
c0 -18.333 2.33301 -34 7 -47s13 -23.167 25 -30.5s29.667 -11 53 -11v-37z" />
    <glyph glyph-name="lamisolated" unicode="&#x644;" horiz-adv-x="403" arabic-form="isolated" 
d="M286 542l64.0029 22v-126.5c0 -37 -0.166992 -69.333 -0.5 -97s-0.5 -51.334 -0.5 -71.001v-49.5v-58c-2.66699 -22 -9 -42.833 -19 -62.5s-22.5 -36.834 -37.5 -51.501s-32 -26.167 -51 -34.5s-38.833 -12.5 -59.5 -12.5c-21.333 0 -41.5 4.16699 -60.5 12.5
s-35.833 19.833 -50.5 34.5s-26.834 31.834 -36.501 51.501s-15.834 40.834 -18.501 63.501l62 24c0 -16.667 1.83301 -33.834 5.5 -51.501s9.66699 -33.667 18 -48s19 -26.166 32 -35.499s29.167 -14 48.5 -14c18.667 0 34.667 4.66699 48 14s24.166 21.166 32.499 35.499
s14.333 30.333 18 48s5.5 34.834 5.5 51.501v355z" />
    <glyph glyph-name="lamfinal" unicode="&#x644;" horiz-adv-x="460" arabic-form="final" 
d="M374 98c2 -16 10.5039 -30.002 25.5039 -42.002s36.5 -18 64.5 -18v-38h-50c-15.333 0 -29 7.66699 -41 23c0 -20.667 -4.5 -41 -13.5 -61s-21.167 -38 -36.5 -54s-33 -29 -53 -39s-41.333 -15 -64 -15c-21.333 0 -41.5 4.16699 -60.5 12.5s-35.833 19.833 -50.5 34.5
s-26.834 31.834 -36.501 51.501s-15.834 40.834 -18.501 63.501l62 24c0 -16.667 1.83301 -33.834 5.5 -51.501s9.66699 -33.667 18 -48s19 -26.166 32 -35.499s29.167 -14 48.5 -14c18.667 0 34.667 4.66699 48 14s24.166 21.166 32.499 35.499s14.333 30.333 18 48
s5.5 34.834 5.5 51.501v502l64 22c0 -114.667 0.166992 -210.5 0.5 -287.5s0.166016 -136.5 -0.500977 -178.5z" />
    <glyph glyph-name="laminitial" unicode="&#x644;" horiz-adv-x="241" arabic-form="initial" 
d="M120 542l64.001 21.998v-465c0 -7.33301 -1.16699 -16.666 -3.5 -27.999s-6.33301 -22.166 -12 -32.499s-13.334 -19.333 -23.001 -27s-21.834 -11.5 -36.501 -11.5h-113v37c42 0 68.833 1.5 80.5 4.5s20.834 7.33301 27.501 13s11 12.167 13 19.5s3 15.333 3 24v444z
" />
    <glyph glyph-name="lammedial" unicode="&#x644;" horiz-adv-x="267" arabic-form="medial" 
d="M179 97c0 -17.333 4.5 -31.666 13.5 -42.999s27.833 -17 56.5 -17h21v-37h-80c-9.33301 0 -17.5 1.5 -24.5 4.5s-13.167 7.16699 -18.5 12.5c-5.33301 -5.33301 -11.5 -9.5 -18.5 -12.5s-15.167 -4.5 -24.5 -4.5h-109v37h50c28.667 0 47.5 5.66699 56.5 17
s13.5 25.666 13.5 42.999v444l64 23v-467z" />
    <glyph glyph-name="meemisolated" unicode="&#x645;" horiz-adv-x="544" arabic-form="isolated" 
d="M147 -151c-12.667 4.66699 -24.502 11.833 -35.502 21.5s-20.667 20.5 -29 32.5s-15.166 25 -20.499 39s-8.66602 28 -9.99902 42c0 13.333 2 23.5 6 30.5s9.66699 12.167 17 15.5s17 5.66602 29 6.99902h84c-23.333 31.333 -35 69.333 -35 114
c0 24.667 4.33301 48.334 13 71.001s20.667 42.5 36 59.5s33 30.5 53 40.5s41.667 15 65 15c22.667 0 44.167 -5 64.5 -15s38.166 -23.5 53.499 -40.5s27.333 -36.833 36 -59.5s13 -46.334 13 -71.001c0 -26 -4.33301 -50.333 -13 -73s-20.667 -42.5 -36 -59.5
s-33.166 -30.5 -53.499 -40.5s-41.833 -15 -64.5 -15c-18.667 0 -36.167 3.33301 -52.5 10s-31.5 15.667 -45.5 27h-61h-32.5h-13.5c-2 0 -3.33301 -0.333008 -4 -1c-2.66699 -1.33301 -5.16699 -3.66602 -7.5 -6.99902s-3.16602 -7 -2.49902 -11
c0 -9.33301 1.16699 -19.5 3.5 -30.5s5.66602 -21.667 9.99902 -32s9.5 -19.5 15.5 -27.5s13 -13.667 21 -17zM319.998 -0.000976562c18.667 0 34.667 4.66699 48 14s24.166 21.333 32.499 36s14.333 31 18 49s5.5 35.333 5.5 52s-1.83301 33.667 -5.5 51
s-9.66699 33.333 -18 48s-19.166 26.667 -32.499 36s-29.333 14 -48 14c-19.333 0 -35.5 -4.66699 -48.5 -14s-23.667 -21.333 -32 -36s-14.333 -30.667 -18 -48s-5.5 -34.333 -5.5 -51s1.83301 -34 5.5 -52s9.66699 -34.333 18 -49s19 -26.667 32 -36s29.167 -14 48.5 -14z
" />
    <glyph glyph-name="meemfinal" unicode="&#x645;" horiz-adv-x="568" arabic-form="final" 
d="M423 0c-28.667 -24.667 -61.668 -37.0029 -99.001 -37.0029c-18.667 0 -36.167 3.33301 -52.5 10s-31.5 15.667 -45.5 27h-61h-32.5h-13.5c-2 0 -3.33301 -0.333008 -4 -1c-2.66699 -1.33301 -5.16699 -3.66602 -7.5 -6.99902s-3.16602 -7 -2.49902 -11
c0 -9.33301 1.16699 -19.5 3.5 -30.5s5.66602 -21.667 9.99902 -32s9.5 -19.5 15.5 -27.5s13 -13.667 21 -17l-4 -25c-12.667 4.66699 -24.5 11.834 -35.5 21.501s-20.667 20.5 -29 32.5s-15.166 25 -20.499 39s-8.66602 28 -9.99902 42c0 13.333 2 23.5 6 30.5
s9.66699 12.167 17 15.5s17 5.66602 29 6.99902h84c-23.333 31.333 -35 69.333 -35 114c0 24.667 4.33301 48.334 13 71.001s20.667 42.5 36 59.5s33 30.5 53 40.5s41.667 15 65 15c22.667 0 44.167 -5 64.5 -15s38.166 -23.5 53.499 -40.5s27.333 -36.833 36 -59.5
s13 -46.334 13 -71.001c0 -21.333 -3 -41.666 -9 -60.999s-14.667 -36.666 -26 -51.999h116l1 -38h-150zM323.999 -0.00292969c18.667 0 34.667 4.66699 48 14s24.166 21.333 32.499 36s14.333 31 18 49s5.5 35.333 5.5 52s-1.83301 33.667 -5.5 51s-9.66699 33.333 -18 48
s-19.166 26.667 -32.499 36s-29.333 14 -48 14c-19.333 0 -35.5 -4.66699 -48.5 -14s-23.667 -21.333 -32 -36s-14.333 -30.667 -18 -48s-5.5 -34.333 -5.5 -51s1.83301 -34 5.5 -52s9.66699 -34.333 18 -49s19 -26.667 32 -36s29.167 -14 48.5 -14z" />
    <glyph glyph-name="meeminitial" unicode="&#x645;" horiz-adv-x="461" arabic-form="initial" 
d="M241 1c18.667 0 34.667 4.66699 48 14s24.166 21.166 32.499 35.499s14.333 30.333 18 48s5.5 34.834 5.5 51.501s-1.83301 33.667 -5.5 51s-9.66699 33.333 -18 48s-19.166 26.667 -32.499 36s-29.333 14 -48 14c-19.333 0 -35.5 -4.66699 -48.5 -14
s-23.667 -21.333 -32 -36s-14.333 -30.667 -18 -48s-5.5 -34.333 -5.5 -51s1.83301 -33.834 5.5 -51.501s9.66699 -33.667 18 -48s19 -26.166 32 -35.499s29.167 -14 48.5 -14zM241 336c22.667 0 44.1689 -4.99707 64.502 -14.9971s38.166 -23.5 53.499 -40.5
s27.333 -36.667 36 -59s13 -46.166 13 -71.499c0 -26 -4.33301 -50.167 -13 -72.5s-20.667 -42 -36 -59s-33.166 -30.333 -53.499 -40s-41.833 -14.5 -64.5 -14.5c-18.667 0 -36.334 3.16699 -53.001 9.5s-32 15.166 -46 26.499h2h-2h-144v37h109
c-10.667 15.333 -19 32.666 -25 51.999s-9 39.666 -9 60.999c0 25.333 4.5 49.166 13.5 71.499s21 42 36 59s32.667 30.5 53 40.5s42.166 15 65.499 15z" />
    <glyph glyph-name="meemmedial" unicode="&#x645;" horiz-adv-x="490" arabic-form="medial" 
d="M494 0h-124.001h-30c-28 -24 -60.667 -36 -98 -36c-36 0 -68.667 12 -98 36h-151v37h117c-11.333 15.333 -20 32.666 -26 51.999s-9 39.666 -9 60.999c0 25.333 4.33301 49.333 13 72s20.667 42.5 36 59.5s33 30.333 53 40s41.667 14.5 65 14.5
c22.667 0 44.334 -4.83301 65.001 -14.5s38.5 -23 53.5 -40s27 -36.833 36 -59.5s13.5 -46.667 13.5 -72c0 -21.333 -3 -41.666 -9 -60.999s-14.667 -36.666 -26 -51.999h119v-37zM241.999 2c18.667 0 34.667 4.66699 48 14s24.166 21.166 32.499 35.499
s14.333 30.166 18 47.499s5.5 34.333 5.5 51s-1.83301 33.667 -5.5 51s-9.66699 33.333 -18 48s-19.166 26.667 -32.499 36s-29.333 14 -48 14s-34.667 -4.66699 -48 -14s-24.166 -21.333 -32.499 -36s-14.333 -30.667 -18 -48s-5.5 -34.333 -5.5 -51
s1.83301 -33.667 5.5 -51s9.66699 -33.166 18 -47.499s19.166 -26.166 32.499 -35.499s29.333 -14 48 -14z" />
    <glyph glyph-name="noonisolated" unicode="&#x646;" horiz-adv-x="511" arabic-form="isolated" 
d="M456 372v-189.999c-0.666992 -25.333 -6.5 -48.833 -17.5 -70.5s-25.5 -40.834 -43.5 -57.501s-39 -29.667 -63 -39s-49.333 -14 -76 -14c-27.333 0 -53 4.66699 -77 14s-45 22.333 -63 39s-32.5 36 -43.5 58s-16.833 45.667 -17.5 71v189l64 -23v-163
c0 -17.333 2.66699 -35 8 -53s13.5 -34.5 24.5 -49.5s25.167 -27.333 42.5 -37s38 -14.5 62 -14.5s44.667 4.83301 62 14.5s31.5 22 42.5 37s19.167 31.5 24.5 49.5s8 35.667 8 53v163zM256 395.001c-10 0 -18.5 3.5 -25.5 10.5s-10.5 15.5 -10.5 25.5
c0 9.33301 3.5 17.5 10.5 24.5s15.5 10.5 25.5 10.5c9.33301 0 17.5 -3.5 24.5 -10.5s10.5 -15.167 10.5 -24.5c0 -10 -3.5 -18.5 -10.5 -25.5s-15.167 -10.5 -24.5 -10.5z" />
    <glyph glyph-name="noonfinal" unicode="&#x646;" horiz-adv-x="532" arabic-form="final" 
d="M457 262v-190l-2 -18c-0.666992 -6 -1.66699 -11.667 -3 -17h92v-37h-106c-16 -32 -40.333 -58.167 -73 -78.5s-69 -30.5 -109 -30.5c-27.333 0 -53 4.66699 -77 14s-45 22.333 -63 39s-32.5 36 -43.5 58s-16.833 45.667 -17.5 71v189l64 -23v-163
c0 -17.333 2.66699 -35 8 -53s13.5 -34.5 24.5 -49.5s25.167 -27.333 42.5 -37s38 -14.5 62 -14.5s44.667 4.83301 62 14.5s31.5 22 42.5 37s19.167 31.5 24.5 49.5s8 35.667 8 53v163zM256 285c-10 0 -18.5 3.5 -25.5 10.5s-10.5 15.5 -10.5 25.5
c0 9.33301 3.5 17.5 10.5 24.5s15.5 10.5 25.5 10.5c9.33301 0 17.5 -3.5 24.5 -10.5s10.5 -15.167 10.5 -24.5c0 -10 -3.5 -18.5 -10.5 -25.5s-15.167 -10.5 -24.5 -10.5z" />
    <glyph glyph-name="nooninitial" unicode="&#x646;" horiz-adv-x="232" arabic-form="initial" 
d="M130 479c-9.33301 0 -17.5 3.5 -24.5 10.5s-10.5 15.167 -10.5 24.5c0 10 3.5 18.5 10.5 25.5s15.167 10.5 24.5 10.5c10 0 18.5 -3.5 25.5 -10.5s10.5 -15.5 10.5 -25.5c0 -9.33301 -3.5 -17.5 -10.5 -24.5s-15.5 -10.5 -25.5 -10.5zM-3 37l48.999 -0.00195312
c29.333 0 48.5 5.83301 57.5 17.5s13.5 26.167 13.5 43.5v255l63 23v-277c0 -7.33301 -1.16699 -16.666 -3.5 -27.999s-6.16602 -22.166 -11.499 -32.499s-13 -19.333 -23 -27s-22.333 -11.5 -37 -11.5h-59h-49v37z" />
    <glyph glyph-name="noonmedial" unicode="&#x646;" horiz-adv-x="255" arabic-form="medial" 
d="M176 97c0 -8.66699 0.99707 -16.667 2.99707 -24s5.66699 -13.666 11 -18.999s12.5 -9.5 21.5 -12.5s20.833 -4.5 35.5 -4.5h18v-37h-77c-17.333 0 -31.666 5.66699 -42.999 17c-5.33301 -5.33301 -11.666 -9.5 -18.999 -12.5s-15.666 -4.5 -24.999 -4.5h-110v37h52
c28.667 0 47.5 5.66699 56.5 17s13.5 25.666 13.5 42.999v256l63 23v-279zM144.997 482c-9.33301 0 -17.5 3.5 -24.5 10.5s-10.5 15.167 -10.5 24.5c0 10 3.5 18.5 10.5 25.5s15.167 10.5 24.5 10.5c10 0 18.5 -3.5 25.5 -10.5s10.5 -15.5 10.5 -25.5
c0 -9.33301 -3.5 -17.5 -10.5 -24.5s-15.5 -10.5 -25.5 -10.5z" />
    <glyph glyph-name="hehisolated" unicode="&#x647;" horiz-adv-x="439" arabic-form="isolated" 
d="M225 37c18.667 0 34.667 4.66699 48 14s24.166 21.166 32.499 35.499s14.333 30.333 18 48s5.5 34.834 5.5 51.501s-1.83301 33.667 -5.5 51s-9.66699 33.333 -18 48s-19.166 26.667 -32.499 36s-29.333 14 -48 14c-19.333 0 -35.5 -4.66699 -48.5 -14
s-23.667 -21.333 -32 -36s-14.333 -30.667 -18 -48s-5.5 -34.333 -5.5 -51s1.83301 -33.834 5.5 -51.501s9.66699 -33.667 18 -48s19 -26.166 32 -35.499s29.167 -14 48.5 -14zM91 73c-10.667 15.333 -18.998 32.6689 -24.998 52.002s-9 39.666 -9 60.999
c0 25.333 4.5 49.166 13.5 71.499s21 42 36 59s32.667 30.5 53 40.5s42.166 15 65.499 15c22.667 0 44.167 -5 64.5 -15s38.166 -23.5 53.499 -40.5s27.333 -36.667 36 -59s13 -46.166 13 -71.499c0 -26 -4.33301 -50.167 -13 -72.5s-20.667 -42 -36 -59
s-33.166 -30.333 -53.499 -40s-41.833 -14.5 -64.5 -14.5c-18.667 0 -36.334 3.16699 -53.001 9.5s-32 15.166 -46 26.499l-11 10l-11 12z" />
    <glyph glyph-name="hehfinal" unicode="&#x647;" horiz-adv-x="459" arabic-form="final" 
d="M386 185c0 -36 1.50195 -63.998 4.50195 -83.998s7.5 -34.833 13.5 -44.5s13.833 -15.5 23.5 -17.5s21.167 -3 34.5 -3v-37h-64c-16 0 -29.667 4.66699 -41 14s-18 22.666 -20 39.999c-15.333 -17.333 -33 -30.666 -53 -39.999s-41.667 -14 -65 -14
c-36.667 0 -69.667 12 -99 36l-11 10l-11 12l-13 15c-10.667 15.333 -19 32.666 -25 51.999s-9 39.666 -9 60.999c0 24.667 4.5 48.334 13.5 71.001s21 42.5 36 59.5s32.667 30.5 53 40.5s42.166 15 65.499 15c22.667 0 44.167 -5 64.5 -15s38.166 -23.5 53.499 -40.5
s27.333 -36.833 36 -59.5s13 -46.334 13 -71.001zM219.002 36.002c18.667 0 34.667 4.66699 48 14s24.166 21.166 32.499 35.499s14.333 30.333 18 48s5.5 34.834 5.5 51.501s-1.83301 33.667 -5.5 51s-9.66699 33.333 -18 48s-19.166 26.667 -32.499 36s-29.333 14 -48 14
c-19.333 0 -35.5 -4.66699 -48.5 -14s-23.667 -21.333 -32 -36s-14.333 -30.667 -18 -48s-5.5 -34.333 -5.5 -51s1.83301 -33.834 5.5 -51.501s9.66699 -33.667 18 -48s19 -26.166 32 -35.499s29.167 -14 48.5 -14z" />
    <glyph glyph-name="hehinitial" unicode="&#x647;" horiz-adv-x="559" arabic-form="initial" 
d="M507 186c0 -25.333 -4.16504 -48.999 -12.498 -70.999s-19.5 -41.333 -33.5 -58s-30.667 -30 -50 -40s-40 -15.667 -62 -17h-353v37h115c-12 11.333 -21.667 24.5 -29 39.5s-11 31.167 -11 48.5c0 32 10.167 59.667 30.5 83s47.166 37 80.499 41
c6 17.333 14.167 33.5 24.5 48.5s22.5 28 36.5 39s29.167 19.667 45.5 26s33.5 9.5 51.5 9.5c22.667 0 44.167 -5 64.5 -15s38.166 -23.5 53.499 -40.5s27.333 -36.833 36 -59.5s13 -46.334 13 -71.001zM230.002 37.001c14.667 7.33301 25.334 18.833 32.001 34.5
s10 33.5 10 53.5c0 26.667 -5.66699 49.334 -17 68.001s-29.333 28 -54 28s-42.834 -9.33301 -54.501 -28s-17.5 -41.334 -17.5 -68.001c0 -20 3.5 -37.833 10.5 -53.5s17.833 -27.167 32.5 -34.5h58zM340.002 37.001c18.667 0 34.666 4.66699 47.999 14
s24.166 21.166 32.499 35.499s14.333 30.333 18 48s5.5 34.834 5.5 51.501s-1.83301 33.667 -5.5 51s-9.66699 33.333 -18 48s-19.166 26.667 -32.499 36s-29.333 14 -48 14c-27.333 0 -48.833 -9.16699 -64.5 -27.5s-26.5 -39.833 -32.5 -64.5
c24.667 -9.33301 45.334 -25 62.001 -47s25 -45.667 25 -71c0 -17.333 -3.5 -33.5 -10.5 -48.5s-16.833 -28.167 -29.5 -39.5h50z" />
    <glyph glyph-name="hehmedial" unicode="&#x647;" horiz-adv-x="573" arabic-form="medial" 
d="M575 0l-582.998 0.00195312v37h115c-12 11.333 -21.667 24.5 -29 39.5s-11 31.167 -11 48.5c0 32 10.167 59.667 30.5 83s47.166 37 80.499 41c6 17.333 14.167 33.5 24.5 48.5s22.5 28 36.5 39s29.167 19.667 45.5 26s33.5 9.5 51.5 9.5c22.667 0 44.167 -5 64.5 -15
s38.166 -23.5 53.499 -40.5s27.333 -36.833 36 -59.5s13 -46.334 13 -71.001c0 -30.667 -6 -58.834 -18 -84.501s-28 -47.167 -48 -64.5h138v-37zM226.002 37.002c14.667 7.33301 25.334 18.833 32.001 34.5s10 33.5 10 53.5c0 26.667 -5.66699 49.334 -17 68.001
s-29.333 28 -54 28s-42.834 -9.33301 -54.501 -28s-17.5 -41.334 -17.5 -68.001c0 -20 3.5 -37.833 10.5 -53.5s17.833 -27.167 32.5 -34.5h58zM336.002 37.002c18.667 0 34.666 4.66699 47.999 14s24.166 21.166 32.499 35.499s14.333 30.333 18 48s5.5 34.834 5.5 51.501
s-1.83301 33.667 -5.5 51s-9.66699 33.333 -18 48s-19.166 26.667 -32.499 36s-29.333 14 -48 14c-27.333 0 -48.833 -9.16699 -64.5 -27.5s-26.5 -39.833 -32.5 -64.5c24.667 -9.33301 45.334 -25 62.001 -47s25 -45.667 25 -71c0 -17.333 -3.5 -33.5 -10.5 -48.5
s-16.833 -28.167 -29.5 -39.5h50z" />
    <glyph glyph-name="wawisolated" unicode="&#x648;" horiz-adv-x="447" arabic-form="isolated" 
d="M388 -3c-3.33301 -20 -10.335 -38.8311 -21.002 -56.498s-23.667 -33.334 -39 -47.001s-32.333 -24.5 -51 -32.5s-38 -12 -58 -12l6 29c14.667 0.666992 28.167 5.33398 40.5 14.001s22.666 19.167 30.999 31.5s14.833 25.166 19.5 38.499s7 25 7 35v42
c-14 -12.667 -30.167 -22.334 -48.5 -29.001s-37.166 -10 -56.499 -10c-22.667 -0 -44 4.83301 -64 14.5s-37.5 23 -52.5 40s-26.833 36.667 -35.5 59s-13 46.5 -13 72.5s4.33301 50.167 13 72.5s20.5 42 35.5 59s32.5 30.333 52.5 40s41.333 14.5 64 14.5
s44.334 -4.83301 65.001 -14.5s38.834 -23 54.501 -40s28 -36.667 37 -59s13.5 -46.5 13.5 -72.5v-189zM217.998 37.002c32.667 0 58.167 13.833 76.5 41.5s27.5 63.5 27.5 107.5s-9.16699 79.833 -27.5 107.5s-43.833 41.5 -76.5 41.5c-32 0 -56.833 -13.833 -74.5 -41.5
s-26.5 -63.5 -26.5 -107.5s8.83301 -79.833 26.5 -107.5s42.5 -41.5 74.5 -41.5z" />
    <glyph glyph-name="wawfinal" unicode="&#x648;" horiz-adv-x="465" arabic-form="final" 
d="M469 38v-37.999h-42c-8.66699 0 -16.334 3 -23.001 9s-12.667 13.667 -18 23l-2 -35c-3.33301 -20 -10 -38.833 -20 -56.5s-22.333 -33.334 -37 -47.001s-31 -24.5 -49 -32.5s-37 -12 -57 -12l6 29c14.667 0.666992 28 5.33398 40 14.001s22 19.167 30 31.5
s14.167 25.166 18.5 38.499s6.5 25 6.5 35v42c-14 -12 -29.667 -21.5 -47 -28.5s-35.666 -10.5 -54.999 -10.5c-22.667 -0 -44 4.83301 -64 14.5s-37.5 23 -52.5 40s-26.833 36.833 -35.5 59.5s-13 46.667 -13 72c0 26 4.33301 50.167 13 72.5s20.5 42 35.5 59
s32.5 30.333 52.5 40s41.333 14.5 64 14.5s44.167 -4.83301 64.5 -14.5s38 -23 53 -40s26.833 -36.667 35.5 -59s13 -46.5 13 -72.5v-76c0.666992 -17.333 6.5 -33.333 17.5 -48s29.167 -22.667 54.5 -24h11zM220 31.001c16 0 30 4 42 12s22 19 30 33s14 30.333 18 49
s6 39 6 61s-2 42.5 -6 61.5s-10 35.5 -18 49.5s-18 25.167 -30 33.5s-26 12.5 -42 12.5s-30 -4.16699 -42 -12.5s-22 -19.5 -30 -33.5s-14 -30.5 -18 -49.5s-6 -39.5 -6 -61.5s2 -42.333 6 -61s10 -35 18 -49s18 -25 30 -33s26 -12 42 -12z" />
    <glyph glyph-name="alefmaksuraisolated" unicode="&#x649;" horiz-adv-x="567" arabic-form="isolated" 
d="M521 354c-26.667 -1.33301 -49.166 -7.33105 -67.499 -17.998s-33.333 -24 -45 -40s-20 -33.5 -25 -52.5s-7.5 -37.833 -7.5 -56.5l141 -1c0 -26 -4.5 -50.333 -13.5 -73s-21.5 -42.334 -37.5 -59.001s-34.833 -29.834 -56.5 -39.501s-45.5 -14.5 -71.5 -14.5h-111
c-26 0 -49.833 5 -71.5 15s-40.5 23.833 -56.5 41.5s-28.5 38.167 -37.5 61.5s-13.5 48 -13.5 74v112l63 -21v-91c0 -17.333 1.66699 -35.5 5 -54.5s9.5 -36.333 18.5 -52s20.833 -28.667 35.5 -39s33.667 -15.5 57 -15.5h111c19.333 0 35.666 3.5 48.999 10.5
s24.5 16 33.5 27s16 23.667 21 38s8.5 28.833 10.5 43.5h-140v37c0 26.667 5.5 51.667 16.5 75s26.333 43.5 46 60.5s42.667 30.5 69 40.5s54.5 15 84.5 15l-7 -24v0z" />
    <glyph glyph-name="alefmaksurafinal" unicode="&#x649;" horiz-adv-x="724" arabic-form="final" 
d="M609 192c0 -17.333 1.83301 -35.167 5.5 -53.5s9.83398 -35 18.501 -50s20.5 -27.333 35.5 -37s34.167 -14.5 57.5 -14.5v-37c-26 0 -50 5 -72 15s-41.167 23.833 -57.5 41.5s-29 38.167 -38 61.5s-13.5 48 -13.5 74v162h-52
c-26.667 -1.33301 -49.167 -7.33301 -67.5 -18s-33.333 -24 -45 -40s-20 -33.5 -25 -52.5s-7.5 -37.833 -7.5 -56.5h141c0 -26 -4.5 -50.333 -13.5 -73s-21.5 -42.5 -37.5 -59.5s-34.833 -30.333 -56.5 -40s-45.5 -14.5 -71.5 -14.5h-75c-26 0 -49.833 5 -71.5 15
s-40.5 23.833 -56.5 41.5s-28.5 38.167 -37.5 61.5s-13.5 48 -13.5 74v112l63 -21v-91c0 -17.333 1.66699 -35.5 5 -54.5s9.5 -36.333 18.5 -52s20.833 -28.667 35.5 -39s33.667 -15.5 57 -15.5h75c19.333 0 35.666 3.33301 48.999 10s24.5 15.667 33.5 27s16 24 21 38
s8.5 28.667 10.5 44h-140v37c0 26 5.33301 50.5 16 73.5s25.5 43 44.5 60s41.333 30.667 67 41s53.167 15.833 82.5 16.5h115v-186z" />
    <glyph glyph-name="yehisolated" unicode="&#x64a;" horiz-adv-x="572" arabic-form="isolated" 
d="M229 -64c10 0 18.333 -3.5 25 -10.5s10 -15.5 10 -25.5c0 -9.33301 -3.33301 -17.5 -10 -24.5s-15 -10.5 -25 -10.5c-9.33301 0 -17.5 3.5 -24.5 10.5s-10.5 15.167 -10.5 24.5c0 10 3.5 18.5 10.5 25.5s15.167 10.5 24.5 10.5zM341 -64
c9.33301 0 17.5 -3.33301 24.5 -10s10.5 -15 10.5 -25c0 -9.33301 -3.5 -17.5 -10.5 -24.5s-15.167 -10.5 -24.5 -10.5c-10 0 -18.333 3.5 -25 10.5s-10 15.167 -10 24.5c0 10 3.33301 18.333 10 25s15 10 25 10zM521 354
c-26.667 -1.33301 -49.166 -7.33105 -67.499 -17.998s-33.333 -24 -45 -40s-20 -33.5 -25 -52.5s-7.5 -37.833 -7.5 -56.5l141 -1c0 -26 -4.5 -50.333 -13.5 -73s-21.5 -42.334 -37.5 -59.001s-34.833 -29.834 -56.5 -39.501s-45.5 -14.5 -71.5 -14.5h-111
c-26 0 -49.833 5 -71.5 15s-40.5 23.833 -56.5 41.5s-28.5 38.167 -37.5 61.5s-13.5 48 -13.5 74v112l63 -21v-91c0 -17.333 1.66699 -35.5 5 -54.5s9.5 -36.333 18.5 -52s20.833 -28.667 35.5 -39s33.667 -15.5 57 -15.5h111c19.333 0 35.666 3.5 48.999 10.5
s24.5 16 33.5 27s16 23.667 21 38s8.5 28.833 10.5 43.5h-140v37c0 26.667 5.5 51.667 16.5 75s26.333 43.5 46 60.5s42.667 30.5 69 40.5s54.5 15 84.5 15z" />
    <glyph glyph-name="yehfinal" unicode="&#x64a;" horiz-adv-x="724" arabic-form="final" 
d="M321 -74c10 0 18.333 -3.5 25 -10.5s10 -15.167 10 -24.5c0 -10 -3.33301 -18.5 -10 -25.5s-15 -10.5 -25 -10.5c-9.33301 0 -17.5 3.5 -24.5 10.5s-10.5 15.5 -10.5 25.5c0 9.33301 3.5 17.5 10.5 24.5s15.167 10.5 24.5 10.5zM213 -74c9.33301 0 17.5 -3.5 24.5 -10.5
s10.5 -15.167 10.5 -24.5c0 -10 -3.5 -18.5 -10.5 -25.5s-15.167 -10.5 -24.5 -10.5c-10 0 -18.5 3.5 -25.5 10.5s-10.5 15.5 -10.5 25.5c0 9.33301 3.5 17.5 10.5 24.5s15.5 10.5 25.5 10.5zM609 192c0 -17.333 1.83301 -35.167 5.5 -53.5s9.83398 -35 18.501 -50
s20.5 -27.333 35.5 -37s34.167 -14.5 57.5 -14.5v-37c-26 0 -50 5 -72 15s-41.167 23.833 -57.5 41.5s-29 38.167 -38 61.5s-13.5 48 -13.5 74v162h-52c-26.667 -1.33301 -49.167 -7.33301 -67.5 -18s-33.333 -24 -45 -40s-20 -33.5 -25 -52.5s-7.5 -37.833 -7.5 -56.5h141
c0 -26 -4.5 -50.333 -13.5 -73s-21.5 -42.5 -37.5 -59.5s-34.833 -30.333 -56.5 -40s-45.5 -14.5 -71.5 -14.5h-75c-26 0 -49.833 5 -71.5 15s-40.5 23.833 -56.5 41.5s-28.5 38.167 -37.5 61.5s-13.5 48 -13.5 74v112l63 -21v-91c0 -17.333 1.66699 -35.5 5 -54.5
s9.5 -36.333 18.5 -52s20.833 -28.667 35.5 -39s33.667 -15.5 57 -15.5h75c19.333 0 35.666 3.33301 48.999 10s24.5 15.667 33.5 27s16 24 21 38s8.5 28.667 10.5 44h-140v37c0 26 5.33301 50.5 16 73.5s25.5 43 44.5 60s41.333 30.667 67 41s53.167 15.833 82.5 16.5h115
v-186z" />
    <glyph glyph-name="yehinitial" unicode="&#x64a;" horiz-adv-x="275" arabic-form="initial" 
d="M202 -88c10 0 18.333 -3.5 25 -10.5s10 -15.167 10 -24.5c0 -10 -3.33301 -18.5 -10 -25.5s-15 -10.5 -25 -10.5c-9.33301 0 -17.5 3.5 -24.5 10.5s-10.5 15.5 -10.5 25.5c0 9.33301 3.5 17.5 10.5 24.5s15.167 10.5 24.5 10.5zM94 -88c9.33301 0 17.5 -3.5 24.5 -10.5
s10.5 -15.167 10.5 -24.5c0 -10 -3.5 -18.5 -10.5 -25.5s-15.167 -10.5 -24.5 -10.5c-10 0 -18.5 3.5 -25.5 10.5s-10.5 15.5 -10.5 25.5c0 9.33301 3.5 17.5 10.5 24.5s15.5 10.5 25.5 10.5zM-4 37l74.999 0.000976562c28.667 0 47.5 5.83301 56.5 17.5
s13.5 26.5 13.5 44.5v254l64 23v-331c0 -14.667 -3.66699 -25.834 -11 -33.501s-15.666 -11.5 -24.999 -11.5h-98h-75v37z" />
    <glyph glyph-name="yehmedial" unicode="&#x64a;" horiz-adv-x="299" arabic-form="medial" 
d="M-4 0l-0.00292969 36.999h44c28.667 0 47.5 6 56.5 18s13.5 27 13.5 45v254l64 23v-277c0 -9.33301 1 -17.833 3 -25.5s5.5 -14.167 10.5 -19.5s12 -9.66602 21 -12.999s20.833 -5 35.5 -5h61v-36l1 -1h-123c-5.33301 0 -12.166 2 -20.499 6s-15.166 8.33301 -20.499 13
c-4 -5.33301 -9.16699 -9.83301 -15.5 -13.5s-12.166 -5.5 -17.499 -5.5h-113zM209.997 -77.001c9.33301 0 17.5 -3.5 24.5 -10.5s10.5 -15.5 10.5 -25.5c0 -9.33301 -3.5 -17.5 -10.5 -24.5s-15.167 -10.5 -24.5 -10.5c-10 0 -18.5 3.5 -25.5 10.5s-10.5 15.167 -10.5 24.5
c0 10 3.5 18.5 10.5 25.5s15.5 10.5 25.5 10.5zM94.9971 -77.001c10 0 18.333 -3.5 25 -10.5s10 -15.5 10 -25.5c0 -9.33301 -3.33301 -17.5 -10 -24.5s-15 -10.5 -25 -10.5s-18.333 3.5 -25 10.5s-10 15.167 -10 24.5c0 10 3.33301 18.5 10 25.5s15 10.5 25 10.5z" />
    <glyph glyph-name=".notdef" horiz-adv-x="500" 
d="M63 0v604h375v-604h-375zM125 63h250v479h-250v-479z" />
    <glyph glyph-name="space" unicode=" " horiz-adv-x="161" 
 />
    <glyph glyph-name="exclam" unicode="!" horiz-adv-x="253" 
d="M175 36c0 -11.333 -4.33301 -21.333 -13 -30s-19 -13 -31 -13c-11.333 0 -21.166 4.33301 -29.499 13s-12.5 18.667 -12.5 30s4.16699 21.333 12.5 30s18.166 13 29.499 13c12 0 22.333 -4.33301 31 -13s13 -18.667 13 -30zM89 511c0 12 4.16797 22.332 12.501 30.999
s18.166 13 29.499 13c12 0 22.333 -4.33301 31 -13s13 -19 13 -31c0 -13.333 -1.16699 -28.166 -3.5 -44.499s-5 -37.666 -8 -63.999s-6 -60.166 -9 -101.499s-5.5 -93.666 -7.5 -156.999h-31c-2 63.333 -4.5 115.666 -7.5 156.999s-6 75.166 -9 101.499l-7.5 64
c-2 16.333 -3 31.166 -3 44.499z" />
    <glyph glyph-name="quotedbl" unicode="&#x22;" horiz-adv-x="366" 
d="M67 511c0 12 4.16699 22.333 12.5 31s18.5 13 30.5 13c11.333 0 21.333 -4.33301 30 -13s13 -19 13 -31c0 -6 -1.5 -13 -4.5 -21s-6.5 -18 -10.5 -30s-8 -26.667 -12 -44s-7 -38 -9 -62h-15c-2 24 -5 44.667 -9 62s-7.83301 32 -11.5 44s-7 22 -10 30s-4.5 15 -4.5 21z
M218 511c0 12 4.00098 22.333 12.001 31s17.667 13 29 13c12 0 22.333 -4.33301 31 -13s13 -19 13 -31c0 -6 -1.5 -13 -4.5 -21s-6.5 -18 -10.5 -30s-8 -26.667 -12 -44s-7 -38 -9 -62h-15c-2 24 -4.83301 44.667 -8.5 62s-7.33398 32 -11.001 44s-7 22 -10 30
s-4.5 15 -4.5 21z" />
    <glyph glyph-name="numbersign" unicode="#" horiz-adv-x="393" 
d="M341 283l-8 -47h-70l-18 -111h-36l19 111h-97l-18 -111h-36l19 111h-71l9 47h69l18 99h-70l8 48h70l19 110h36l-19 -110h95l19 110h36l-19 -110h71l-9 -48h-70l-17 -99h70zM235 283l17 99h-95l-18 -99h96z" />
    <glyph glyph-name="dollar" unicode="$" horiz-adv-x="424" 
d="M227 524c26 -2.66699 47.8311 -8.50098 65.498 -17.501s30.834 -18.5 39.501 -28.5s12.667 -19.667 12 -29s-6 -16 -16 -20c-7.33301 -2.66699 -13.666 -1.66699 -18.999 3s-11.333 10.667 -18 18s-15 14.833 -25 22.5s-23 12.834 -39 15.501v-178l64 -32
c27.333 -14.667 48 -32.5 62 -53.5s21 -42.167 21 -63.5s-3.83301 -40.833 -11.5 -58.5s-18.334 -33 -32.001 -46s-29.334 -23.167 -47.001 -30.5s-36.5 -11.333 -56.5 -12v-89h-33v91c-27.333 2 -51.333 7.66699 -72 17s-37 19.666 -49 30.999s-19.167 22.333 -21.5 33
s0.5 19 8.5 25c8.66699 6 16.167 6.33301 22.5 1s13.833 -12.833 22.5 -22.5s19.834 -19.667 33.501 -30s32.167 -17.166 55.5 -20.499v205l-43 22c-23.333 12 -44.166 28.667 -62.499 50s-27.5 46.666 -27.5 75.999c0 16.667 3.33301 32.167 10 46.5s16 27 28 38
s26.167 19.833 42.5 26.5s33.833 10.334 52.5 11.001v90h33v-91v0zM226.998 48.999c26.667 1.33301 48.667 10 66 26s26 38 26 66c0 19.333 -8.66699 37 -26 53s-39.333 30.667 -66 44v-189v0zM193.998 488.999c-20.667 -2 -38.667 -9.33398 -54 -22.001
s-23 -28.334 -23 -47.001c0 -19.333 5.83301 -35.666 17.5 -48.999s31.5 -27.666 59.5 -42.999v161v0z" />
    <glyph glyph-name="percent" unicode="%" horiz-adv-x="690" 
d="M634 115c0 -18 -3.5 -34.833 -10.5 -50.5s-16.667 -29.334 -29 -41.001s-26.666 -20.834 -42.999 -27.501s-33.833 -10 -52.5 -10c-18 0 -35.167 3.33301 -51.5 10s-30.666 15.834 -42.999 27.501s-22 25.334 -29 41.001s-10.5 32.5 -10.5 50.5
c0 17.333 3.5 33.833 10.5 49.5s16.667 29.334 29 41.001s26.666 21 42.999 28s33.5 10.5 51.5 10.5c18.667 0 36.167 -3.5 52.5 -10.5s30.666 -16.333 42.999 -28s22 -25.334 29 -41.001s10.5 -32.167 10.5 -49.5zM187 -16l-32 16l344 556l33 -16zM321 426
c0 -18 -3.5 -34.833 -10.5 -50.5s-16.667 -29.334 -29 -41.001s-26.666 -20.834 -42.999 -27.501s-33.5 -10 -51.5 -10c-18.667 0 -36.167 3.33301 -52.5 10s-30.666 15.834 -42.999 27.501s-22 25.334 -29 41.001s-10.5 32.5 -10.5 50.5s3.5 34.833 10.5 50.5
s16.667 29.334 29 41.001s26.666 20.834 42.999 27.501s33.833 10 52.5 10c18 0 35.167 -3.33301 51.5 -10s30.666 -15.834 42.999 -27.501s22 -25.334 29 -41.001s10.5 -32.5 10.5 -50.5zM574 115c0 27.333 -6 50.666 -18 69.999s-31 29 -57 29
c-25.333 0 -43.833 -9.66699 -55.5 -29s-17.5 -42.666 -17.5 -69.999c0 -28 5.83301 -51.5 17.5 -70.5s30.167 -28.5 55.5 -28.5c26 0 45 9.5 57 28.5s18 42.5 18 70.5zM261 426c0 28 -6 51.5 -18 70.5s-30.667 28.5 -56 28.5s-44.166 -9.5 -56.499 -28.5
s-18.5 -42.5 -18.5 -70.5c0 -27.333 6.16699 -50.666 18.5 -69.999s31.166 -29 56.499 -29s44 9.66699 56 29s18 42.666 18 69.999z" />
    <glyph glyph-name="ampersand" unicode="&#x26;" horiz-adv-x="611" 
d="M210 321c16 8.66699 31.1689 17.668 45.502 27.001s27.166 19.166 38.499 29.499s20.333 21.5 27 33.5s10 25.667 10 41c0 19.333 -6.66699 35.5 -20 48.5s-30.333 19.5 -51 19.5c-14.667 0 -27.334 -2.5 -38.001 -7.5s-19.5 -11.5 -26.5 -19.5
s-12.167 -16.667 -15.5 -26s-5 -18.333 -5 -27c0 -20.667 3 -40.5 9 -59.5s14.667 -38.833 26 -59.5zM346.002 67.001l-90.5 99.501c-28.333 31.667 -52.833 62.167 -73.5 91.5c-17.333 -14.667 -31.833 -31.334 -43.5 -50.001s-17.5 -43 -17.5 -73c0 -14.667 3 -29 9 -43
s14.333 -26.333 25 -37s23.334 -19.167 38.001 -25.5s30.667 -9.5 48 -9.5c23.333 0 43.666 4.33301 60.999 13s32 20 44 34zM368.002 45.002c-15.333 -19.333 -34.0039 -34.165 -56.0039 -44.498s-48 -15.5 -78 -15.5c-21.333 0 -42.666 3.16699 -63.999 9.5
s-40.333 15.833 -57 28.5s-30.167 28.834 -40.5 48.501s-15.5 43.167 -15.5 70.5c0 36 10 65.5 30 88.5s44 43.167 72 60.5c-15.333 24.667 -27.333 48.167 -36 70.5s-13 43.833 -13 64.5c0 18.667 4 35.834 12 51.501s18.833 29.167 32.5 40.5s29.5 20.333 47.5 27
s37.333 10 58 10c17.333 0 33.833 -2.5 49.5 -7.5s29.334 -12 41.001 -21s21 -19.833 28 -32.5s10.5 -26.667 10.5 -42c0 -20 -5 -37.167 -15 -51.5s-22.833 -27.333 -38.5 -39s-33 -22.834 -52 -33.501s-37.833 -22.334 -56.5 -35.001
c16.667 -24.667 37.167 -51.167 61.5 -79.5l84.5 -96.5c6.66699 16 11 34 13 54c2 16.667 2.5 30.167 1.5 40.5s-4.33301 18.5 -10 24.5s-14.167 10.167 -25.5 12.5s-26.333 3.5 -45 3.5v19h203v-19c-18.667 0 -33.667 -1.33301 -45 -4s-20.166 -7 -26.499 -13
s-11 -14.167 -14 -24.5s-5.5 -23.5 -7.5 -39.5c-2 -14.667 -4.66699 -28.5 -8 -41.5s-7.66602 -25.167 -12.999 -36.5c17.333 -20.667 35.666 -37.834 54.999 -51.501s37.333 -20.5 54 -20.5c8 0 16.833 2.33301 26.5 7s20.167 12.667 31.5 24l16 -15
c-13.333 -17.333 -28.166 -30.333 -44.499 -39s-31.833 -13 -46.5 -13c-24.667 0 -46.5 5.66699 -65.5 17s-37.167 25.666 -54.5 42.999z" />
    <glyph glyph-name="quotesingle" unicode="'" horiz-adv-x="218" 
d="M67 511c0 12 4.16699 22.333 12.5 31s18.5 13 30.5 13c11.333 0 21.333 -4.33301 30 -13s13 -19 13 -31c0 -6 -1.5 -13 -4.5 -21s-6.5 -18 -10.5 -30s-8 -26.667 -12 -44s-7 -38 -9 -62h-15c-2 24 -5 44.667 -9 62s-7.83301 32 -11.5 44s-7 22 -10 30s-4.5 15 -4.5 21z
" />
    <glyph glyph-name="parenleft" unicode="(" horiz-adv-x="326" 
d="M277 -100c-28.667 23.333 -55.333 48.334 -80 75.001s-46 55.167 -64 85.5s-32.167 62.5 -42.5 96.5s-15.5 70 -15.5 108s5.16699 74.167 15.5 108.5s24.5 66.666 42.5 96.999s39.333 58.833 64 85.5s51 51.667 79 75l21 -19c-12.667 -14 -28 -32 -46 -54
s-35.333 -47.5 -52 -76.5s-31 -61.667 -43 -98s-18 -75.833 -18 -118.5s6 -82.167 18 -118.5s26.333 -69 43 -98s34 -54.333 52 -76l46 -53.5z" />
    <glyph glyph-name="parenright" unicode=")" horiz-adv-x="303" 
d="M247 265c0 -38 -5.16699 -74.001 -15.5 -108.001s-24.5 -66.167 -42.5 -96.5s-39.167 -58.833 -63.5 -85.5s-50.833 -51.667 -79.5 -75l-21 19l46.5 53.5c18.333 21.667 35.833 47 52.5 76s31 61.667 43 98s18 75.833 18 118.5s-6 82.167 -18 118.5s-26.333 69 -43 98
s-34.167 54.5 -52.5 76.5l-46.5 54l22 19c28 -23.333 54.167 -48.333 78.5 -75s45.5 -55.167 63.5 -85.5s32.167 -62.666 42.5 -96.999s15.5 -70.5 15.5 -108.5z" />
    <glyph glyph-name="asterisk" unicode="*" horiz-adv-x="368" 
d="M175 373c-14.667 -9.33301 -26.165 -18.498 -34.498 -27.498s-14.833 -17.333 -19.5 -25s-8.66699 -14.5 -12 -20.5s-7.33301 -10.333 -12 -13c-10.667 -6.66699 -21.834 -8.16699 -33.501 -4.5s-20.167 10.5 -25.5 20.5c-6.66699 10 -8.16699 20.667 -4.5 32
s10.5 20 20.5 26c4.66699 2.66699 10.334 4.16699 17.001 4.5s14.5 0.666016 23.5 0.999023s19.333 1.83301 31 4.5s25.167 8 40.5 16c-16 8 -29.833 13.333 -41.5 16s-21.834 4.16699 -30.501 4.5s-16.334 0.666016 -23.001 0.999023s-12.334 1.83301 -17.001 4.5
c-10 6.66699 -16.833 15.5 -20.5 26.5s-2.16699 21.5 4.5 31.5c5.33301 10 13.833 16.667 25.5 20s22.834 2 33.501 -4c4.66699 -3.33301 8.66699 -7.83301 12 -13.5l12 -20c4.66699 -7.66699 11.167 -16 19.5 -25s19.833 -18.167 34.5 -27.5
c-1.33301 17.333 -3.83301 31.833 -7.5 43.5s-7.5 21.5 -11.5 29.5l-10.5 20.5c-3 5.66699 -4.5 11.167 -4.5 16.5c0 12 4.16699 22.333 12.5 31s18.166 13 29.499 13s21.5 -4.33301 30.5 -13s13.5 -19 13.5 -31c0 -5.33301 -1.66699 -10.833 -5 -16.5s-7 -12.5 -11 -20.5
s-8 -17.833 -12 -29.5s-6.33301 -26.5 -7 -44.5c14.667 10 26 19.5 34 28.5s14.5 17.167 19.5 24.5s9 13.833 12 19.5s7.16699 9.83398 12.5 12.501c10.667 6.66699 21.5 8.5 32.5 5.5s19.5 -9.5 25.5 -19.5s7.5 -20.833 4.5 -32.5s-9.5 -20.5 -19.5 -26.5
c-5.33301 -3.33301 -11.166 -5 -17.499 -5s-14 -0.166992 -23 -0.5s-19.333 -1.66602 -31 -3.99902s-25.5 -7.5 -41.5 -15.5c16 -8 29.833 -13.167 41.5 -15.5s22 -3.83301 31 -4.5s16.667 -0.833984 23 -0.500977s12.166 -0.833984 17.499 -3.50098
c10 -6.66699 16.5 -15.834 19.5 -27.501s1.5 -22.5 -4.5 -32.5s-14.5 -16.5 -25.5 -19.5s-21.833 -1.16699 -32.5 5.5c-5.33301 2.66699 -9.5 6.83398 -12.5 12.501s-7 12.167 -12 19.5s-11.667 15.5 -20 24.5s-19.833 18.167 -34.5 27.5c1.33301 -17.333 4 -31.833 8 -43.5
s8 -21.5 12 -29.5s7.66699 -14.833 11 -20.5s5 -11.167 5 -16.5c0 -12 -4.5 -22.333 -13.5 -31s-19.167 -13 -30.5 -13s-21.166 4.33301 -29.499 13s-12.5 19 -12.5 31c0 5.33301 1.5 10.833 4.5 16.5l10.5 20.5c4 8 7.83301 17.833 11.5 29.5s6.16699 26.167 7.5 43.5z" />
    <glyph glyph-name="plus" unicode="+" horiz-adv-x="401" 
d="M367 219v-40h-141v-141h-40v141h-141v40h141v141h40v-141h141z" />
    <glyph glyph-name="comma" unicode="," horiz-adv-x="247" 
d="M139 -2c-1.33301 -0.666992 -2.66699 -0.998047 -4 -0.998047h-4c-11.333 0 -21.166 4.5 -29.499 13.5s-12.5 19.167 -12.5 30.5c0 12 4.16699 22.333 12.5 31s18.166 13 29.499 13c12 0 23.167 -4.66699 33.5 -14s15.5 -23.666 15.5 -42.999c0 -10 -1.66699 -21 -5 -33
s-8.5 -24.167 -15.5 -36.5s-15.667 -24.333 -26 -36s-22.5 -21.834 -36.5 -30.501l-10 11c17.333 17.333 29.5 33.166 36.5 47.499s12.167 30.166 15.5 47.499z" />
    <glyph glyph-name="hyphenminus" unicode="-" horiz-adv-x="395" 
d="M75 179v40h262v-40h-262z" />
    <glyph glyph-name="period" unicode="." horiz-adv-x="264" 
d="M190 40c0 -13.333 -5.16699 -24.5 -15.5 -33.5s-22.166 -13.5 -35.499 -13.5c-14 0 -25.833 4.5 -35.5 13.5s-14.5 20.167 -14.5 33.5s4.83301 24.5 14.5 33.5s21.5 13.5 35.5 13.5c13.333 0 25.166 -4.5 35.499 -13.5s15.5 -20.167 15.5 -33.5z" />
    <glyph glyph-name="slash" unicode="/" horiz-adv-x="181" 
d="M-75 -16l-32 16l345 556l32 -16z" />
    <glyph glyph-name="zero" unicode="0" horiz-adv-x="418" 
d="M364 195c0 -29.333 -4 -56.666 -12 -81.999s-19 -47.5 -33 -66.5s-30.333 -34 -49 -45s-38.667 -16.5 -60 -16.5s-41.333 5.5 -60 16.5s-34.834 26 -48.501 45s-24.5 41.167 -32.5 66.5s-12 52.666 -12 81.999c0 28.667 4 55.834 12 81.501s18.833 48 32.5 67
s29.834 34 48.501 45s38.667 16.5 60 16.5s41.333 -5.5 60 -16.5s35 -26 49 -45s25 -41.333 33 -67s12 -52.834 12 -81.501zM299 195c0 24.667 -1.83301 47.667 -5.5 69s-9.16699 40 -16.5 56s-16.5 28.667 -27.5 38s-24.167 14 -39.5 14s-28.5 -4.66699 -39.5 -14
s-20.167 -22 -27.5 -38s-12.833 -34.667 -16.5 -56s-5.5 -44.333 -5.5 -69s1.83301 -47.667 5.5 -69s9.16699 -40 16.5 -56s16.5 -28.5 27.5 -37.5s24.167 -13.5 39.5 -13.5s28.5 4.5 39.5 13.5s20.167 21.5 27.5 37.5s12.833 34.667 16.5 56s5.5 44.333 5.5 69z" />
    <glyph glyph-name="one" unicode="1" horiz-adv-x="380" 
d="M106 0v18.999c14.667 0 26.834 1.16699 36.501 3.5s17 7.33301 22 15s8.5 18.334 10.5 32.001s3 31.834 3 54.501v138c0 22.667 -1.5 40.5 -4.5 53.5s-7.83301 22.833 -14.5 29.5s-15.5 10.834 -26.5 12.501s-24.5 2.16699 -40.5 1.5v19l149 30v-284
c0 -22.667 1 -40.834 3 -54.501s5.5 -24.334 10.5 -32.001s12.167 -12.667 21.5 -15s21.666 -3.5 36.999 -3.5v-19h-207z" />
    <glyph glyph-name="two" unicode="2" horiz-adv-x="399" 
d="M63 22l165.001 146.999c17.333 15.333 30.833 32 40.5 50s14.5 35.333 14.5 52c0 33.333 -8.83301 57.666 -26.5 72.999s-40.167 23 -67.5 23c-12.667 0 -25.334 -3.5 -38.001 -10.5s-22.834 -16.667 -30.501 -29s-11.334 -26.666 -11.001 -42.999
s6.83301 -33.833 19.5 -52.5l-27 -28c-24 16 -39 35.5 -45 58.5s-4.5 45 4.5 66s24.833 39 47.5 54s51.334 22.5 86.001 22.5c19.333 0 38 -2.83301 56 -8.5s34 -13.667 48 -24s25.167 -23 33.5 -38s12.5 -31.833 12.5 -50.5c0 -18 -3.66699 -34.667 -11 -50
s-15.666 -28.666 -24.999 -39.999c-10.667 -13.333 -22.667 -25.333 -36 -36l-122 -106h205l-10 -52h-283v22z" />
    <glyph glyph-name="three" unicode="3" horiz-adv-x="418" 
d="M216 211l-8.50098 -10.998c-3 -4 -7.16699 -10.333 -12.5 -19c-7.33301 -12 -15.666 -18 -24.999 -18c-5.33301 0 -9.83301 1.5 -13.5 4.5s-5.5 7.16699 -5.5 12.5c0 6.66699 2.66699 13.667 8 21l122 136h-109c-19.333 0 -36.666 -3.33301 -51.999 -10
s-25.666 -20 -30.999 -40l-4 -18h-20l20 121h264v-25l-103 -119c32 -9.33301 58.5 -26 79.5 -50s31.5 -50.333 31.5 -79c0 -18 -3.83301 -35 -11.5 -51s-18.334 -30 -32.001 -42s-30 -21.5 -49 -28.5s-39.833 -10.5 -62.5 -10.5c-21.333 0 -40.5 2.83301 -57.5 8.5
s-31.167 12.667 -42.5 21s-20 17 -26 26s-9 17.167 -9 24.5c0 5.33301 2 10 6 14s10 6 18 6s14.167 -3.33301 18.5 -10s9.83301 -13.834 16.5 -21.501s15.667 -14.834 27 -21.501s27.666 -10 48.999 -10c32 0 55.167 9.5 69.5 28.5s21.5 41.167 21.5 66.5
c0 23.333 -6.83301 44 -20.5 62s-32.5 28.667 -56.5 32z" />
    <glyph glyph-name="four" unicode="4" horiz-adv-x="399" 
d="M205 313l-124 -165h124v165zM268 115c0 -20 1 -36.333 3 -49s5.5 -22.5 10.5 -29.5s12.167 -11.667 21.5 -14s21.666 -3.5 36.999 -3.5v-19h-207v19c14.667 0 26.834 1.16699 36.501 3.5s17 7 22 14s8.5 16.833 10.5 29.5s3 29 3 49h-174v18l214 284h23v-269
c10 0 18.833 0.833008 26.5 2.5s14.5 5 20.5 10s11.167 12 15.5 21s8.5 20.833 12.5 35.5l4 18h19l-8 -120h-90v0z" />
    <glyph glyph-name="five" unicode="5" horiz-adv-x="411" 
d="M355 124c0 -19.333 -4.16406 -37.3291 -12.4971 -53.9961s-19.833 -31.334 -34.5 -44.001s-31.834 -22.667 -51.501 -30s-40.834 -11 -63.501 -11c-21.333 0 -40 2.66699 -56 8s-29.333 12 -40 20s-18.834 16.667 -24.501 26s-8.5 17.666 -8.5 24.999c0 6 2 11 6 15
s10.333 6 19 6c8 0 14 -3.33301 18 -10s8.83301 -13.834 14.5 -21.501s13.667 -14.834 24 -21.501s26.166 -10 47.499 -10c16 0 30 2.66699 42 8s22.333 12.666 31 21.999s15.167 20.166 19.5 32.499s6.5 25.5 6.5 39.5c0 28.667 -7.33301 53.167 -22 73.5
s-37.667 30.5 -69 30.5c-18.667 0 -36.5 -5.66699 -53.5 -17s-28.167 -27.666 -33.5 -48.999h-35l23 228h234l-9 -53h-194l-11 -103c10.667 9.33301 23.834 16.833 39.501 22.5s31.5 8.5 47.5 8.5c21.333 0 40.833 -3.66699 58.5 -11s33 -17.333 46 -30
s23.167 -27.667 30.5 -45s11 -35.666 11 -54.999z" />
    <glyph glyph-name="six" unicode="6" horiz-adv-x="418" 
d="M355 112c0 -17.333 -3.66797 -33.834 -11.001 -49.501s-17.166 -29.167 -29.499 -40.5s-26.666 -20.333 -42.999 -27s-33.833 -10 -52.5 -10c-13.333 0 -28.666 2.5 -45.999 7.5s-33.833 14.333 -49.5 28s-29 32.667 -40 57s-16.5 55.833 -16.5 94.5
c0 28 3.66699 55.833 11 83.5s17.833 52.667 31.5 75s30.5 40.333 50.5 54s43 20.5 69 20.5c18.667 0 35.5 -3 50.5 -9s26.833 -13 35.5 -21s13.667 -16.333 15 -25s-2 -15.334 -10 -20.001c-7.33301 -4 -13.5 -4.16699 -18.5 -0.5s-10.5 8.66699 -16.5 15
s-13.333 12.5 -22 18.5s-20 9 -34 9c-16 0 -29.833 -4.83301 -41.5 -14.5s-21.334 -22.167 -29.001 -37.5s-13.667 -32.833 -18 -52.5s-7.16602 -39.5 -8.49902 -59.5c7.33301 8 18.666 15 33.999 21s30.666 9 45.999 9c18.667 0 36.5 -3.33301 53.5 -10
s32.167 -15.667 45.5 -27s24 -24.666 32 -39.999s12 -31.666 12 -48.999zM291.999 111.999c0 10.667 -1.66797 21.333 -5.00098 32s-8.5 20.334 -15.5 29.001s-15.5 15.667 -25.5 21s-21.333 8 -34 8c-18.667 0 -36 -3.83301 -52 -11.5s-26 -17.834 -30 -30.501
c1.33301 -47.333 10.833 -82.833 28.5 -106.5s37.834 -35.5 60.501 -35.5c12.667 0 23.667 2.83301 33 8.5s17 13 23 22s10.333 19.167 13 30.5s4 22.333 4 33z" />
    <glyph glyph-name="seven" unicode="7" horiz-adv-x="432" 
d="M371 365l-174.004 -344c-7.33301 -14 -14.166 -25 -20.499 -33s-16.166 -10.333 -29.499 -7c-7.33301 2 -13.5 7.83301 -18.5 17.5s-1.83301 23.5 9.5 41.5l189 297h-167c-19.333 0 -36.666 -3.33301 -51.999 -10s-25.666 -20 -30.999 -40l-4 -18h-21l22 121h297v-25z
" />
    <glyph glyph-name="eight" unicode="8" horiz-adv-x="440" 
d="M358 104c0 -17.333 -3.83691 -33.167 -11.5039 -47.5s-18.334 -26.833 -32.001 -37.5s-29.5 -19 -47.5 -25s-37 -9 -57 -9s-39 3.16699 -57 9.5s-33.833 14.666 -47.5 24.999s-24.5 22.166 -32.5 35.499s-12 27.333 -12 42c0 16 2.83301 30 8.5 42
s13.334 22.5 23.001 31.5s20.334 16.667 32.001 23s23.5 12.166 35.5 17.499c-9.33301 6 -18.666 12.333 -27.999 19s-17.666 13.834 -24.999 21.501s-13.333 16 -18 25s-7 18.5 -7 28.5c0 14.667 3.5 28 10.5 40s16.5 22.5 28.5 31.5s25.667 16 41 21s31.333 7.5 48 7.5
s32.667 -2.33301 48 -7s29 -11.167 41 -19.5s21.5 -18.166 28.5 -29.499s10.5 -23.333 10.5 -36c0 -11.333 -2.66699 -21.5 -8 -30.5s-12.166 -17.167 -20.499 -24.5s-17.666 -14 -27.999 -20s-20.833 -11.333 -31.5 -16c12.667 -6 25.5 -12.667 38.5 -20
s24.667 -15.666 35 -24.999s18.666 -19.833 24.999 -31.5s9.5 -25.5 9.5 -41.5zM277.996 315.999c0 15.333 -6.33203 28.499 -18.999 39.499s-29 16.5 -49 16.5c-19.333 0 -35.5 -5.5 -48.5 -16.5s-19.5 -24.167 -19.5 -39.5c0 -9.33301 2.5 -17.833 7.5 -25.5
s11.167 -14.667 18.5 -21s15.666 -12.166 24.999 -17.499l27 -15c15.333 7.33301 28.833 17.5 40.5 30.5s17.5 29.167 17.5 48.5zM298.997 93.998c0 12 -3.33203 22.832 -9.99902 32.499s-15.334 18.5 -26.001 26.5s-22.5 15.333 -35.5 22l-37.5 19
c-17.333 -9.33301 -33 -21.5 -47 -36.5s-21 -35.167 -21 -60.5c0 -22 7.66699 -40.5 23 -55.5s37 -22.5 65 -22.5s49.833 7.33301 65.5 22s23.5 32.334 23.5 53.001z" />
    <glyph glyph-name="nine" unicode="9" horiz-adv-x="411" 
d="M354 219c0 -28 -3.66699 -55.998 -11 -83.998s-17.833 -53.167 -31.5 -75.5s-30.5 -40.333 -50.5 -54s-43 -20.5 -69 -20.5c-18.667 0 -35.5 3 -50.5 9s-26.833 13 -35.5 21s-13.667 16.167 -15 24.5s2 15.166 10 20.499c6.66699 4 12.5 4.16699 17.5 0.5
s10.5 -8.5 16.5 -14.5s13.333 -12 22 -18s20.334 -9 35.001 -9c16 0 29.833 4.66699 41.5 14s21.334 21.833 29.001 37.5s13.667 33.334 18 53.001s7.16602 39.5 8.49902 59.5c-7.33301 -8.66699 -18.666 -16 -33.999 -22s-30.666 -9 -45.999 -9
c-18.667 0 -36.667 3.33301 -54 10s-32.5 15.667 -45.5 27s-23.5 24.666 -31.5 39.999s-12 31.666 -12 48.999s3.66699 33.666 11 48.999s17.166 28.833 29.499 40.5s26.666 20.834 42.999 27.501s33.833 10 52.5 10c13.333 0 28.666 -2.5 45.999 -7.5
s33.833 -14.333 49.5 -28s29 -32.5 40 -56.5s16.5 -55.333 16.5 -94zM291 229.002c-1.33301 48 -10.832 83.8359 -28.499 107.503s-37.834 35.5 -60.501 35.5c-12.667 0 -23.667 -2.83301 -33 -8.5s-17 -13 -23 -22s-10.333 -19.167 -13 -30.5s-4 -22.333 -4 -33
s1.66699 -21.334 5 -32.001s8.5 -20.334 15.5 -29.001s15.333 -15.834 25 -21.501s21.167 -8.5 34.5 -8.5c18.667 0 36 4 52 12s26 18 30 30z" />
    <glyph glyph-name="colon" unicode=":" horiz-adv-x="280" 
d="M193 36c0 -11.333 -4.16699 -21.333 -12.5 -30s-18.5 -13 -30.5 -13c-11.333 0 -21.166 4.33301 -29.499 13s-12.5 18.667 -12.5 30s4.16699 21.333 12.5 30s18.166 13 29.499 13c12 0 22.167 -4.33301 30.5 -13s12.5 -18.667 12.5 -30zM193 207
c0 -11.333 -4.16699 -21.333 -12.5 -30s-18.5 -13 -30.5 -13c-11.333 0 -21.166 4.33301 -29.499 13s-12.5 18.667 -12.5 30s4.16699 21.333 12.5 30s18.166 13 29.499 13c12 0 22.167 -4.33301 30.5 -13s12.5 -18.667 12.5 -30z" />
    <glyph glyph-name="semicolon" unicode=";" horiz-adv-x="278" 
d="M193 207c0 -11.333 -4.16699 -21.333 -12.5 -30s-18.5 -13 -30.5 -13c-11.333 0 -21.166 4.33301 -29.499 13s-12.5 18.667 -12.5 30s4.16699 21.333 12.5 30s18.166 13 29.499 13c12 0 22.167 -4.33301 30.5 -13s12.5 -18.667 12.5 -30zM150 -7
c-11.333 0 -21.166 4.33398 -29.499 13.001s-12.5 18.667 -12.5 30s4.16699 21.333 12.5 30s18.166 13 29.499 13c12 0 23.167 -4.5 33.5 -13.5s15.5 -23.5 15.5 -43.5c0 -10 -1.66699 -21 -5 -33s-8.5 -24 -15.5 -36s-15.667 -23.833 -26 -35.5
s-22.5 -21.834 -36.5 -30.501l-10 10c16.667 17.333 28.667 33.333 36 48s12.333 30.667 15 48h-7z" />
    <glyph glyph-name="less" unicode="&#x3c;" horiz-adv-x="447" 
d="M372 45l-297 196l297 195l13 -15l-210 -180l210 -180z" />
    <glyph glyph-name="equal" unicode="=" horiz-adv-x="409" 
d="M75 232v41h262v-41h-262zM75 120v40h262v-40h-262z" />
    <glyph glyph-name="greater" unicode="&#x3e;" horiz-adv-x="442" 
d="M79 45l-13 16l208 180l-208 180l13 15l296 -195z" />
    <glyph glyph-name="question" unicode="?" horiz-adv-x="465" 
d="M246 36c0 -11.333 -4.33301 -21.333 -13 -30s-19 -13 -31 -13c-11.333 0 -21.166 4.33301 -29.499 13s-12.5 18.667 -12.5 30s4.16699 21.333 12.5 30s18.166 13 29.499 13c12 0 22.333 -4.33301 31 -13s13 -18.667 13 -30zM349 413c0 18 -3.83105 33.999 -11.498 47.999
s-17.834 25.833 -30.501 35.5s-27.5 17 -44.5 22s-34.5 7.5 -52.5 7.5c-34 0 -60.167 -6.5 -78.5 -19.5s-27.5 -26.5 -27.5 -40.5c0 -6.66699 2.66699 -12.167 8 -16.5s15.666 -6.5 30.999 -6.5c10 0 18.5 -3.5 25.5 -10.5s10.5 -15.167 10.5 -24.5
c0 -7.33301 -1.5 -13.666 -4.5 -18.999s-6.83301 -9.66602 -11.5 -12.999s-9.66699 -5.66602 -15 -6.99902s-10.333 -2 -15 -2c-7.33301 0 -15 2 -23 6s-15.333 9.5 -22 16.5s-12 15.667 -16 26s-6 22.166 -6 35.499c0 14 3.83301 27.333 11.5 40s18.167 23.667 31.5 33
s29.166 16.833 47.499 22.5s38.5 8.5 60.5 8.5c24.667 0 48.5 -3.5 71.5 -10.5s43.5 -17 61.5 -30s32.333 -28.833 43 -47.5s16 -40 16 -64c0 -20 -2.66699 -37.667 -8 -53s-12.5 -28.833 -21.5 -40.5s-19 -21.834 -30 -30.501s-22.5 -16 -34.5 -22
c-27.333 -14 -58.333 -23.333 -93 -28v-85h-39v148c18.667 0 37.834 2 57.501 6s37.5 10.833 53.5 20.5s29.167 22.167 39.5 37.5s15.5 34.333 15.5 57z" />
    <glyph glyph-name="at" unicode="@" horiz-adv-x="644" 
d="M411 381c-4.66699 5.33301 -11.335 10.333 -20.002 15s-20.667 7 -36 7c-13.333 0 -25.5 -3.66699 -36.5 -11s-21 -17.333 -30 -30s-16.667 -27.167 -23 -43.5s-11.166 -33.5 -14.499 -51.5c-6 -36 -5.16699 -66.5 2.5 -91.5s24.167 -37.5 49.5 -37.5
c17.333 0 33.833 7.83301 49.5 23.5s25.834 35.5 30.501 59.5zM456.999 138c11.333 0 23.6582 4.99707 36.9912 14.9971s26 23.5 38 40.5s22 36.833 30 59.5s12 46.667 12 72c0 32.667 -5.66699 61.5 -17 86.5s-26.666 46.167 -45.999 63.5s-41.666 30.5 -66.999 39.5
s-51.666 13.5 -78.999 13.5c-38 0 -73.5 -7.66699 -106.5 -23s-61.667 -35.833 -86 -61.5s-43.5 -55.167 -57.5 -88.5s-21 -68.333 -21 -105c0 -38 5.83301 -72.167 17.5 -102.5s28.167 -56.166 49.5 -77.499s46.5 -37.833 75.5 -49.5s61.167 -17.5 96.5 -17.5
c36 0 69.333 5 100 15s61 24.333 91 43l10 -17c-36 -25.333 -71.5 -43.666 -106.5 -54.999s-68.833 -17 -101.5 -17c-40 0 -77.667 7 -113 21s-66.166 33.333 -92.499 58s-47.166 53.667 -62.499 87s-23 69.666 -23 108.999c0 43.333 8.33301 84.166 25 122.499
s39.334 71.833 68.001 100.5s62.334 51.334 101.001 68.001s79.667 25 123 25c35.333 0 68.333 -5.66699 99 -17s57.167 -27.333 79.5 -48s40 -45.5 53 -74.5s19.5 -61.167 19.5 -96.5c0 -29.333 -5.16699 -57.5 -15.5 -84.5s-23.666 -50.667 -39.999 -71
s-34.333 -36.5 -54 -48.5s-38.834 -18 -57.501 -18c-17.333 0 -31 4.83301 -41 14.5s-16.333 20.167 -19 31.5c-10 -13.333 -23.833 -24.833 -41.5 -34.5s-33.5 -14.5 -47.5 -14.5c-19.333 0 -35.666 4.33301 -48.999 13s-24 20.5 -32 35.5s-13.167 32.5 -15.5 52.5
s-1.5 41.333 2.5 64s11.5 44 22.5 64s24 37.5 39 52.5s31.5 26.833 49.5 35.5s36.667 13 56 13c12 0 22.333 -1.16699 31 -3.5s17.667 -6.16602 27 -11.499h50l-40 -225c-3.33301 -19.333 -2.66602 -33.166 2.00098 -41.499s13.667 -12.5 27 -12.5z" />
    <glyph glyph-name="A" unicode="A" horiz-adv-x="661" 
d="M156 87c-10.667 -24 -11.001 -41.333 -1.00098 -52s33.667 -16 71 -16v-19h-210v19c18.667 0 33.5 1.16699 44.5 3.5s20 6.33301 27 12s13 13.5 18 23.5s11.167 23 18.5 39l198 458h11l199 -458c6.66699 -16 12.667 -29 18 -39s11.5 -17.833 18.5 -23.5
s15.833 -9.66699 26.5 -12s25.334 -3.5 44.001 -3.5v-19h-249v19c38 0 62 5.16699 72 15.5s9.33301 27.833 -2 52.5l-43 100h-218zM306.999 437l-93 -217h188z" />
    <glyph glyph-name="B" unicode="B" horiz-adv-x="542" 
d="M301 33c38.667 0 67.5 11.502 86.5 34.502s28.5 50.833 28.5 83.5c0 16.667 -2.33301 32.167 -7 46.5s-11.834 27 -21.501 38s-21.667 19.667 -36 26s-31.166 9.5 -50.499 9.5h-109v-133c0 -22.667 0.833008 -40.834 2.5 -54.501s5.5 -24.334 11.5 -32.001
s14.667 -12.667 26 -15s26.333 -3.5 45 -3.5h24v0zM192 304.002h80c34 0 59 9.83301 75 29.5s24 43.5 24 71.5s-8 52 -24 72s-41 30 -75 30h-80v-203zM380 293.002c34.667 -10.667 62.4951 -28.8379 83.4951 -54.5049s31.5 -54.834 31.5 -87.501
c0 -21.333 -4.16699 -41.166 -12.5 -59.499s-20.666 -34.166 -36.999 -47.499s-36.666 -24 -60.999 -32s-52.166 -12 -83.499 -12h-267v19c18.667 0 33.667 1.16699 45 3.5s20 7.33301 26 15s10 18.334 12 32.001s3 31.834 3 54.501v293c0 22.667 -1 40.834 -3 54.501
s-6 24.167 -12 31.5s-14.667 12.166 -26 14.499s-26.333 3.5 -45 3.5v19h242c28.667 0 53.834 -3.5 75.501 -10.5s39.834 -16.667 54.501 -29s25.667 -26.666 33 -42.999s11 -33.833 11 -52.5c0 -23.333 -6.5 -44.666 -19.5 -63.999s-29.833 -35.333 -50.5 -48z" />
    <glyph glyph-name="C" unicode="C" horiz-adv-x="623" 
d="M538 10c-2 10.667 -6.16699 20.8291 -12.5 30.4961s-12.166 16.5 -17.499 20.5c-23.333 -24 -49.166 -42.667 -77.499 -56s-58.5 -20 -90.5 -20c-38 0 -73.833 7.5 -107.5 22.5s-63 35.333 -88 61s-44.667 55.834 -59 90.501s-21.5 71.667 -21.5 111
s7.16699 76.333 21.5 111s34 64.834 59 90.501s54.333 46 88 61s69.5 22.5 107.5 22.5c32 0 62.167 -6.66699 90.5 -20s54.166 -32 77.499 -56c5.33301 4.66699 11.166 11.5 17.499 20.5s10.5 19.167 12.5 30.5h18v-198h-18c-12.667 58.667 -35.667 104.667 -69 138
s-75 50 -125 50c-36 0 -66.5 -7.83301 -91.5 -23.5s-45.167 -35.5 -60.5 -59.5s-26.5 -50.833 -33.5 -80.5s-10.5 -58.5 -10.5 -86.5s3.5 -56.667 10.5 -86s18.167 -56.166 33.5 -80.499s35.5 -44.166 60.5 -59.499s55.5 -23 91.5 -23c50 0 91.667 16.667 125 50
s56.333 79 69 137h18v-198h-18z" />
    <glyph glyph-name="D" unicode="D" horiz-adv-x="634" 
d="M34 19c18.667 0 33.667 1.16504 45 3.49805s20 7.33301 26 15s10 18.334 12 32.001s3 31.834 3 54.501v293c0 22.667 -1 40.834 -3 54.501s-6 24.167 -12 31.5s-14.667 12.166 -26 14.499s-26.333 3.5 -45 3.5v19h244c52.667 0 97.834 -7.16699 135.501 -21.5
s68.834 -33.666 93.501 -57.999s42.834 -53 54.501 -86s17.5 -67.833 17.5 -104.5c0 -37.333 -5.83301 -72.333 -17.5 -105s-29.834 -61.334 -54.501 -86.001s-55.834 -44 -93.501 -58s-82.834 -21 -135.501 -21h-244v19zM192 137.998
c0 -22.667 0.833008 -40.832 2.5 -54.499s5.5 -24.334 11.5 -32.001s14.5 -12.667 25.5 -15s25.5 -3.5 43.5 -3.5h4c44 0 79.833 7.5 107.5 22.5s49.334 34 65.001 57s26.334 48.5 32.001 76.5s8.5 55 8.5 81s-2.83301 53 -8.5 81s-16.334 53.5 -32.001 76.5
s-37.334 42 -65.001 57s-63.5 22.5 -107.5 22.5h-87v-369z" />
    <glyph glyph-name="E" unicode="E" horiz-adv-x="519" 
d="M34 19c18.667 0 33.667 1.16504 45 3.49805s20 7.33301 26 15s10 18.334 12 32.001s3 31.834 3 54.501v293c0 22.667 -1 40.834 -3 54.501s-6 24.167 -12 31.5s-14.667 12.166 -26 14.499s-26.333 3.5 -45 3.5v19h411l8 -119h-19l-5 18
c-3.33301 12 -6.66602 22.167 -9.99902 30.5s-8.5 15.333 -15.5 21s-16.667 9.83398 -29 12.501s-28.833 4 -49.5 4h-133v-205h45c22.667 0 40.834 1 54.501 3s24.167 6 31.5 12s12.166 14.667 14.499 26s3.5 26.666 3.5 45.999h19v-206h-19
c0 18.667 -1.16699 33.667 -3.5 45s-7.16602 20 -14.499 26s-17.833 10 -31.5 12s-31.834 3 -54.501 3h-45v-131c0 -22.667 0.833008 -40.834 2.5 -54.501s5.5 -24.334 11.5 -32.001s14.667 -12.667 26 -15s26.333 -3.5 45 -3.5h78c20.667 0 37.167 1.33301 49.5 4
s22 6.83398 29 12.501s12.167 12.834 15.5 21.501s6.66602 19 9.99902 31l4 18h19l-7 -120h-441v19z" />
    <glyph glyph-name="F" unicode="F" horiz-adv-x="503" 
d="M192 302h44.999c22.667 0 40.834 1 54.501 3s24.167 6 31.5 12s12.166 14.667 14.499 26s3.5 26.666 3.5 45.999h19v-206h-19c0 18.667 -1.16699 33.667 -3.5 45s-7.16602 20 -14.499 26s-17.833 10 -31.5 12s-31.834 3 -54.501 3h-45v-145
c0 -22.667 0.833008 -40.834 2.5 -54.501s5.5 -24.334 11.5 -32.001s14.667 -12.667 26 -15s26.333 -3.5 45 -3.5v-19h-243v19c18.667 0 33.667 1.16699 45 3.5s20 7.33301 26 15s10 18.334 12 32.001s3 31.834 3 54.501v293c0 22.667 -1 40.834 -3 54.501
s-6 24.167 -12 31.5s-14.667 12.166 -26 14.499s-26.333 3.5 -45 3.5v19h426l7 -119h-19l-4 18c-3.33301 12 -6.66602 22.167 -9.99902 30.5s-8.5 15.333 -15.5 21s-16.667 9.83398 -29 12.501s-28.833 4 -49.5 4h-148v-205z" />
    <glyph glyph-name="G" unicode="G" horiz-adv-x="694" 
d="M508 147c0 19.333 -6.16504 33.833 -18.498 43.5s-34.166 14.5 -65.499 14.5v18h236v-18c-18.667 0 -33.667 -1.33301 -45 -4s-20 -7.66699 -26 -15s-10 -17.833 -12 -31.5s-3 -31.834 -3 -54.501v-69c-25.333 0 -47.333 -2.33301 -66 -7s-36.5 -10 -53.5 -16
s-34.5 -11.333 -52.5 -16s-38.667 -7 -62 -7c-38 0 -73.833 7.5 -107.5 22.5s-63 35.333 -88 61s-44.667 55.834 -59 90.501s-21.5 71.667 -21.5 111s7.16699 76.333 21.5 111s34 64.834 59 90.501s54.333 46 88 61s69.5 22.5 107.5 22.5c32 0 62.167 -6.66699 90.5 -20
s54.166 -32 77.499 -56c5.33301 4.66699 11.166 11.5 17.499 20.5s10.5 19.167 12.5 30.5h18v-198h-18c-12 58.667 -34.833 104.667 -68.5 138s-75.834 50 -126.501 50c-36 0 -66.5 -7.83301 -91.5 -23.5s-45.167 -35.5 -60.5 -59.5s-26.5 -50.833 -33.5 -80.5
s-10.5 -58.5 -10.5 -86.5s3.33301 -56.667 10 -86s18 -55.833 34 -79.5s37.667 -43.167 65 -58.5s62 -23 104 -23c19.333 0 38 2.66699 56 8s33.833 13.166 47.5 23.499s24.5 23.333 32.5 39s12 33.5 12 53.5z" />
    </font>
</defs>
</svg>
